<svg width="92" height="28" viewBox="0 0 92 28" fill="none" xmlns="http://www.w3.org/2000/svg">
    <g filter="url(#filter0_d_803_307452)">
        <path
                d="M6 22.765L9.07326 4.25309H16.7926C18.1786 4.25309 19.3084 4.44894 20.1822 4.84063C21.056 5.23232 21.6706 5.78068 22.0262 6.48573C22.3877 7.19077 22.4902 8.0073 22.3335 8.9353C22.2069 9.63432 21.9478 10.261 21.5561 10.8154C21.1705 11.3638 20.6884 11.8218 20.1099 12.1893C19.5314 12.5509 18.8926 12.804 18.1936 12.9486L18.1575 13.1294C18.9047 13.1595 19.5645 13.3584 20.137 13.726C20.7155 14.0936 21.1434 14.6088 21.4206 15.2716C21.6977 15.9285 21.761 16.6998 21.6104 17.5856C21.4477 18.5799 21.0469 19.4688 20.4082 20.2521C19.7755 21.0295 18.9409 21.6441 17.9044 22.0961C16.8679 22.542 15.6687 22.765 14.3069 22.765H6ZM11.089 19.1584H13.8549C14.813 19.1584 15.5542 18.9746 16.0785 18.607C16.6088 18.2334 16.9221 17.7212 17.0186 17.0704C17.0969 16.5944 17.0547 16.1846 16.892 15.8411C16.7293 15.4916 16.4581 15.2234 16.0785 15.0366C15.6989 14.8438 15.2198 14.7474 14.6413 14.7474H11.794L11.089 19.1584ZM12.2912 11.8639H14.7769C15.259 11.8639 15.7019 11.7826 16.1056 11.6199C16.5154 11.4572 16.8528 11.2222 17.118 10.9148C17.3892 10.6075 17.5579 10.2369 17.6242 9.80304C17.7266 9.18237 17.585 8.69426 17.1993 8.33873C16.8137 7.98319 16.2502 7.80542 15.509 7.80542H12.96L12.2912 11.8639Z"
                fill="white" />
        <path d="M22.9029 22.765L25.9762 4.25309H30.4505L27.9919 19.1313H35.6932L35.0785 22.765H22.9029Z" fill="white" />
        <path
                d="M37.3947 22.765L40.468 4.25309H53.3757L52.7611 7.88677H44.3277L43.713 11.6832H51.4866L50.8719 15.3259H43.0984L42.4837 19.1313H50.9171L50.3025 22.765H37.3947Z"
                fill="white" />
        <path
                d="M65.2439 9.8392C65.2921 9.15826 65.1114 8.63099 64.7016 8.25738C64.2979 7.88376 63.6591 7.69696 62.7853 7.69696C62.2068 7.69696 61.7127 7.77228 61.3029 7.92293C60.8932 8.06756 60.5708 8.27244 60.3358 8.53758C60.1007 8.7967 59.9531 9.098 59.8928 9.44148C59.8386 9.71266 59.8537 9.9537 59.938 10.1646C60.0224 10.3755 60.17 10.5623 60.3809 10.725C60.5979 10.8877 60.866 11.0293 61.1854 11.1499C61.5108 11.2704 61.8754 11.3758 62.2791 11.4662L63.7977 11.8278C64.6775 12.0266 65.4398 12.2918 66.0846 12.6232C66.7354 12.9486 67.2626 13.3433 67.6664 13.8073C68.0701 14.2653 68.3473 14.7926 68.498 15.3892C68.6486 15.9857 68.6607 16.6546 68.5341 17.3958C68.3413 18.5649 67.8803 19.5682 67.1512 20.4058C66.428 21.2434 65.482 21.8852 64.3129 22.3311C63.1499 22.777 61.7971 23 60.2544 23C58.7117 23 57.4011 22.768 56.3224 22.304C55.2498 21.834 54.4724 21.1259 53.9904 20.1798C53.5083 19.2337 53.3787 18.0406 53.6017 16.6004H57.8771C57.8109 17.197 57.8862 17.6941 58.1031 18.0918C58.3261 18.4895 58.6696 18.7908 59.1336 18.9957C59.5976 19.2006 60.158 19.303 60.8148 19.303C61.4174 19.303 61.9447 19.2217 62.3966 19.059C62.8546 18.8963 63.2192 18.6703 63.4904 18.3811C63.7676 18.0918 63.9363 17.7604 63.9966 17.3868C64.0568 17.0433 63.9996 16.745 63.8248 16.4919C63.6561 16.2388 63.3668 16.0189 62.9571 15.8321C62.5533 15.6453 62.023 15.4765 61.3662 15.3259L59.5132 14.8739C57.9826 14.5003 56.8226 13.9037 56.0332 13.0842C55.2498 12.2647 54.9726 11.1529 55.2016 9.74881C55.3944 8.59784 55.8705 7.5915 56.6298 6.72978C57.3951 5.86806 58.3622 5.19918 59.5313 4.72312C60.7064 4.24104 61.9989 4 63.409 4C64.8432 4 66.0484 4.24405 67.0246 4.73216C68.0069 5.21424 68.7149 5.89518 69.1488 6.77498C69.5887 7.64875 69.7152 8.67016 69.5284 9.8392H65.2439Z"
                fill="white" />
        <path
                d="M82.0475 9.8392C82.0957 9.15826 81.9149 8.63099 81.5051 8.25738C81.1014 7.88376 80.4626 7.69696 79.5888 7.69696C79.0103 7.69696 78.5162 7.77228 78.1064 7.92293C77.6967 8.06756 77.3743 8.27244 77.1393 8.53758C76.9043 8.7967 76.7566 9.098 76.6964 9.44148C76.6421 9.71266 76.6572 9.9537 76.7416 10.1646C76.8259 10.3755 76.9736 10.5623 77.1845 10.725C77.4014 10.8877 77.6696 11.0293 77.9889 11.1499C78.3143 11.2704 78.6789 11.3758 79.0827 11.4662L80.6012 11.8278C81.481 12.0266 82.2433 12.2918 82.8881 12.6232C83.5389 12.9486 84.0662 13.3433 84.4699 13.8073C84.8737 14.2653 85.1509 14.7926 85.3015 15.3892C85.4522 15.9857 85.4642 16.6546 85.3377 17.3958C85.1448 18.5649 84.6838 19.5682 83.9547 20.4058C83.2316 21.2434 82.2855 21.8852 81.1164 22.3311C79.9534 22.777 78.6006 23 77.0579 23C75.5153 23 74.2046 22.768 73.126 22.304C72.0533 21.834 71.276 21.1259 70.7939 20.1798C70.3118 19.2337 70.1822 18.0406 70.4052 16.6004H74.6807C74.6144 17.197 74.6897 17.6941 74.9066 18.0918C75.1296 18.4895 75.4731 18.7908 75.9371 18.9957C76.4011 19.2006 76.9615 19.303 77.6183 19.303C78.2209 19.303 78.7482 19.2217 79.2002 19.059C79.6581 18.8963 80.0227 18.6703 80.2939 18.3811C80.5711 18.0918 80.7398 17.7604 80.8001 17.3868C80.8603 17.0433 80.8031 16.745 80.6283 16.4919C80.4596 16.2388 80.1704 16.0189 79.7606 15.8321C79.3568 15.6453 78.8266 15.4765 78.1697 15.3259L76.3167 14.8739C74.7861 14.5003 73.6261 13.9037 72.8367 13.0842C72.0533 12.2647 71.7761 11.1529 72.0051 9.74881C72.1979 8.59784 72.674 7.5915 73.4333 6.72978C74.1986 5.86806 75.1658 5.19918 76.3348 4.72312C77.5099 4.24104 78.8025 4 80.2125 4C81.6467 4 82.8519 4.24405 83.8281 4.73216C84.8104 5.21424 85.5184 5.89518 85.9523 6.77498C86.3922 7.64875 86.5188 8.67016 86.3319 9.8392H82.0475Z"
                fill="white" />
    </g>
    <defs>
        <filter id="filter0_d_803_307452" x="2" y="0" width="88.416" height="27" filterUnits="userSpaceOnUse"
                color-interpolation-filters="sRGB">
            <feFlood flood-opacity="0" result="BackgroundImageFix" />
            <feColorMatrix in="SourceAlpha" type="matrix" values="0 0 0 0 0 0 0 0 0 0 0 0 0 0 0 0 0 0 127 0"
                           result="hardAlpha" />
            <feOffset />
            <feGaussianBlur stdDeviation="2" />
            <feComposite in2="hardAlpha" operator="out" />
            <feColorMatrix type="matrix" values="0 0 0 0 0.34902 0 0 0 0 0.803922 0 0 0 0 0.945098 0 0 0 1 0" />
            <feBlend mode="normal" in2="BackgroundImageFix" result="effect1_dropShadow_803_307452" />
            <feBlend mode="normal" in="SourceGraphic" in2="effect1_dropShadow_803_307452" result="shape" />
        </filter>
    </defs>
</svg>
