<svg xmlns="http://www.w3.org/2000/svg" width="18" height="20" viewBox="0 0 18 20" fill="none">
    <g clip-path="url(#clip0_187_198856)">
        <path fill-rule="evenodd" clip-rule="evenodd"
              d="M16.5134 4.74051L16.9683 3.60294C16.9683 3.60294 16.3894 2.97095 15.6863 2.25471C14.9833 1.53846 13.4946 1.95978 13.4946 1.95978L11.7991 0H8.82158H5.84409L4.14858 1.95978C4.14858 1.95978 2.65983 1.53846 1.95682 2.25471C1.2538 2.97095 0.674843 3.60294 0.674843 3.60294L1.12974 4.74051L0.550781 6.42579C0.550781 6.42579 2.25353 12.9965 2.45306 13.7989C2.84593 15.3789 3.11473 15.9898 4.23129 16.7903C5.34784 17.5908 7.37419 18.9812 7.70502 19.1919C8.03585 19.4025 8.44939 19.7614 8.82158 19.7614C9.19376 19.7614 9.6073 19.4025 9.93813 19.1919C10.269 18.9812 12.2953 17.5908 13.4119 16.7903C14.5284 15.9898 14.7972 15.3789 15.1901 13.7989C15.3896 12.9965 17.0924 6.42579 17.0924 6.42579L16.5134 4.74051Z"
              fill="url(#paint0_linear_187_198856)" />
        <path fill-rule="evenodd" clip-rule="evenodd"
              d="M8.82162 12.2975C8.93498 12.2975 9.66123 12.5587 10.244 12.8659C10.8268 13.1732 11.2491 13.3905 11.3842 13.4766C11.5191 13.5627 11.4368 13.725 11.3139 13.8136C11.1909 13.9021 9.53833 15.2059 9.37796 15.35C9.21755 15.4941 8.98187 15.7321 8.82162 15.7321C8.66138 15.7321 8.42566 15.4941 8.26529 15.35C8.10488 15.2059 6.45237 13.9021 6.32938 13.8136C6.2064 13.725 6.1241 13.5627 6.25908 13.4766C6.3941 13.3905 6.81645 13.1732 7.39925 12.8659C7.98197 12.5587 8.70827 12.2975 8.82162 12.2975ZM8.83049 3.01172C8.88615 3.01329 9.19973 3.02881 9.64871 3.18129C10.145 3.34982 10.6826 3.56048 10.9307 3.56048C11.1788 3.56048 13.0191 3.20236 13.0191 3.20236C13.0191 3.20236 15.1999 5.88829 15.1999 6.46234C15.1999 7.03639 14.9256 7.1879 14.6497 7.48632C14.3739 7.78474 13.1692 9.08806 13.0145 9.25541C12.8598 9.4228 12.5377 9.67656 12.7272 10.1333C12.9166 10.5901 13.1961 11.1713 12.8853 11.7608C12.5745 12.3503 12.0421 12.7438 11.7009 12.6787C11.3597 12.6136 10.5585 12.1871 10.2639 11.9922C9.9692 11.7973 9.03535 11.0127 9.03535 10.7124C9.03535 10.4122 10.0007 9.87319 10.179 9.75072C10.3574 9.62828 11.1708 9.15425 11.1875 8.96819C11.2041 8.7821 11.1978 8.72753 10.9577 8.26779C10.7177 7.808 10.2854 7.19447 10.3573 6.78625C10.4293 6.37807 11.1265 6.16581 11.6241 5.97436C12.1216 5.78296 13.0795 5.42142 13.1992 5.36522C13.3189 5.30897 13.2879 5.25542 12.9254 5.22041C12.5629 5.1854 11.5342 5.04628 11.0704 5.17798C10.6066 5.30969 9.81429 5.51007 9.75011 5.61632C9.68593 5.72258 9.62932 5.72616 9.69523 6.09271C9.76111 6.45926 10.1005 8.21811 10.1334 8.53052C10.1663 8.84293 10.2308 9.04947 9.90014 9.12648C9.56948 9.2035 9.01289 9.33723 8.82163 9.33723C8.63037 9.33723 8.07375 9.2035 7.74312 9.12648C7.41245 9.04947 7.47688 8.84293 7.50984 8.53052C7.5428 8.21811 7.88211 6.45926 7.94803 6.09271C8.01391 5.72616 7.95729 5.72258 7.89315 5.61632C7.82897 5.51007 7.03659 5.30969 6.5728 5.17798C6.10902 5.04628 5.08034 5.1854 4.71783 5.22041C4.35532 5.25542 4.32439 5.30897 4.44407 5.36522C4.56374 5.42142 5.52171 5.78296 6.0192 5.97436C6.51673 6.16581 7.214 6.37807 7.28595 6.78625C7.35791 7.19447 6.92555 7.808 6.68553 8.26779C6.44547 8.72753 6.4391 8.7821 6.45577 8.96819C6.47239 9.15425 7.28587 9.62828 7.46423 9.75072C7.64259 9.87319 8.60787 10.4122 8.60787 10.7124C8.60787 11.0127 7.67406 11.7973 7.37941 11.9922C7.08476 12.1871 6.28353 12.6136 5.94236 12.6787C5.60119 12.7438 5.06876 12.3503 4.75794 11.7608C4.44717 11.1713 4.72664 10.5901 4.91604 10.1333C5.10548 9.67656 4.78346 9.4228 4.62871 9.25541C4.47405 9.08806 3.26932 7.78474 2.99349 7.48632C2.71766 7.1879 2.44336 7.03639 2.44336 6.46234C2.44336 5.88829 4.6242 3.20236 4.6242 3.20236C4.6242 3.20236 6.46445 3.56048 6.71258 3.56048C6.9607 3.56048 7.4983 3.34982 7.99455 3.18129C8.44354 3.02881 8.75712 3.01329 8.81277 3.01172H8.83049Z"
              fill="white" />
        <path
                d="M13.4948 1.95978L11.7993 0H8.82179H5.84431L4.14879 1.95978C4.14879 1.95978 2.66005 1.53846 1.95703 2.25471C1.95703 2.25471 3.94202 2.07215 4.62436 3.20268C4.62436 3.20268 6.46461 3.5608 6.71274 3.5608C6.96086 3.5608 7.49846 3.35014 7.99471 3.18161C8.49096 3.01309 8.82179 3.01186 8.82179 3.01186C8.82179 3.01186 9.15262 3.01309 9.64887 3.18161C10.1451 3.35014 10.6827 3.5608 10.9308 3.5608C11.179 3.5608 13.0192 3.20268 13.0192 3.20268C13.7016 2.07215 15.6866 2.25471 15.6866 2.25471C14.9835 1.53846 13.4948 1.95978 13.4948 1.95978Z"
                fill="url(#paint1_linear_187_198856)" />
    </g>
    <defs>
        <linearGradient id="paint0_linear_187_198856" x1="0.550781" y1="1002.01" x2="1654.71" y2="1002.01"
                        gradientUnits="userSpaceOnUse">
            <stop stop-color="#FF5500" />
            <stop offset="0.409877" stop-color="#FF5500" />
            <stop offset="0.581981" stop-color="#FF2000" />
            <stop offset="1" stop-color="#FF2000" />
        </linearGradient>
        <linearGradient id="paint1_linear_187_198856" x1="31.4541" y1="180.552" x2="1374.91" y2="180.552"
                        gradientUnits="userSpaceOnUse">
            <stop stop-color="#FF452A" />
            <stop offset="1" stop-color="#FF2000" />
        </linearGradient>
        <clipPath id="clip0_187_198856">
            <rect width="16.9491" height="20" fill="white" transform="translate(0.347656)" />
        </clipPath>
    </defs>
</svg>
