<svg width="22" height="22" viewBox="0 0 22 22" fill="none" xmlns="http://www.w3.org/2000/svg">
    <circle cx="11" cy="11" r="8" fill="url(#paint0_linear_1_2)" />
    <circle cx="11" cy="11" r="5.5" fill="url(#paint1_linear_1_2)" />
    <path
            d="M16.6667 5.35298C18.1086 6.79991 19 8.79586 19 11C19 15.4183 15.4183 19 11 19C8.47362 19 6.22075 17.8289 4.75463 16M16 4.75463C14.6304 3.65672 12.8919 3 11 3C6.58172 3 3 6.58172 3 11C3 12.5546 3.44344 14.0057 4.21073 15.2336"
            stroke="white" stroke-width="0.833333" />
    <g filter="url(#filter0_f_1_2)">
        <path
                d="M16.6667 5.35298C18.1086 6.79991 19 8.79586 19 11C19 15.4183 15.4183 19 11 19C8.47362 19 6.22075 17.8289 4.75463 16M16 4.75463C14.6304 3.65672 12.8919 3 11 3C6.58172 3 3 6.58172 3 11C3 12.5546 3.44344 14.0057 4.21073 15.2336"
                stroke="#59CDF1" stroke-width="0.833333" />
    </g>
    <g filter="url(#filter1_d_1_2)">
        <path fill-rule="evenodd" clip-rule="evenodd"
              d="M10.6768 6.8335L11.5248 6.84128L11.3109 7.81422C11.5502 7.81422 11.7896 7.81145 12.0288 7.81485L12.233 6.8335L13.081 6.8413L12.8487 7.89772C12.8487 7.89772 12.9063 7.89239 13.1694 7.98921C13.4865 8.10587 13.7095 8.26919 13.8385 8.47918C13.9697 8.68917 14.0069 8.93236 13.95 9.20875C13.9041 9.41694 13.8101 9.60359 13.668 9.76871C13.528 9.93203 13.3531 10.0684 13.1432 10.1779C12.9333 10.2856 12.7015 10.361 12.4479 10.4041L12.4348 10.4579C12.7059 10.4669 12.9453 10.5261 13.153 10.6356C13.363 10.7451 13.5182 10.8985 13.6188 11.0959C13.7194 11.2916 13.7423 11.5213 13.6877 11.7851C13.6286 12.0813 13.4832 12.346 13.2514 12.5793C13.0219 12.8108 12.719 12.9939 12.3429 13.1285C12.1343 13.2022 11.9076 13.2554 11.6627 13.2882L11.6636 13.2881L11.513 13.9728L10.7467 13.9764L10.8817 13.3277L10.0987 13.3277L9.95682 13.9728L9.19057 13.9728L9.32487 13.3277L8.02344 13.3277L9.13857 7.81422L10.4726 7.81422L10.6768 6.8335ZM9.86997 12.2535H10.8736C11.2212 12.2535 11.4902 12.1988 11.6804 12.0893C11.8728 11.9781 11.9865 11.8255 12.0215 11.6317C12.0499 11.4899 12.0346 11.3678 11.9756 11.2655C11.9166 11.1614 11.8182 11.0816 11.6804 11.0259C11.5427 10.9685 11.3688 10.9398 11.1589 10.9398H10.1258L9.86997 12.2535ZM10.3062 10.081H11.2081C11.383 10.081 11.5438 10.0568 11.6903 10.0083C11.8389 9.95985 11.9614 9.88986 12.0576 9.79832C12.156 9.70679 12.2172 9.59641 12.2413 9.46719C12.2784 9.28233 12.227 9.13696 12.0871 9.03107C11.9472 8.92518 11.7427 8.87223 11.4738 8.87223H10.5489L10.3062 10.081Z"
              fill="white" />
    </g>
    <defs>
        <filter id="filter0_f_1_2" x="0.583984" y="0.583496" width="20.832" height="20.833" filterUnits="userSpaceOnUse"
                color-interpolation-filters="sRGB">
            <feFlood flood-opacity="0" result="BackgroundImageFix" />
            <feBlend mode="normal" in="SourceGraphic" in2="BackgroundImageFix" result="shape" />
            <feGaussianBlur stdDeviation="1" result="effect1_foregroundBlur_1_2" />
        </filter>
        <filter id="filter1_d_1_2" x="4.6901" y="3.50016" width="12.6198" height="13.8097" filterUnits="userSpaceOnUse"
                color-interpolation-filters="sRGB">
            <feFlood flood-opacity="0" result="BackgroundImageFix" />
            <feColorMatrix in="SourceAlpha" type="matrix" values="0 0 0 0 0 0 0 0 0 0 0 0 0 0 0 0 0 0 127 0"
                           result="hardAlpha" />
            <feOffset />
            <feGaussianBlur stdDeviation="1.66667" />
            <feComposite in2="hardAlpha" operator="out" />
            <feColorMatrix type="matrix" values="0 0 0 0 0.34902 0 0 0 0 0.803922 0 0 0 0 0.945098 0 0 0 1 0" />
            <feBlend mode="normal" in2="BackgroundImageFix" result="effect1_dropShadow_1_2" />
            <feBlend mode="normal" in="SourceGraphic" in2="effect1_dropShadow_1_2" result="shape" />
        </filter>
        <linearGradient id="paint0_linear_1_2" x1="3.36" y1="19" x2="19.3275" y2="18.6343" gradientUnits="userSpaceOnUse">
            <stop stop-color="#051D30" />
            <stop offset="1" stop-color="#011626" />
        </linearGradient>
        <linearGradient id="paint1_linear_1_2" x1="16.5" y1="5.5" x2="4.90487" y2="6.16788" gradientUnits="userSpaceOnUse">
            <stop stop-color="#010910" />
            <stop offset="1" stop-color="#041828" />
        </linearGradient>
    </defs>
</svg>
