<svg xmlns="http://www.w3.org/2000/svg" width="23" height="10" viewBox="0 0 23 10" fill="none">
    <path
            d="M16.9855 4.03161C16.5325 3.57851 16.5325 2.8439 16.9855 2.39081C17.4386 1.93772 18.1732 1.93772 18.6263 2.39081C19.0794 2.8439 19.0794 3.57851 18.6263 4.03161C18.1732 4.4847 17.4386 4.4847 16.9855 4.03161ZM13.0887 7.92849C12.7488 7.58867 12.7488 7.03772 13.0887 6.6979C13.4285 6.35808 13.9794 6.35808 14.3193 6.6979C14.6591 7.03772 14.6591 7.58867 14.3193 7.92849C13.9794 8.26831 13.4285 8.26831 13.0887 7.92849ZM19.2416 5.8775C18.9018 5.53768 18.9018 4.98672 19.2416 4.6469C19.5815 4.30708 20.1324 4.30708 20.4722 4.6469C20.8121 4.98672 20.8121 5.53768 20.4722 5.8775C20.1324 6.21732 19.5815 6.21732 19.2416 5.8775ZM17.1906 7.92849C16.8508 7.58867 16.8508 7.03772 17.1906 6.6979C17.5305 6.35808 18.0814 6.35808 18.4212 6.6979C18.7611 7.03772 18.7611 7.58867 18.4212 7.92849C18.0814 8.26831 17.5305 8.26831 17.1906 7.92849ZM21.4977 7.72339C21.2712 7.49685 21.2712 7.12954 21.4977 6.903C21.7243 6.67645 22.0916 6.67645 22.3181 6.903C22.5447 7.12954 22.5447 7.49685 22.3181 7.72339C22.0916 7.94994 21.7243 7.94994 21.4977 7.72339ZM19.4467 9.77439C19.2202 9.54784 19.2202 9.18054 19.4467 8.95399C19.6733 8.72744 20.0406 8.72744 20.2671 8.95399C20.4937 9.18054 20.4937 9.54784 20.2671 9.77439C20.0406 10.0009 19.6733 10.0009 19.4467 9.77439ZM14.9346 6.0826C14.4815 5.62951 14.4815 4.8949 14.9346 4.4418C15.3876 3.98871 16.1223 3.98871 16.5753 4.4418C17.0284 4.8949 17.0284 5.62951 16.5753 6.0826C16.1223 6.53569 15.3876 6.53569 14.9346 6.0826ZM14.9346 1.98061C14.4815 1.52752 14.4815 0.792912 14.9346 0.33982C15.3876 -0.113273 16.1223 -0.113273 16.5753 0.33982C17.0284 0.792912 17.0284 1.52752 16.5753 1.98061C16.1223 2.43371 15.3876 2.43371 14.9346 1.98061ZM12.8836 4.03161C12.4305 3.57851 12.4305 2.8439 12.8836 2.39081C13.3367 1.93772 14.0713 1.93772 14.5244 2.39081C14.9774 2.8439 14.9774 3.57851 14.5244 4.03161C14.0713 4.4847 13.3367 4.4847 12.8836 4.03161ZM8.76251 4.03161C8.30942 3.57851 8.30942 2.8439 8.76251 2.39081C9.2156 1.93772 9.95021 1.93772 10.4033 2.39081C10.8564 2.8439 10.8564 3.57851 10.4033 4.03161C9.95021 4.4847 9.2156 4.4847 8.76251 4.03161ZM4.86562 7.92849C4.5258 7.58867 4.5258 7.03772 4.86562 6.6979C5.20544 6.35808 5.7564 6.35808 6.09622 6.6979C6.43604 7.03772 6.43604 7.58867 6.09622 7.92849C5.7564 8.26831 5.20544 8.26831 4.86562 7.92849ZM11.0186 5.8775C10.6788 5.53768 10.6788 4.98672 11.0186 4.6469C11.3584 4.30708 11.9094 4.30708 12.2492 4.6469C12.589 4.98672 12.589 5.53768 12.2492 5.8775C11.9094 6.21732 11.3584 6.21732 11.0186 5.8775ZM8.96761 7.92849C8.62779 7.58867 8.62779 7.03772 8.96761 6.6979C9.30743 6.35808 9.85839 6.35808 10.1982 6.6979C10.538 7.03772 10.538 7.58867 10.1982 7.92849C9.85839 8.26831 9.30743 8.26831 8.96761 7.92849ZM0.968738 7.72339C0.742192 7.49685 0.742192 7.12954 0.968738 6.903C1.19528 6.67645 1.56259 6.67645 1.78913 6.903C2.01568 7.12954 2.01568 7.49685 1.78913 7.72339C1.56259 7.94994 1.19528 7.94994 0.968738 7.72339ZM3.01973 9.77439C2.79318 9.54784 2.79318 9.18054 3.01973 8.95399C3.24628 8.72744 3.61358 8.72744 3.84013 8.95399C4.06667 9.18054 4.06667 9.54784 3.84013 9.77439C3.61358 10.0009 3.24628 10.0009 3.01973 9.77439ZM11.2237 9.77439C10.9972 9.54784 10.9972 9.18054 11.2237 8.95399C11.4502 8.72744 11.8176 8.72744 12.0441 8.95399C12.2706 9.18054 12.2706 9.54784 12.0441 9.77439C11.8176 10.0009 11.4502 10.0009 11.2237 9.77439ZM2.81463 5.8775C2.47481 5.53768 2.47481 4.98672 2.81463 4.6469C3.15445 4.30708 3.70541 4.30708 4.04523 4.6469C4.38505 4.98672 4.38505 5.53768 4.04523 5.8775C3.70541 6.21732 3.15445 6.21732 2.81463 5.8775ZM6.71152 6.0826C6.25842 5.62951 6.25842 4.8949 6.71152 4.4418C7.16461 3.98871 7.89922 3.98871 8.35231 4.4418C8.8054 4.8949 8.8054 5.62951 8.35231 6.0826C7.89922 6.53569 7.16461 6.53569 6.71152 6.0826ZM6.71152 1.98061C6.25842 1.52752 6.25842 0.792912 6.71152 0.33982C7.16461 -0.113273 7.89922 -0.113273 8.35231 0.33982C8.8054 0.792912 8.8054 1.52752 8.35231 1.98061C7.89922 2.43371 7.16461 2.43371 6.71152 1.98061ZM4.66052 4.03161C4.20743 3.57851 4.20743 2.8439 4.66052 2.39081C5.11362 1.93772 5.84823 1.93772 6.30132 2.39081C6.75441 2.8439 6.75441 3.57851 6.30132 4.03161C5.84823 4.4847 5.11362 4.4847 4.66052 4.03161Z"
            fill="white" />
</svg>
