<svg width="21" height="19" viewBox="0 0 21 19" fill="none" xmlns="http://www.w3.org/2000/svg">
    <g clip-path="url(#clip0_187_149387)">
        <path d="M18.8007 0.772461L11.3457 6.3094L12.7243 3.04268L18.8007 0.772461Z" fill="#8CA0CF" stroke="#E2761B"
              stroke-width="0.0998997" stroke-linecap="round" stroke-linejoin="round" />
        <path
                d="M1.5914 0.772461L8.98647 6.36185L7.67529 3.04268L1.5914 0.772461ZM16.1193 13.6071L14.1338 16.649L18.382 17.8178L19.6033 13.6745L16.1193 13.6071ZM0.804688 13.6745L2.01847 17.8178L6.2667 16.649L4.2812 13.6071L0.804688 13.6745Z"
                fill="#E4761B" stroke="#E4761B" stroke-width="0.0998997" stroke-linecap="round" stroke-linejoin="round" />
        <path
                d="M6.02561 8.46773L4.8418 10.2584L9.06006 10.4457L8.91021 5.9128L6.02561 8.46773ZM14.3647 8.46773L11.4427 5.86035L11.3453 10.4457L15.556 10.2584L14.3647 8.46773ZM6.26537 16.6495L8.79783 15.4133L6.61002 13.705L6.26537 16.6495ZM11.5925 15.4133L14.1325 16.6495L13.7803 13.705L11.5925 15.4133Z"
                fill="#E4761B" stroke="#E4761B" stroke-width="0.0998997" stroke-linecap="round" stroke-linejoin="round" />
        <path
                d="M14.1327 16.6493L11.5928 15.4131L11.7951 17.0689L11.7726 17.7657L14.1327 16.6493ZM6.26562 16.6493L8.62576 17.7657L8.61077 17.0689L8.79808 15.4131L6.26562 16.6493Z"
                fill="#D7C1B3" stroke="#D7C1B3" stroke-width="0.0998997" stroke-linecap="round" stroke-linejoin="round" />
        <path
                d="M8.66366 12.6113L6.55078 11.9894L8.04178 11.3076L8.66366 12.6113ZM11.7281 12.6113L12.35 11.3076L13.8485 11.9894L11.7281 12.6113Z"
                fill="#233447" stroke="#233447" stroke-width="0.0998997" stroke-linecap="round" stroke-linejoin="round" />
        <path
                d="M6.26676 16.6489L6.6264 13.6069L4.28125 13.6744L6.26676 16.6489ZM13.7742 13.6069L14.1339 16.6489L16.1194 13.6744L13.7742 13.6069ZM15.5574 10.2578L11.3467 10.4451L11.7363 12.6104L12.3581 11.3068L13.8566 11.9886L15.5574 10.2578ZM6.55147 11.9886L8.04997 11.3068L8.66435 12.6104L9.06145 10.4451L4.84319 10.2578L6.55147 11.9886Z"
                fill="#CD6116" stroke="#CD6116" stroke-width="0.0998997" stroke-linecap="round" stroke-linejoin="round" />
        <path
                d="M4.8418 10.2578L6.61002 13.7044L6.55008 11.9886L4.8418 10.2578ZM13.8552 11.9886L13.7803 13.7044L15.556 10.2578L13.8552 11.9886ZM9.06006 10.4451L8.66296 12.6104L9.15746 15.1654L9.26985 11.8013L9.06006 10.4451ZM11.3453 10.4451L11.143 11.7938L11.2329 15.1654L11.7349 12.6104L11.3453 10.4451Z"
                fill="#E4751F" stroke="#E4751F" stroke-width="0.0998997" stroke-linecap="round" stroke-linejoin="round" />
        <path
                d="M11.7356 12.6111L11.2336 15.1661L11.5932 15.4133L13.781 13.705L13.8559 11.9893L11.7356 12.6111ZM6.55078 11.9893L6.61072 13.705L8.79852 15.4133L9.15816 15.1661L8.66366 12.6111L6.55078 11.9893Z"
                fill="#F6851B" stroke="#F6851B" stroke-width="0.0998997" stroke-linecap="round" stroke-linejoin="round" />
        <path
                d="M11.7726 17.7658L11.7951 17.069L11.6078 16.9042H8.7831L8.61077 17.069L8.62576 17.7658L6.26562 16.6494L7.0898 17.3237L8.76062 18.4851H11.6302L13.3086 17.3237L14.1327 16.6494L11.7726 17.7658Z"
                fill="#C0AD9E" stroke="#C0AD9E" stroke-width="0.0998997" stroke-linecap="round" stroke-linejoin="round" />
        <path
                d="M11.5933 15.4133L11.2337 15.166H9.15828L8.79864 15.4133L8.61133 17.0691L8.78365 16.9043H11.6083L11.7956 17.0691L11.5933 15.4133Z"
                fill="#161616" stroke="#161616" stroke-width="0.0998997" stroke-linecap="round" stroke-linejoin="round" />
        <path
                d="M19.1154 6.66904L19.7523 3.61211L18.8008 0.772461L11.593 6.12209L14.3652 8.46723L18.2838 9.61358L19.1529 8.6021L18.7783 8.33237L19.3777 7.78542L18.9131 7.42578L19.5125 6.96874L19.1154 6.66904ZM0.646484 3.61211L1.28334 6.66904L0.878751 6.96874L1.47815 7.42578L1.02111 7.78542L1.62051 8.33237L1.24588 8.6021L2.10752 9.61358L6.02608 8.46723L8.7983 6.12209L1.59054 0.772461L0.646484 3.61211Z"
                fill="#763D16" stroke="#763D16" stroke-width="0.0998997" stroke-linecap="round" stroke-linejoin="round" />
        <path
                d="M18.2846 9.61387L14.3661 8.46752L15.5574 10.2582L13.7817 13.7048L16.1193 13.6748H19.6033L18.2846 9.61387ZM6.02694 8.46752L2.10838 9.61387L0.804688 13.6748H4.2812L6.61136 13.7048L4.84313 10.2582L6.02694 8.46752ZM11.3466 10.4455L11.5939 6.12238L12.7327 3.04297H7.67529L8.79916 6.12238L9.0614 10.4455L9.15131 11.8092L9.1588 15.1658H11.2342L11.2492 11.8092L11.3466 10.4455Z"
                fill="#F6851B" stroke="#F6851B" stroke-width="0.0998997" stroke-linecap="round" stroke-linejoin="round" />
    </g>
    <defs>
        <clipPath id="clip0_187_149387">
            <rect width="20.2904" height="18.5" fill="white" transform="translate(0.0546875 0.5)" />
        </clipPath>
    </defs>
</svg>
