<svg width="24" height="24" viewBox="0 0 24 24" fill="none" xmlns="http://www.w3.org/2000/svg">
<path fill-rule="evenodd" clip-rule="evenodd" d="M13.0009 1.57654C12.3821 1.21928 11.6197 1.21928 11.0009 1.57654L3.47461 5.92184C2.85581 6.27911 2.47461 6.93936 2.47461 7.65389V16.3445C2.47461 17.059 2.85581 17.7193 3.47461 18.0765L11.0009 22.4218C11.6197 22.7791 12.3821 22.7791 13.0009 22.4218L20.5272 18.0765C21.146 17.7193 21.5272 17.059 21.5272 16.3445V7.65389C21.5272 6.93936 21.146 6.27911 20.5272 5.92184L13.0009 1.57654ZM9.59207 8.99915V14.9991H8.38989L6.47262 11.8468H6.44152V14.9991H5.00098V8.99915H6.22389L8.11007 12.1398H8.15153V8.99915H9.59207ZM10.2735 14.9991V8.99915H14.0044V10.3116H11.714V11.3429H13.7764V12.6554H11.714V14.9991H10.2735ZM14.3891 8.99915V10.3116H15.9852V14.9991H17.405V10.3116H19.001V8.99915H14.3891Z" fill="#001011"/>
</svg>
