<svg width="112" height="112" viewBox="0 0 112 112" fill="none" xmlns="http://www.w3.org/2000/svg">
<g id="QR Code">
<g clip-path="url(#clip0_699_212860)">
<path id="Vector" d="M112 0H0V112H112V0Z" fill="white"/>
<g id="Vector_2">
<path d="M16.1129 12.6455H12.6445V16.1139H16.1129V12.6455Z" fill="black"/>
<path d="M19.5813 12.6455H16.1129V16.1139H19.5813V12.6455Z" fill="black"/>
<path d="M23.0497 12.6455H19.5813V16.1139H23.0497V12.6455Z" fill="black"/>
<path d="M26.5181 12.6455H23.0497V16.1139H26.5181V12.6455Z" fill="black"/>
<path d="M29.9865 12.6455H26.5181V16.1139H29.9865V12.6455Z" fill="black"/>
<path d="M33.4549 12.6455H29.9865V16.1139H33.4549V12.6455Z" fill="black"/>
<path d="M36.9232 12.6455H33.4549V16.1139H36.9232V12.6455Z" fill="black"/>
<path d="M43.86 12.6455H40.3916V16.1139H43.86V12.6455Z" fill="black"/>
<path d="M47.3284 12.6455H43.86V16.1139H47.3284V12.6455Z" fill="black"/>
<path d="M50.7968 12.6455H47.3284V16.1139H50.7968V12.6455Z" fill="black"/>
<path d="M54.2652 12.6455H50.7968V16.1139H54.2652V12.6455Z" fill="black"/>
<path d="M64.6703 12.6455H61.2019V16.1139H64.6703V12.6455Z" fill="black"/>
<path d="M71.6071 12.6455H68.1387V16.1139H71.6071V12.6455Z" fill="black"/>
<path d="M78.5439 12.6455H75.0755V16.1139H78.5439V12.6455Z" fill="black"/>
<path d="M82.0123 12.6455H78.5439V16.1139H82.0123V12.6455Z" fill="black"/>
<path d="M85.4807 12.6455H82.0123V16.1139H85.4807V12.6455Z" fill="black"/>
<path d="M88.9491 12.6455H85.4807V16.1139H88.9491V12.6455Z" fill="black"/>
<path d="M92.4174 12.6455H88.9491V16.1139H92.4174V12.6455Z" fill="black"/>
<path d="M95.8858 12.6455H92.4174V16.1139H95.8858V12.6455Z" fill="black"/>
<path d="M99.3542 12.6455H95.8858V16.1139H99.3542V12.6455Z" fill="black"/>
<path d="M16.1129 16.1139H12.6445V19.5823H16.1129V16.1139Z" fill="black"/>
<path d="M36.9232 16.1139H33.4549L33.4549 19.5823H36.9232V16.1139Z" fill="black"/>
<path d="M47.3284 16.1139H43.86V19.5823H47.3284V16.1139Z" fill="black"/>
<path d="M57.7336 16.1139H54.2652V19.5823H57.7336V16.1139Z" fill="black"/>
<path d="M61.2019 16.1139H57.7336V19.5823H61.2019V16.1139Z" fill="black"/>
<path d="M68.1387 16.1139H64.6703L64.6703 19.5823H68.1387V16.1139Z" fill="black"/>
<path d="M78.5439 16.1139H75.0755V19.5823H78.5439V16.1139Z" fill="black"/>
<path d="M99.3542 16.1139H95.8858V19.5823H99.3542V16.1139Z" fill="black"/>
<path d="M16.1129 19.5823H12.6445V23.0507H16.1129V19.5823Z" fill="black"/>
<path d="M23.0497 19.5823H19.5813V23.0507H23.0497V19.5823Z" fill="black"/>
<path d="M26.5181 19.5823H23.0497V23.0507H26.5181V19.5823Z" fill="black"/>
<path d="M29.9865 19.5823H26.5181V23.0507H29.9865V19.5823Z" fill="black"/>
<path d="M36.9232 19.5823H33.4549V23.0507H36.9232V19.5823Z" fill="black"/>
<path d="M43.86 19.5823H40.3916V23.0507H43.86V19.5823Z" fill="black"/>
<path d="M50.7968 19.5823H47.3284V23.0507H50.7968V19.5823Z" fill="black"/>
<path d="M57.7336 19.5823H54.2652V23.0507H57.7336V19.5823Z" fill="black"/>
<path d="M61.2019 19.5823H57.7336V23.0507H61.2019V19.5823Z" fill="black"/>
<path d="M71.6071 19.5823H68.1387V23.0507H71.6071V19.5823Z" fill="black"/>
<path d="M78.5439 19.5823H75.0755V23.0507H78.5439V19.5823Z" fill="black"/>
<path d="M85.4807 19.5823H82.0123V23.0507H85.4807V19.5823Z" fill="black"/>
<path d="M88.9491 19.5823H85.4807V23.0507H88.9491V19.5823Z" fill="black"/>
<path d="M92.4174 19.5823H88.9491V23.0507H92.4174V19.5823Z" fill="black"/>
<path d="M99.3542 19.5823H95.8858V23.0507H99.3542V19.5823Z" fill="black"/>
<path d="M16.1129 23.0507H12.6445V26.5191H16.1129V23.0507Z" fill="black"/>
<path d="M23.0497 23.0507H19.5813V26.5191H23.0497V23.0507Z" fill="black"/>
<path d="M26.5181 23.0507H23.0497V26.5191H26.5181V23.0507Z" fill="black"/>
<path d="M29.9865 23.0507H26.5181V26.5191H29.9865V23.0507Z" fill="black"/>
<path d="M36.9232 23.0507H33.4549V26.5191H36.9232V23.0507Z" fill="black"/>
<path d="M47.3284 23.0507H43.86V26.5191H47.3284V23.0507Z" fill="black"/>
<path d="M54.2652 23.0507H50.7968V26.5191H54.2652V23.0507Z" fill="black"/>
<path d="M57.7336 23.0507H54.2652V26.5191H57.7336V23.0507Z" fill="black"/>
<path d="M61.2019 23.0507H57.7336V26.5191H61.2019V23.0507Z" fill="black"/>
<path d="M64.6703 23.0507H61.2019V26.5191H64.6703V23.0507Z" fill="black"/>
<path d="M68.1387 23.0507H64.6703V26.5191H68.1387V23.0507Z" fill="black"/>
<path d="M78.5439 23.0507H75.0755V26.5191H78.5439V23.0507Z" fill="black"/>
<path d="M85.4807 23.0507H82.0123V26.5191H85.4807V23.0507Z" fill="black"/>
<path d="M88.9491 23.0507H85.4807V26.5191H88.9491V23.0507Z" fill="black"/>
<path d="M92.4174 23.0507H88.9491V26.5191H92.4174V23.0507Z" fill="black"/>
<path d="M99.3542 23.0507H95.8858V26.5191H99.3542V23.0507Z" fill="black"/>
<path d="M16.1129 26.5191H12.6445V29.9874H16.1129V26.5191Z" fill="black"/>
<path d="M23.0497 26.5191H19.5813V29.9874H23.0497V26.5191Z" fill="black"/>
<path d="M26.5181 26.5191H23.0497V29.9874H26.5181V26.5191Z" fill="black"/>
<path d="M29.9865 26.5191H26.5181V29.9874H29.9865V26.5191Z" fill="black"/>
<path d="M36.9232 26.5191H33.4549V29.9874H36.9232V26.5191Z" fill="black"/>
<path d="M43.86 26.5191H40.3916V29.9874H43.86V26.5191Z" fill="black"/>
<path d="M50.7968 26.5191H47.3284V29.9874H50.7968V26.5191Z" fill="black"/>
<path d="M64.6703 26.5191H61.2019V29.9874H64.6703V26.5191Z" fill="black"/>
<path d="M68.1387 26.5191H64.6703V29.9874H68.1387V26.5191Z" fill="black"/>
<path d="M78.5439 26.5191H75.0755V29.9874H78.5439V26.5191Z" fill="black"/>
<path d="M85.4807 26.5191H82.0123V29.9874H85.4807V26.5191Z" fill="black"/>
<path d="M88.9491 26.5191H85.4807V29.9874H88.9491V26.5191Z" fill="black"/>
<path d="M92.4174 26.5191H88.9491V29.9874H92.4174V26.5191Z" fill="black"/>
<path d="M99.3542 26.5191H95.8858V29.9874H99.3542V26.5191Z" fill="black"/>
<path d="M16.1129 29.9874H12.6445V33.4558H16.1129V29.9874Z" fill="black"/>
<path d="M36.9232 29.9874H33.4549V33.4558H36.9232V29.9874Z" fill="black"/>
<path d="M47.3284 29.9874H43.86V33.4558H47.3284V29.9874Z" fill="black"/>
<path d="M50.7968 29.9874H47.3284V33.4558H50.7968V29.9874Z" fill="black"/>
<path d="M54.2652 29.9874H50.7968V33.4558H54.2652V29.9874Z" fill="black"/>
<path d="M61.2019 29.9874H57.7336V33.4558H61.2019V29.9874Z" fill="black"/>
<path d="M64.6703 29.9874H61.2019V33.4558H64.6703V29.9874Z" fill="black"/>
<path d="M78.5439 29.9874H75.0755V33.4558H78.5439V29.9874Z" fill="black"/>
<path d="M99.3542 29.9874H95.8858V33.4558H99.3542V29.9874Z" fill="black"/>
<path d="M16.1129 33.4558H12.6445V36.9242H16.1129V33.4558Z" fill="black"/>
<path d="M19.5813 33.4558L16.1129 33.4558V36.9242H19.5813V33.4558Z" fill="black"/>
<path d="M23.0497 33.4558H19.5813V36.9242H23.0497V33.4558Z" fill="black"/>
<path d="M26.5181 33.4558H23.0497V36.9242H26.5181V33.4558Z" fill="black"/>
<path d="M29.9865 33.4558H26.5181V36.9242H29.9865V33.4558Z" fill="black"/>
<path d="M33.4549 33.4558L29.9865 33.4558V36.9242H33.4549L33.4549 33.4558Z" fill="black"/>
<path d="M36.9232 33.4558H33.4549L33.4549 36.9242H36.9232V33.4558Z" fill="black"/>
<path d="M43.86 33.4558L40.3916 33.4558V36.9242H43.86V33.4558Z" fill="black"/>
<path d="M50.7968 33.4558H47.3284V36.9242H50.7968V33.4558Z" fill="black"/>
<path d="M57.7336 33.4558H54.2652V36.9242H57.7336V33.4558Z" fill="black"/>
<path d="M64.6703 33.4558H61.2019V36.9242H64.6703V33.4558Z" fill="black"/>
<path d="M71.6071 33.4558H68.1387V36.9242H71.6071V33.4558Z" fill="black"/>
<path d="M78.5439 33.4558H75.0755V36.9242H78.5439V33.4558Z" fill="black"/>
<path d="M82.0123 33.4558L78.5439 33.4558V36.9242H82.0123V33.4558Z" fill="black"/>
<path d="M85.4807 33.4558H82.0123V36.9242H85.4807V33.4558Z" fill="black"/>
<path d="M88.9491 33.4558H85.4807V36.9242H88.9491V33.4558Z" fill="black"/>
<path d="M92.4174 33.4558H88.9491V36.9242H92.4174V33.4558Z" fill="black"/>
<path d="M95.8858 33.4558L92.4174 33.4558V36.9242H95.8858V33.4558Z" fill="black"/>
<path d="M99.3542 33.4558H95.8858V36.9242H99.3542V33.4558Z" fill="black"/>
<path d="M47.3284 36.9242H43.86V40.3926H47.3284V36.9242Z" fill="black"/>
<path d="M50.7968 36.9242H47.3284V40.3926H50.7968V36.9242Z" fill="black"/>
<path d="M54.2652 36.9242H50.7968V40.3926H54.2652V36.9242Z" fill="black"/>
<path d="M64.6703 36.9242H61.2019V40.3926H64.6703V36.9242Z" fill="black"/>
<path d="M71.6071 36.9242H68.1387V40.3926H71.6071V36.9242Z" fill="black"/>
<path d="M19.5813 40.3926H16.1129V43.861H19.5813V40.3926Z" fill="black"/>
<path d="M29.9865 40.3926H26.5181V43.861H29.9865V40.3926Z" fill="black"/>
<path d="M36.9232 40.3926H33.4549V43.861H36.9232V40.3926Z" fill="black"/>
<path d="M47.3284 40.3926H43.86V43.861H47.3284V40.3926Z" fill="black"/>
<path d="M57.7336 40.3926H54.2652V43.861H57.7336V40.3926Z" fill="black"/>
<path d="M61.2019 40.3926H57.7336V43.861H61.2019V40.3926Z" fill="black"/>
<path d="M64.6703 40.3926H61.2019V43.861H64.6703V40.3926Z" fill="black"/>
<path d="M68.1387 40.3926H64.6703V43.861H68.1387V40.3926Z" fill="black"/>
<path d="M75.0755 40.3926H71.6071V43.861H75.0755V40.3926Z" fill="black"/>
<path d="M85.4807 40.3926H82.0123V43.861H85.4807V40.3926Z" fill="black"/>
<path d="M92.4174 40.3926H88.9491V43.861H92.4174V40.3926Z" fill="black"/>
<path d="M99.3542 40.3926H95.8858V43.861H99.3542V40.3926Z" fill="black"/>
<path d="M23.0497 43.861H19.5813V47.3294H23.0497V43.861Z" fill="black"/>
<path d="M26.5181 43.861H23.0497V47.3294H26.5181V43.861Z" fill="black"/>
<path d="M33.4549 43.861H29.9865V47.3294H33.4549L33.4549 43.861Z" fill="black"/>
<path d="M43.86 43.861H40.3916V47.3294H43.86V43.861Z" fill="black"/>
<path d="M57.7336 43.861H54.2652V47.3294H57.7336V43.861Z" fill="black"/>
<path d="M61.2019 43.861H57.7336V47.3294H61.2019V43.861Z" fill="black"/>
<path d="M71.6071 43.861H68.1387V47.3294H71.6071V43.861Z" fill="black"/>
<path d="M78.5439 43.861H75.0755V47.3294H78.5439V43.861Z" fill="black"/>
<path d="M85.4807 43.861H82.0123V47.3294H85.4807V43.861Z" fill="black"/>
<path d="M95.8858 43.861H92.4174V47.3294H95.8858V43.861Z" fill="black"/>
<path d="M99.3542 43.861H95.8858V47.3294H99.3542V43.861Z" fill="black"/>
<path d="M26.5181 47.3294H23.0497V50.7978H26.5181V47.3294Z" fill="black"/>
<path d="M29.9865 47.3294H26.5181V50.7978H29.9865V47.3294Z" fill="black"/>
<path d="M33.4549 47.3294H29.9865V50.7978H33.4549V47.3294Z" fill="black"/>
<path d="M36.9232 47.3294H33.4549V50.7978H36.9232V47.3294Z" fill="black"/>
<path d="M40.3916 47.3294H36.9232V50.7978H40.3916V47.3294Z" fill="black"/>
<path d="M47.3284 47.3294H43.86V50.7978H47.3284V47.3294Z" fill="black"/>
<path d="M64.6703 47.3294H61.2019V50.7978H64.6703V47.3294Z" fill="black"/>
<path d="M78.5439 47.3294H75.0755V50.7978H78.5439V47.3294Z" fill="black"/>
<path d="M88.9491 47.3294H85.4807V50.7978H88.9491V47.3294Z" fill="black"/>
<path d="M95.8858 47.3294H92.4174V50.7978H95.8858V47.3294Z" fill="black"/>
<path d="M99.3542 47.3294H95.8858V50.7978H99.3542V47.3294Z" fill="black"/>
<path d="M16.1129 50.7978H12.6445V54.2661H16.1129V50.7978Z" fill="black"/>
<path d="M19.5813 50.7978H16.1129V54.2661H19.5813V50.7978Z" fill="black"/>
<path d="M23.0497 50.7978H19.5813V54.2661H23.0497V50.7978Z" fill="black"/>
<path d="M26.5181 50.7978H23.0497V54.2661H26.5181V50.7978Z" fill="black"/>
<path d="M40.3916 50.7978H36.9232V54.2661H40.3916V50.7978Z" fill="black"/>
<path d="M43.86 50.7978H40.3916V54.2661H43.86V50.7978Z" fill="black"/>
<path d="M54.2652 50.7978H50.7968V54.2661H54.2652V50.7978Z" fill="black"/>
<path d="M61.2019 50.7978H57.7336V54.2661H61.2019V50.7978Z" fill="black"/>
<path d="M68.1387 50.7978H64.6703L64.6703 54.2661H68.1387V50.7978Z" fill="black"/>
<path d="M75.0755 50.7978H71.6071V54.2661H75.0755V50.7978Z" fill="black"/>
<path d="M78.5439 50.7978H75.0755V54.2661H78.5439V50.7978Z" fill="black"/>
<path d="M85.4807 50.7978H82.0123V54.2661H85.4807V50.7978Z" fill="black"/>
<path d="M88.9491 50.7978H85.4807V54.2661H88.9491V50.7978Z" fill="black"/>
<path d="M95.8858 50.7978H92.4174V54.2661H95.8858V50.7978Z" fill="black"/>
<path d="M19.5813 54.2661H16.1129V57.7345H19.5813V54.2661Z" fill="black"/>
<path d="M23.0497 54.2661H19.5813V57.7345H23.0497V54.2661Z" fill="black"/>
<path d="M33.4549 54.2661H29.9865V57.7345H33.4549V54.2661Z" fill="black"/>
<path d="M36.9232 54.2661H33.4549V57.7345H36.9232V54.2661Z" fill="black"/>
<path d="M43.86 54.2661H40.3916V57.7345H43.86V54.2661Z" fill="black"/>
<path d="M47.3284 54.2661H43.86V57.7345H47.3284V54.2661Z" fill="black"/>
<path d="M54.2652 54.2661H50.7968V57.7345H54.2652V54.2661Z" fill="black"/>
<path d="M71.6071 54.2661H68.1387V57.7345H71.6071V54.2661Z" fill="black"/>
<path d="M75.0755 54.2661H71.6071V57.7345H75.0755V54.2661Z" fill="black"/>
<path d="M78.5439 54.2661H75.0755V57.7345H78.5439V54.2661Z" fill="black"/>
<path d="M82.0123 54.2661H78.5439V57.7345H82.0123V54.2661Z" fill="black"/>
<path d="M99.3542 54.2661H95.8858V57.7345H99.3542V54.2661Z" fill="black"/>
<path d="M19.5813 57.7345H16.1129V61.2029H19.5813V57.7345Z" fill="black"/>
<path d="M40.3916 57.7345H36.9232V61.2029H40.3916V57.7345Z" fill="black"/>
<path d="M43.86 57.7345H40.3916V61.2029H43.86V57.7345Z" fill="black"/>
<path d="M50.7968 57.7345H47.3284V61.2029H50.7968V57.7345Z" fill="black"/>
<path d="M54.2652 57.7345H50.7968V61.2029H54.2652V57.7345Z" fill="black"/>
<path d="M64.6703 57.7345H61.2019V61.2029H64.6703V57.7345Z" fill="black"/>
<path d="M75.0755 57.7345H71.6071V61.2029H75.0755V57.7345Z" fill="black"/>
<path d="M82.0123 57.7345H78.5439V61.2029H82.0123V57.7345Z" fill="black"/>
<path d="M92.4174 57.7345H88.9491V61.2029H92.4174V57.7345Z" fill="black"/>
<path d="M16.1129 61.2029H12.6445V64.6713H16.1129V61.2029Z" fill="black"/>
<path d="M19.5813 61.2029H16.1129V64.6713H19.5813V61.2029Z" fill="black"/>
<path d="M26.5181 61.2029H23.0497V64.6713H26.5181V61.2029Z" fill="black"/>
<path d="M36.9232 61.2029H33.4549V64.6713H36.9232V61.2029Z" fill="black"/>
<path d="M40.3916 61.2029H36.9232V64.6713H40.3916V61.2029Z" fill="black"/>
<path d="M43.86 61.2029H40.3916V64.6713H43.86V61.2029Z" fill="black"/>
<path d="M54.2652 61.2029H50.7968V64.6713H54.2652V61.2029Z" fill="black"/>
<path d="M57.7336 61.2029H54.2652V64.6713H57.7336V61.2029Z" fill="black"/>
<path d="M78.5439 61.2029H75.0755V64.6713H78.5439V61.2029Z" fill="black"/>
<path d="M82.0123 61.2029H78.5439V64.6713H82.0123V61.2029Z" fill="black"/>
<path d="M85.4807 61.2029H82.0123V64.6713H85.4807V61.2029Z" fill="black"/>
<path d="M88.9491 61.2029H85.4807V64.6713H88.9491V61.2029Z" fill="black"/>
<path d="M16.1129 64.6713H12.6445V68.1397H16.1129V64.6713Z" fill="black"/>
<path d="M19.5813 64.6713H16.1129V68.1397H19.5813V64.6713Z" fill="black"/>
<path d="M23.0497 64.6713H19.5813V68.1397H23.0497V64.6713Z" fill="black"/>
<path d="M26.5181 64.6713H23.0497V68.1397H26.5181V64.6713Z" fill="black"/>
<path d="M29.9865 64.6713L26.5181 64.6713V68.1397H29.9865V64.6713Z" fill="black"/>
<path d="M33.4549 64.6713L29.9865 64.6713V68.1397H33.4549L33.4549 64.6713Z" fill="black"/>
<path d="M40.3916 64.6713H36.9232V68.1397H40.3916V64.6713Z" fill="black"/>
<path d="M54.2652 64.6713H50.7968V68.1397H54.2652V64.6713Z" fill="black"/>
<path d="M71.6071 64.6713H68.1387V68.1397H71.6071V64.6713Z" fill="black"/>
<path d="M75.0755 64.6713L71.6071 64.6713V68.1397H75.0755V64.6713Z" fill="black"/>
<path d="M78.5439 64.6713H75.0755V68.1397H78.5439V64.6713Z" fill="black"/>
<path d="M92.4174 64.6713L88.9491 64.6713V68.1397H92.4174V64.6713Z" fill="black"/>
<path d="M95.8858 64.6713H92.4174V68.1397H95.8858V64.6713Z" fill="black"/>
<path d="M99.3542 64.6713H95.8858V68.1397H99.3542V64.6713Z" fill="black"/>
<path d="M23.0497 68.1397H19.5813V71.6081H23.0497V68.1397Z" fill="black"/>
<path d="M26.5181 68.1397H23.0497V71.6081H26.5181V68.1397Z" fill="black"/>
<path d="M33.4549 68.1397H29.9865V71.6081H33.4549V68.1397Z" fill="black"/>
<path d="M36.9232 68.1397H33.4549V71.6081H36.9232V68.1397Z" fill="black"/>
<path d="M40.3916 68.1397H36.9232V71.6081H40.3916V68.1397Z" fill="black"/>
<path d="M47.3284 68.1397H43.86V71.6081H47.3284V68.1397Z" fill="black"/>
<path d="M50.7968 68.1397H47.3284V71.6081H50.7968V68.1397Z" fill="black"/>
<path d="M54.2652 68.1397H50.7968V71.6081H54.2652V68.1397Z" fill="black"/>
<path d="M61.2019 68.1397H57.7336V71.6081H61.2019V68.1397Z" fill="black"/>
<path d="M64.6703 68.1397H61.2019V71.6081H64.6703V68.1397Z" fill="black"/>
<path d="M68.1387 68.1397H64.6703V71.6081H68.1387V68.1397Z" fill="black"/>
<path d="M71.6071 68.1397H68.1387V71.6081H71.6071V68.1397Z" fill="black"/>
<path d="M75.0755 68.1397H71.6071V71.6081H75.0755V68.1397Z" fill="black"/>
<path d="M78.5439 68.1397H75.0755V71.6081H78.5439V68.1397Z" fill="black"/>
<path d="M82.0123 68.1397H78.5439V71.6081H82.0123V68.1397Z" fill="black"/>
<path d="M85.4807 68.1397H82.0123V71.6081H85.4807V68.1397Z" fill="black"/>
<path d="M92.4174 68.1397H88.9491V71.6081H92.4174V68.1397Z" fill="black"/>
<path d="M95.8858 68.1397H92.4174V71.6081H95.8858V68.1397Z" fill="black"/>
<path d="M99.3542 68.1397H95.8858V71.6081H99.3542V68.1397Z" fill="black"/>
<path d="M47.3284 71.6081H43.86V75.0765H47.3284V71.6081Z" fill="black"/>
<path d="M61.2019 71.6081H57.7336V75.0765H61.2019V71.6081Z" fill="black"/>
<path d="M64.6703 71.6081H61.2019V75.0765H64.6703V71.6081Z" fill="black"/>
<path d="M68.1387 71.6081H64.6703V75.0765H68.1387V71.6081Z" fill="black"/>
<path d="M71.6071 71.6081H68.1387V75.0765H71.6071V71.6081Z" fill="black"/>
<path d="M85.4807 71.6081H82.0123V75.0765H85.4807V71.6081Z" fill="black"/>
<path d="M92.4174 71.6081H88.9491V75.0765H92.4174V71.6081Z" fill="black"/>
<path d="M16.1129 75.0765H12.6445V78.5449H16.1129V75.0765Z" fill="black"/>
<path d="M19.5813 75.0765H16.1129V78.5449H19.5813V75.0765Z" fill="black"/>
<path d="M23.0497 75.0765H19.5813V78.5449H23.0497V75.0765Z" fill="black"/>
<path d="M26.5181 75.0765H23.0497V78.5449H26.5181V75.0765Z" fill="black"/>
<path d="M29.9865 75.0765H26.5181V78.5449H29.9865V75.0765Z" fill="black"/>
<path d="M33.4549 75.0765H29.9865V78.5449H33.4549V75.0765Z" fill="black"/>
<path d="M36.9232 75.0765H33.4549V78.5449H36.9232V75.0765Z" fill="black"/>
<path d="M47.3284 75.0765H43.86V78.5449H47.3284V75.0765Z" fill="black"/>
<path d="M50.7968 75.0765H47.3284V78.5449H50.7968V75.0765Z" fill="black"/>
<path d="M57.7336 75.0765H54.2652V78.5449H57.7336V75.0765Z" fill="black"/>
<path d="M61.2019 75.0765H57.7336V78.5449H61.2019V75.0765Z" fill="black"/>
<path d="M68.1387 75.0765H64.6703L64.6703 78.5449H68.1387V75.0765Z" fill="black"/>
<path d="M71.6071 75.0765H68.1387V78.5449H71.6071V75.0765Z" fill="black"/>
<path d="M78.5439 75.0765H75.0755V78.5449H78.5439V75.0765Z" fill="black"/>
<path d="M85.4807 75.0765H82.0123V78.5449H85.4807V75.0765Z" fill="black"/>
<path d="M16.1129 78.5449H12.6445V82.0132H16.1129V78.5449Z" fill="black"/>
<path d="M36.9232 78.5449H33.4549L33.4549 82.0132H36.9232V78.5449Z" fill="black"/>
<path d="M54.2652 78.5449H50.7968V82.0132H54.2652V78.5449Z" fill="black"/>
<path d="M57.7336 78.5449H54.2652V82.0132H57.7336V78.5449Z" fill="black"/>
<path d="M61.2019 78.5449H57.7336V82.0132H61.2019V78.5449Z" fill="black"/>
<path d="M64.6703 78.5449H61.2019V82.0132H64.6703L64.6703 78.5449Z" fill="black"/>
<path d="M71.6071 78.5449H68.1387V82.0132H71.6071V78.5449Z" fill="black"/>
<path d="M85.4807 78.5449H82.0123V82.0132H85.4807V78.5449Z" fill="black"/>
<path d="M88.9491 78.5449H85.4807V82.0132H88.9491V78.5449Z" fill="black"/>
<path d="M99.3542 78.5449H95.8858V82.0132H99.3542V78.5449Z" fill="black"/>
<path d="M16.1129 82.0132H12.6445V85.4816H16.1129V82.0132Z" fill="black"/>
<path d="M23.0497 82.0132H19.5813V85.4816H23.0497V82.0132Z" fill="black"/>
<path d="M26.5181 82.0132H23.0497V85.4816H26.5181V82.0132Z" fill="black"/>
<path d="M29.9865 82.0132H26.5181V85.4816H29.9865V82.0132Z" fill="black"/>
<path d="M36.9232 82.0132H33.4549V85.4816H36.9232V82.0132Z" fill="black"/>
<path d="M43.86 82.0132H40.3916V85.4816H43.86V82.0132Z" fill="black"/>
<path d="M68.1387 82.0132H64.6703L64.6703 85.4816H68.1387V82.0132Z" fill="black"/>
<path d="M71.6071 82.0132H68.1387V85.4816H71.6071V82.0132Z" fill="black"/>
<path d="M75.0755 82.0132H71.6071V85.4816H75.0755V82.0132Z" fill="black"/>
<path d="M78.5439 82.0132H75.0755V85.4816H78.5439V82.0132Z" fill="black"/>
<path d="M82.0123 82.0132H78.5439V85.4816H82.0123V82.0132Z" fill="black"/>
<path d="M85.4807 82.0132H82.0123V85.4816H85.4807V82.0132Z" fill="black"/>
<path d="M88.9491 82.0132H85.4807V85.4816H88.9491V82.0132Z" fill="black"/>
<path d="M92.4174 82.0132H88.9491V85.4816H92.4174V82.0132Z" fill="black"/>
<path d="M95.8858 82.0132H92.4174V85.4816H95.8858V82.0132Z" fill="black"/>
<path d="M16.1129 85.4816H12.6445V88.95H16.1129V85.4816Z" fill="black"/>
<path d="M23.0497 85.4816H19.5813V88.95H23.0497V85.4816Z" fill="black"/>
<path d="M26.5181 85.4816H23.0497V88.95H26.5181V85.4816Z" fill="black"/>
<path d="M29.9865 85.4816H26.5181V88.95H29.9865V85.4816Z" fill="black"/>
<path d="M36.9232 85.4816H33.4549V88.95H36.9232V85.4816Z" fill="black"/>
<path d="M57.7336 85.4816H54.2652V88.95H57.7336V85.4816Z" fill="black"/>
<path d="M61.2019 85.4816H57.7336V88.95H61.2019V85.4816Z" fill="black"/>
<path d="M71.6071 85.4816H68.1387V88.95H71.6071V85.4816Z" fill="black"/>
<path d="M75.0755 85.4816H71.6071V88.95H75.0755V85.4816Z" fill="black"/>
<path d="M78.5439 85.4816H75.0755V88.95H78.5439V85.4816Z" fill="black"/>
<path d="M82.0123 85.4816H78.5439V88.95H82.0123V85.4816Z" fill="black"/>
<path d="M85.4807 85.4816H82.0123V88.95H85.4807V85.4816Z" fill="black"/>
<path d="M88.9491 85.4816H85.4807V88.95H88.9491V85.4816Z" fill="black"/>
<path d="M95.8858 85.4816H92.4174V88.95H95.8858V85.4816Z" fill="black"/>
<path d="M16.1129 88.95H12.6445V92.4184H16.1129V88.95Z" fill="black"/>
<path d="M23.0497 88.95H19.5813V92.4184H23.0497V88.95Z" fill="black"/>
<path d="M26.5181 88.95H23.0497V92.4184H26.5181V88.95Z" fill="black"/>
<path d="M29.9865 88.95H26.5181V92.4184H29.9865V88.95Z" fill="black"/>
<path d="M36.9232 88.95H33.4549V92.4184H36.9232V88.95Z" fill="black"/>
<path d="M50.7968 88.95H47.3284V92.4184H50.7968V88.95Z" fill="black"/>
<path d="M64.6703 88.95H61.2019V92.4184H64.6703V88.95Z" fill="black"/>
<path d="M88.9491 88.95H85.4807V92.4184H88.9491V88.95Z" fill="black"/>
<path d="M16.1129 92.4184H12.6445V95.8868H16.1129V92.4184Z" fill="black"/>
<path d="M36.9232 92.4184H33.4549V95.8868H36.9232V92.4184Z" fill="black"/>
<path d="M43.86 92.4184H40.3916V95.8868H43.86V92.4184Z" fill="black"/>
<path d="M50.7968 92.4184H47.3284V95.8868H50.7968V92.4184Z" fill="black"/>
<path d="M54.2652 92.4184H50.7968V95.8868H54.2652V92.4184Z" fill="black"/>
<path d="M57.7336 92.4184H54.2652V95.8868H57.7336V92.4184Z" fill="black"/>
<path d="M64.6703 92.4184H61.2019V95.8868H64.6703V92.4184Z" fill="black"/>
<path d="M68.1387 92.4184H64.6703V95.8868H68.1387V92.4184Z" fill="black"/>
<path d="M75.0755 92.4184H71.6071V95.8868H75.0755V92.4184Z" fill="black"/>
<path d="M78.5439 92.4184H75.0755V95.8868H78.5439V92.4184Z" fill="black"/>
<path d="M82.0123 92.4184H78.5439V95.8868H82.0123V92.4184Z" fill="black"/>
<path d="M85.4807 92.4184H82.0123V95.8868H85.4807V92.4184Z" fill="black"/>
<path d="M95.8858 92.4184H92.4174V95.8868H95.8858V92.4184Z" fill="black"/>
<path d="M99.3542 92.4184H95.8858V95.8868H99.3542V92.4184Z" fill="black"/>
<path d="M16.1129 95.8868H12.6445V99.3552H16.1129V95.8868Z" fill="black"/>
<path d="M19.5813 95.8868H16.1129V99.3552H19.5813V95.8868Z" fill="black"/>
<path d="M23.0497 95.8868H19.5813V99.3552H23.0497V95.8868Z" fill="black"/>
<path d="M26.5181 95.8868H23.0497V99.3552H26.5181V95.8868Z" fill="black"/>
<path d="M29.9865 95.8868H26.5181V99.3552H29.9865V95.8868Z" fill="black"/>
<path d="M33.4549 95.8868H29.9865V99.3552H33.4549L33.4549 95.8868Z" fill="black"/>
<path d="M36.9232 95.8868H33.4549L33.4549 99.3552H36.9232V95.8868Z" fill="black"/>
<path d="M47.3284 95.8868H43.86V99.3552H47.3284V95.8868Z" fill="black"/>
<path d="M50.7968 95.8868H47.3284V99.3552H50.7968V95.8868Z" fill="black"/>
<path d="M57.7336 95.8868H54.2652V99.3552H57.7336V95.8868Z" fill="black"/>
<path d="M61.2019 95.8868H57.7336V99.3552H61.2019V95.8868Z" fill="black"/>
<path d="M64.6703 95.8868H61.2019V99.3552H64.6703V95.8868Z" fill="black"/>
<path d="M75.0755 95.8868H71.6071V99.3552H75.0755V95.8868Z" fill="black"/>
<path d="M78.5439 95.8868H75.0755V99.3552H78.5439V95.8868Z" fill="black"/>
<path d="M85.4807 95.8868H82.0123V99.3552H85.4807V95.8868Z" fill="black"/>
<path d="M92.4174 95.8868H88.9491V99.3552H92.4174V95.8868Z" fill="black"/>
<path d="M99.3542 95.8868H95.8858V99.3552H99.3542V95.8868Z" fill="black"/>
</g>
</g>
</g>
<defs>
<clipPath id="clip0_699_212860">
<rect width="112" height="112" rx="8" fill="white"/>
</clipPath>
</defs>
</svg>
