<svg xmlns="http://www.w3.org/2000/svg" width="20" height="20" viewBox="0 0 20 20" fill="none">
    <g clip-path="url(#clip0_187_176167)">
        <path d="M9.12512 0.617188C8.55401 0.617188 8.00628 0.844069 7.60243 1.24792L1.25884 7.59163C1.01857 7.83193 0.898436 8.1468 0.898438 8.46172C0.898439 8.77665 1.01858 9.09157 1.25884 9.33182L5.416 13.489V6.12932C5.416 5.58007 5.85775 5.13482 6.40701 5.13482C8.72744 5.13482 14.3757 5.13482 15.1461 5.13482L19.6637 0.617251L9.12512 0.617188Z" fill="white"/>
        <path d="M5.416 14.8649H14.1516C14.7009 14.8649 15.1461 14.4197 15.1461 13.8704V6.51074L19.3033 10.6679C19.5436 10.9082 19.6637 11.2231 19.6637 11.538C19.6637 11.8529 19.5436 12.1678 19.3033 12.4081L12.9597 18.7519C12.5558 19.1557 12.0081 19.3826 11.437 19.3826L0.898438 19.3825L5.416 14.8649Z" fill="#F7F6FF"/>
    </g>
    <defs>
        <clipPath id="clip0_187_176167">
            <rect width="19" height="19" fill="white" transform="translate(0.898438 0.5)"/>
        </clipPath>
    </defs>
</svg>
