<svg width="122" height="24" viewBox="0 0 122 24" fill="none" xmlns="http://www.w3.org/2000/svg">
    <g filter="url(#filter0_d_803_306805)">
        <mask id="path-1-outside-1_803_306805" maskUnits="userSpaceOnUse" x="4" y="4" width="114" height="16" fill="black">
            <rect fill="white" x="4" y="4" width="114" height="16" />
            <path
                    d="M13.5319 9.44487C13.5718 9.0057 13.4654 8.66191 13.2125 8.4135C12.9597 8.16065 12.5338 8.03422 11.935 8.03422C11.5535 8.03422 11.2341 8.07858 10.9768 8.1673C10.7239 8.25602 10.5265 8.37801 10.3846 8.53327C10.2471 8.68853 10.1606 8.86819 10.1251 9.07224C10.0852 9.23194 10.0874 9.37833 10.1317 9.51141C10.1805 9.64005 10.2715 9.7576 10.4045 9.86407C10.5421 9.97053 10.7217 10.0659 10.9435 10.1502C11.1698 10.2345 11.4381 10.3099 11.7487 10.3764L12.8133 10.616C13.5408 10.7757 14.1507 10.9864 14.6431 11.2481C15.14 11.5054 15.5303 11.8115 15.8142 12.1664C16.0981 12.5212 16.2845 12.9183 16.3732 13.3574C16.4663 13.7966 16.4685 14.2757 16.3798 14.7947C16.229 15.6907 15.8808 16.4493 15.3352 17.0703C14.7895 17.6914 14.0775 18.1638 13.1992 18.4876C12.3209 18.8115 11.3051 18.9734 10.1517 18.9734C8.97172 18.9734 7.96918 18.7982 7.14409 18.4477C6.32343 18.0928 5.72901 17.5516 5.36082 16.8241C4.99707 16.0922 4.90835 15.1584 5.09466 14.0228H8.60797C8.55473 14.4398 8.59909 14.7902 8.74105 15.0741C8.883 15.358 9.11145 15.5732 9.42641 15.7196C9.74136 15.866 10.1339 15.9392 10.6042 15.9392C11.0034 15.9392 11.345 15.8904 11.6289 15.7928C11.9128 15.6952 12.1368 15.5599 12.3009 15.3869C12.4651 15.2139 12.5649 15.0165 12.6004 14.7947C12.6358 14.5906 12.6004 14.4087 12.4939 14.249C12.3874 14.0894 12.1945 13.9452 11.915 13.8165C11.6355 13.6879 11.2518 13.5703 10.7639 13.4639L9.45968 13.1711C8.30188 12.9049 7.42799 12.4658 6.838 11.8536C6.24802 11.2414 6.03953 10.403 6.21253 9.3384C6.35448 8.46895 6.71158 7.71039 7.28382 7.06274C7.8605 6.41065 8.59244 5.90494 9.47964 5.54563C10.3713 5.18188 11.3583 5 12.4407 5C13.5408 5 14.4613 5.18409 15.2021 5.55228C15.9473 5.92047 16.4819 6.43726 16.8057 7.10266C17.1339 7.76806 17.2227 8.5488 17.0718 9.44487H13.5319Z" />
            <path
                    d="M18.5058 8.1673L19.0115 5.18631H30.8556L30.3499 8.1673H26.251L24.4944 18.8137H20.848L22.6046 8.1673H18.5058Z" />
            <path
                    d="M31.8054 18.8137H27.8131L34.5735 5.18631H39.6305L41.8663 18.8137H37.8739L36.5431 8.93916H36.4366L31.8054 18.8137ZM31.9651 13.4373H39.4708L38.9918 16.2053H31.4861L31.9651 13.4373Z" />
            <path
                    d="M42.8428 8.1673L43.3485 5.18631H55.1926L54.6869 8.1673H50.588L48.8314 18.8137H45.185L46.9416 8.1673H42.8428Z" />
            <path d="M60.2845 5.18631L58.0222 18.8137H54.3226L56.5849 5.18631H60.2845Z" />
            <path
                    d="M68.6652 9.44487C68.7052 9.0057 68.5987 8.66191 68.3458 8.4135C68.093 8.16065 67.6671 8.03422 67.0683 8.03422C66.6868 8.03422 66.3674 8.07858 66.1101 8.1673C65.8573 8.25602 65.6599 8.37801 65.5179 8.53327C65.3804 8.68853 65.2939 8.86819 65.2584 9.07224C65.2185 9.23194 65.2207 9.37833 65.265 9.51141C65.3138 9.64005 65.4048 9.7576 65.5379 9.86407C65.6754 9.97053 65.855 10.0659 66.0768 10.1502C66.3031 10.2345 66.5714 10.3099 66.882 10.3764L67.9466 10.616C68.6741 10.7757 69.2841 10.9864 69.7765 11.2481C70.2733 11.5054 70.6637 11.8115 70.9476 12.1664C71.2315 12.5212 71.4178 12.9183 71.5065 13.3574C71.5996 13.7966 71.6019 14.2757 71.5131 14.7947C71.3623 15.6907 71.0141 16.4493 70.4685 17.0703C69.9228 17.6914 69.2109 18.1638 68.3325 18.4876C67.4542 18.8115 66.4384 18.9734 65.285 18.9734C64.105 18.9734 63.1025 18.7982 62.2774 18.4477C61.4567 18.0928 60.8623 17.5516 60.4941 16.8241C60.1304 16.0922 60.0417 15.1584 60.228 14.0228H63.7413C63.688 14.4398 63.7324 14.7902 63.8744 15.0741C64.0163 15.358 64.2448 15.5732 64.5597 15.7196C64.8747 15.866 65.2673 15.9392 65.7375 15.9392C66.1367 15.9392 66.4783 15.8904 66.7622 15.7928C67.0461 15.6952 67.2701 15.5599 67.4342 15.3869C67.5984 15.2139 67.6982 15.0165 67.7337 14.7947C67.7692 14.5906 67.7337 14.4087 67.6272 14.249C67.5208 14.0894 67.3278 13.9452 67.0483 13.8165C66.7688 13.6879 66.3851 13.5703 65.8972 13.4639L64.593 13.1711C63.4352 12.9049 62.5613 12.4658 61.9713 11.8536C61.3813 11.2414 61.1728 10.403 61.3458 9.3384C61.4878 8.46895 61.8449 7.71039 62.4171 7.06274C62.9938 6.41065 63.7258 5.90494 64.613 5.54563C65.5046 5.18188 66.4916 5 67.574 5C68.6741 5 69.5946 5.18409 70.3354 5.55228C71.0806 5.92047 71.6152 6.43726 71.939 7.10266C72.2673 7.76806 72.356 8.5488 72.2052 9.44487H68.6652Z" />
            <path
                    d="M73.6391 8.1673L74.1448 5.18631H85.9889L85.4832 8.1673H81.3843L79.6277 18.8137H75.9813L77.738 8.1673H73.6391Z" />
            <path d="M91.0809 5.18631L88.8185 18.8137H85.1189L87.3813 5.18631H91.0809Z" />
            <path
                    d="M104.692 10.2966H100.992C101.019 9.98162 101.001 9.69772 100.939 9.44487C100.877 9.19202 100.77 8.97465 100.619 8.79278C100.469 8.60646 100.271 8.46451 100.027 8.36692C99.7832 8.26933 99.4926 8.22053 99.1555 8.22053C98.5078 8.22053 97.9289 8.38245 97.4188 8.70627C96.9087 9.02567 96.485 9.48479 96.1479 10.0837C95.8108 10.6781 95.5712 11.3878 95.4293 12.2129C95.3051 13.0114 95.3006 13.6746 95.4159 14.2025C95.5357 14.7304 95.7686 15.1252 96.1146 15.3869C96.4651 15.6486 96.9198 15.7795 97.4787 15.7795C97.8513 15.7795 98.1929 15.7351 98.5034 15.6464C98.8184 15.5577 99.0978 15.4312 99.3418 15.2671C99.5902 15.0985 99.8009 14.8989 99.9739 14.6683C100.151 14.4331 100.287 14.1736 100.38 13.8897H104.106C103.964 14.4664 103.711 15.0564 103.348 15.6597C102.984 16.2586 102.514 16.8108 101.937 17.3165C101.36 17.8178 100.681 18.2237 99.9007 18.5342C99.12 18.8447 98.2417 19 97.2658 19C95.9882 19 94.8858 18.7205 93.9587 18.1616C93.036 17.6027 92.3662 16.7864 91.9492 15.7129C91.5367 14.6394 91.4546 13.3308 91.703 11.7871C91.9514 10.2966 92.4416 9.04785 93.1736 8.04087C93.9055 7.0339 94.7949 6.27535 95.8418 5.76521C96.8887 5.25507 98.0021 5 99.1821 5C100.074 5 100.872 5.11755 101.578 5.35266C102.287 5.58777 102.884 5.93156 103.367 6.38403C103.855 6.83207 104.215 7.38435 104.445 8.04087C104.676 8.6974 104.758 9.4493 104.692 10.2966Z" />
            <path
                    d="M113.862 9.44487C113.902 9.0057 113.796 8.66191 113.543 8.4135C113.29 8.16065 112.864 8.03422 112.266 8.03422C111.884 8.03422 111.565 8.07858 111.307 8.1673C111.054 8.25602 110.857 8.37801 110.715 8.53327C110.578 8.68853 110.491 8.86819 110.456 9.07224C110.416 9.23194 110.418 9.37833 110.462 9.51141C110.511 9.64005 110.602 9.7576 110.735 9.86407C110.873 9.97053 111.052 10.0659 111.274 10.1502C111.5 10.2345 111.769 10.3099 112.079 10.3764L113.144 10.616C113.871 10.7757 114.481 10.9864 114.974 11.2481C115.471 11.5054 115.861 11.8115 116.145 12.1664C116.429 12.5212 116.615 12.9183 116.704 13.3574C116.797 13.7966 116.799 14.2757 116.71 14.7947C116.56 15.6907 116.211 16.4493 115.666 17.0703C115.12 17.6914 114.408 18.1638 113.53 18.4876C112.651 18.8115 111.636 18.9734 110.482 18.9734C109.302 18.9734 108.3 18.7982 107.475 18.4477C106.654 18.0928 106.06 17.5516 105.691 16.8241C105.328 16.0922 105.239 15.1584 105.425 14.0228H108.939C108.885 14.4398 108.93 14.7902 109.072 15.0741C109.214 15.358 109.442 15.5732 109.757 15.7196C110.072 15.866 110.465 15.9392 110.935 15.9392C111.334 15.9392 111.676 15.8904 111.959 15.7928C112.243 15.6952 112.467 15.5599 112.631 15.3869C112.796 15.2139 112.895 15.0165 112.931 14.7947C112.966 14.5906 112.931 14.4087 112.824 14.249C112.718 14.0894 112.525 13.9452 112.246 13.8165C111.966 13.6879 111.582 13.5703 111.094 13.4639L109.79 13.1711C108.632 12.9049 107.759 12.4658 107.169 11.8536C106.579 11.2414 106.37 10.403 106.543 9.3384C106.685 8.46895 107.042 7.71039 107.614 7.06274C108.191 6.41065 108.923 5.90494 109.81 5.54563C110.702 5.18188 111.689 5 112.771 5C113.871 5 114.792 5.18409 115.533 5.55228C116.278 5.92047 116.812 6.43726 117.136 7.10266C117.465 7.76806 117.553 8.5488 117.402 9.44487H113.862Z" />
        </mask>
        <path
                d="M13.5319 9.44487C13.5718 9.0057 13.4654 8.66191 13.2125 8.4135C12.9597 8.16065 12.5338 8.03422 11.935 8.03422C11.5535 8.03422 11.2341 8.07858 10.9768 8.1673C10.7239 8.25602 10.5265 8.37801 10.3846 8.53327C10.2471 8.68853 10.1606 8.86819 10.1251 9.07224C10.0852 9.23194 10.0874 9.37833 10.1317 9.51141C10.1805 9.64005 10.2715 9.7576 10.4045 9.86407C10.5421 9.97053 10.7217 10.0659 10.9435 10.1502C11.1698 10.2345 11.4381 10.3099 11.7487 10.3764L12.8133 10.616C13.5408 10.7757 14.1507 10.9864 14.6431 11.2481C15.14 11.5054 15.5303 11.8115 15.8142 12.1664C16.0981 12.5212 16.2845 12.9183 16.3732 13.3574C16.4663 13.7966 16.4685 14.2757 16.3798 14.7947C16.229 15.6907 15.8808 16.4493 15.3352 17.0703C14.7895 17.6914 14.0775 18.1638 13.1992 18.4876C12.3209 18.8115 11.3051 18.9734 10.1517 18.9734C8.97172 18.9734 7.96918 18.7982 7.14409 18.4477C6.32343 18.0928 5.72901 17.5516 5.36082 16.8241C4.99707 16.0922 4.90835 15.1584 5.09466 14.0228H8.60797C8.55473 14.4398 8.59909 14.7902 8.74105 15.0741C8.883 15.358 9.11145 15.5732 9.42641 15.7196C9.74136 15.866 10.1339 15.9392 10.6042 15.9392C11.0034 15.9392 11.345 15.8904 11.6289 15.7928C11.9128 15.6952 12.1368 15.5599 12.3009 15.3869C12.4651 15.2139 12.5649 15.0165 12.6004 14.7947C12.6358 14.5906 12.6004 14.4087 12.4939 14.249C12.3874 14.0894 12.1945 13.9452 11.915 13.8165C11.6355 13.6879 11.2518 13.5703 10.7639 13.4639L9.45968 13.1711C8.30188 12.9049 7.42799 12.4658 6.838 11.8536C6.24802 11.2414 6.03953 10.403 6.21253 9.3384C6.35448 8.46895 6.71158 7.71039 7.28382 7.06274C7.8605 6.41065 8.59244 5.90494 9.47964 5.54563C10.3713 5.18188 11.3583 5 12.4407 5C13.5408 5 14.4613 5.18409 15.2021 5.55228C15.9473 5.92047 16.4819 6.43726 16.8057 7.10266C17.1339 7.76806 17.2227 8.5488 17.0718 9.44487H13.5319Z"
                fill="white" />
        <path
                d="M18.5058 8.1673L19.0115 5.18631H30.8556L30.3499 8.1673H26.251L24.4944 18.8137H20.848L22.6046 8.1673H18.5058Z"
                fill="white" />
        <path
                d="M31.8054 18.8137H27.8131L34.5735 5.18631H39.6305L41.8663 18.8137H37.8739L36.5431 8.93916H36.4366L31.8054 18.8137ZM31.9651 13.4373H39.4708L38.9918 16.2053H31.4861L31.9651 13.4373Z"
                fill="white" />
        <path
                d="M42.8428 8.1673L43.3485 5.18631H55.1926L54.6869 8.1673H50.588L48.8314 18.8137H45.185L46.9416 8.1673H42.8428Z"
                fill="white" />
        <path d="M60.2845 5.18631L58.0222 18.8137H54.3226L56.5849 5.18631H60.2845Z" fill="white" />
        <path
                d="M68.6652 9.44487C68.7052 9.0057 68.5987 8.66191 68.3458 8.4135C68.093 8.16065 67.6671 8.03422 67.0683 8.03422C66.6868 8.03422 66.3674 8.07858 66.1101 8.1673C65.8573 8.25602 65.6599 8.37801 65.5179 8.53327C65.3804 8.68853 65.2939 8.86819 65.2584 9.07224C65.2185 9.23194 65.2207 9.37833 65.265 9.51141C65.3138 9.64005 65.4048 9.7576 65.5379 9.86407C65.6754 9.97053 65.855 10.0659 66.0768 10.1502C66.3031 10.2345 66.5714 10.3099 66.882 10.3764L67.9466 10.616C68.6741 10.7757 69.2841 10.9864 69.7765 11.2481C70.2733 11.5054 70.6637 11.8115 70.9476 12.1664C71.2315 12.5212 71.4178 12.9183 71.5065 13.3574C71.5996 13.7966 71.6019 14.2757 71.5131 14.7947C71.3623 15.6907 71.0141 16.4493 70.4685 17.0703C69.9228 17.6914 69.2109 18.1638 68.3325 18.4876C67.4542 18.8115 66.4384 18.9734 65.285 18.9734C64.105 18.9734 63.1025 18.7982 62.2774 18.4477C61.4567 18.0928 60.8623 17.5516 60.4941 16.8241C60.1304 16.0922 60.0417 15.1584 60.228 14.0228H63.7413C63.688 14.4398 63.7324 14.7902 63.8744 15.0741C64.0163 15.358 64.2448 15.5732 64.5597 15.7196C64.8747 15.866 65.2673 15.9392 65.7375 15.9392C66.1367 15.9392 66.4783 15.8904 66.7622 15.7928C67.0461 15.6952 67.2701 15.5599 67.4342 15.3869C67.5984 15.2139 67.6982 15.0165 67.7337 14.7947C67.7692 14.5906 67.7337 14.4087 67.6272 14.249C67.5208 14.0894 67.3278 13.9452 67.0483 13.8165C66.7688 13.6879 66.3851 13.5703 65.8972 13.4639L64.593 13.1711C63.4352 12.9049 62.5613 12.4658 61.9713 11.8536C61.3813 11.2414 61.1728 10.403 61.3458 9.3384C61.4878 8.46895 61.8449 7.71039 62.4171 7.06274C62.9938 6.41065 63.7258 5.90494 64.613 5.54563C65.5046 5.18188 66.4916 5 67.574 5C68.6741 5 69.5946 5.18409 70.3354 5.55228C71.0806 5.92047 71.6152 6.43726 71.939 7.10266C72.2673 7.76806 72.356 8.5488 72.2052 9.44487H68.6652Z"
                fill="white" />
        <path
                d="M73.6391 8.1673L74.1448 5.18631H85.9889L85.4832 8.1673H81.3843L79.6277 18.8137H75.9813L77.738 8.1673H73.6391Z"
                fill="white" />
        <path d="M91.0809 5.18631L88.8185 18.8137H85.1189L87.3813 5.18631H91.0809Z" fill="white" />
        <path
                d="M104.692 10.2966H100.992C101.019 9.98162 101.001 9.69772 100.939 9.44487C100.877 9.19202 100.77 8.97465 100.619 8.79278C100.469 8.60646 100.271 8.46451 100.027 8.36692C99.7832 8.26933 99.4926 8.22053 99.1555 8.22053C98.5078 8.22053 97.9289 8.38245 97.4188 8.70627C96.9087 9.02567 96.485 9.48479 96.1479 10.0837C95.8108 10.6781 95.5712 11.3878 95.4293 12.2129C95.3051 13.0114 95.3006 13.6746 95.4159 14.2025C95.5357 14.7304 95.7686 15.1252 96.1146 15.3869C96.4651 15.6486 96.9198 15.7795 97.4787 15.7795C97.8513 15.7795 98.1929 15.7351 98.5034 15.6464C98.8184 15.5577 99.0978 15.4312 99.3418 15.2671C99.5902 15.0985 99.8009 14.8989 99.9739 14.6683C100.151 14.4331 100.287 14.1736 100.38 13.8897H104.106C103.964 14.4664 103.711 15.0564 103.348 15.6597C102.984 16.2586 102.514 16.8108 101.937 17.3165C101.36 17.8178 100.681 18.2237 99.9007 18.5342C99.12 18.8447 98.2417 19 97.2658 19C95.9882 19 94.8858 18.7205 93.9587 18.1616C93.036 17.6027 92.3662 16.7864 91.9492 15.7129C91.5367 14.6394 91.4546 13.3308 91.703 11.7871C91.9514 10.2966 92.4416 9.04785 93.1736 8.04087C93.9055 7.0339 94.7949 6.27535 95.8418 5.76521C96.8887 5.25507 98.0021 5 99.1821 5C100.074 5 100.872 5.11755 101.578 5.35266C102.287 5.58777 102.884 5.93156 103.367 6.38403C103.855 6.83207 104.215 7.38435 104.445 8.04087C104.676 8.6974 104.758 9.4493 104.692 10.2966Z"
                fill="white" />
        <path
                d="M113.862 9.44487C113.902 9.0057 113.796 8.66191 113.543 8.4135C113.29 8.16065 112.864 8.03422 112.266 8.03422C111.884 8.03422 111.565 8.07858 111.307 8.1673C111.054 8.25602 110.857 8.37801 110.715 8.53327C110.578 8.68853 110.491 8.86819 110.456 9.07224C110.416 9.23194 110.418 9.37833 110.462 9.51141C110.511 9.64005 110.602 9.7576 110.735 9.86407C110.873 9.97053 111.052 10.0659 111.274 10.1502C111.5 10.2345 111.769 10.3099 112.079 10.3764L113.144 10.616C113.871 10.7757 114.481 10.9864 114.974 11.2481C115.471 11.5054 115.861 11.8115 116.145 12.1664C116.429 12.5212 116.615 12.9183 116.704 13.3574C116.797 13.7966 116.799 14.2757 116.71 14.7947C116.56 15.6907 116.211 16.4493 115.666 17.0703C115.12 17.6914 114.408 18.1638 113.53 18.4876C112.651 18.8115 111.636 18.9734 110.482 18.9734C109.302 18.9734 108.3 18.7982 107.475 18.4477C106.654 18.0928 106.06 17.5516 105.691 16.8241C105.328 16.0922 105.239 15.1584 105.425 14.0228H108.939C108.885 14.4398 108.93 14.7902 109.072 15.0741C109.214 15.358 109.442 15.5732 109.757 15.7196C110.072 15.866 110.465 15.9392 110.935 15.9392C111.334 15.9392 111.676 15.8904 111.959 15.7928C112.243 15.6952 112.467 15.5599 112.631 15.3869C112.796 15.2139 112.895 15.0165 112.931 14.7947C112.966 14.5906 112.931 14.4087 112.824 14.249C112.718 14.0894 112.525 13.9452 112.246 13.8165C111.966 13.6879 111.582 13.5703 111.094 13.4639L109.79 13.1711C108.632 12.9049 107.759 12.4658 107.169 11.8536C106.579 11.2414 106.37 10.403 106.543 9.3384C106.685 8.46895 107.042 7.71039 107.614 7.06274C108.191 6.41065 108.923 5.90494 109.81 5.54563C110.702 5.18188 111.689 5 112.771 5C113.871 5 114.792 5.18409 115.533 5.55228C116.278 5.92047 116.812 6.43726 117.136 7.10266C117.465 7.76806 117.553 8.5488 117.402 9.44487H113.862Z"
                fill="white" />
        <path
                d="M13.5319 9.44487C13.5718 9.0057 13.4654 8.66191 13.2125 8.4135C12.9597 8.16065 12.5338 8.03422 11.935 8.03422C11.5535 8.03422 11.2341 8.07858 10.9768 8.1673C10.7239 8.25602 10.5265 8.37801 10.3846 8.53327C10.2471 8.68853 10.1606 8.86819 10.1251 9.07224C10.0852 9.23194 10.0874 9.37833 10.1317 9.51141C10.1805 9.64005 10.2715 9.7576 10.4045 9.86407C10.5421 9.97053 10.7217 10.0659 10.9435 10.1502C11.1698 10.2345 11.4381 10.3099 11.7487 10.3764L12.8133 10.616C13.5408 10.7757 14.1507 10.9864 14.6431 11.2481C15.14 11.5054 15.5303 11.8115 15.8142 12.1664C16.0981 12.5212 16.2845 12.9183 16.3732 13.3574C16.4663 13.7966 16.4685 14.2757 16.3798 14.7947C16.229 15.6907 15.8808 16.4493 15.3352 17.0703C14.7895 17.6914 14.0775 18.1638 13.1992 18.4876C12.3209 18.8115 11.3051 18.9734 10.1517 18.9734C8.97172 18.9734 7.96918 18.7982 7.14409 18.4477C6.32343 18.0928 5.72901 17.5516 5.36082 16.8241C4.99707 16.0922 4.90835 15.1584 5.09466 14.0228H8.60797C8.55473 14.4398 8.59909 14.7902 8.74105 15.0741C8.883 15.358 9.11145 15.5732 9.42641 15.7196C9.74136 15.866 10.1339 15.9392 10.6042 15.9392C11.0034 15.9392 11.345 15.8904 11.6289 15.7928C11.9128 15.6952 12.1368 15.5599 12.3009 15.3869C12.4651 15.2139 12.5649 15.0165 12.6004 14.7947C12.6358 14.5906 12.6004 14.4087 12.4939 14.249C12.3874 14.0894 12.1945 13.9452 11.915 13.8165C11.6355 13.6879 11.2518 13.5703 10.7639 13.4639L9.45968 13.1711C8.30188 12.9049 7.42799 12.4658 6.838 11.8536C6.24802 11.2414 6.03953 10.403 6.21253 9.3384C6.35448 8.46895 6.71158 7.71039 7.28382 7.06274C7.8605 6.41065 8.59244 5.90494 9.47964 5.54563C10.3713 5.18188 11.3583 5 12.4407 5C13.5408 5 14.4613 5.18409 15.2021 5.55228C15.9473 5.92047 16.4819 6.43726 16.8057 7.10266C17.1339 7.76806 17.2227 8.5488 17.0718 9.44487H13.5319Z"
                stroke="#AF5FFF" mask="url(#path-1-outside-1_803_306805)" />
        <path
                d="M18.5058 8.1673L19.0115 5.18631H30.8556L30.3499 8.1673H26.251L24.4944 18.8137H20.848L22.6046 8.1673H18.5058Z"
                stroke="#AF5FFF" mask="url(#path-1-outside-1_803_306805)" />
        <path
                d="M31.8054 18.8137H27.8131L34.5735 5.18631H39.6305L41.8663 18.8137H37.8739L36.5431 8.93916H36.4366L31.8054 18.8137ZM31.9651 13.4373H39.4708L38.9918 16.2053H31.4861L31.9651 13.4373Z"
                stroke="#AF5FFF" mask="url(#path-1-outside-1_803_306805)" />
        <path
                d="M42.8428 8.1673L43.3485 5.18631H55.1926L54.6869 8.1673H50.588L48.8314 18.8137H45.185L46.9416 8.1673H42.8428Z"
                stroke="#AF5FFF" mask="url(#path-1-outside-1_803_306805)" />
        <path d="M60.2845 5.18631L58.0222 18.8137H54.3226L56.5849 5.18631H60.2845Z" stroke="#AF5FFF"
              mask="url(#path-1-outside-1_803_306805)" />
        <path
                d="M68.6652 9.44487C68.7052 9.0057 68.5987 8.66191 68.3458 8.4135C68.093 8.16065 67.6671 8.03422 67.0683 8.03422C66.6868 8.03422 66.3674 8.07858 66.1101 8.1673C65.8573 8.25602 65.6599 8.37801 65.5179 8.53327C65.3804 8.68853 65.2939 8.86819 65.2584 9.07224C65.2185 9.23194 65.2207 9.37833 65.265 9.51141C65.3138 9.64005 65.4048 9.7576 65.5379 9.86407C65.6754 9.97053 65.855 10.0659 66.0768 10.1502C66.3031 10.2345 66.5714 10.3099 66.882 10.3764L67.9466 10.616C68.6741 10.7757 69.2841 10.9864 69.7765 11.2481C70.2733 11.5054 70.6637 11.8115 70.9476 12.1664C71.2315 12.5212 71.4178 12.9183 71.5065 13.3574C71.5996 13.7966 71.6019 14.2757 71.5131 14.7947C71.3623 15.6907 71.0141 16.4493 70.4685 17.0703C69.9228 17.6914 69.2109 18.1638 68.3325 18.4876C67.4542 18.8115 66.4384 18.9734 65.285 18.9734C64.105 18.9734 63.1025 18.7982 62.2774 18.4477C61.4567 18.0928 60.8623 17.5516 60.4941 16.8241C60.1304 16.0922 60.0417 15.1584 60.228 14.0228H63.7413C63.688 14.4398 63.7324 14.7902 63.8744 15.0741C64.0163 15.358 64.2448 15.5732 64.5597 15.7196C64.8747 15.866 65.2673 15.9392 65.7375 15.9392C66.1367 15.9392 66.4783 15.8904 66.7622 15.7928C67.0461 15.6952 67.2701 15.5599 67.4342 15.3869C67.5984 15.2139 67.6982 15.0165 67.7337 14.7947C67.7692 14.5906 67.7337 14.4087 67.6272 14.249C67.5208 14.0894 67.3278 13.9452 67.0483 13.8165C66.7688 13.6879 66.3851 13.5703 65.8972 13.4639L64.593 13.1711C63.4352 12.9049 62.5613 12.4658 61.9713 11.8536C61.3813 11.2414 61.1728 10.403 61.3458 9.3384C61.4878 8.46895 61.8449 7.71039 62.4171 7.06274C62.9938 6.41065 63.7258 5.90494 64.613 5.54563C65.5046 5.18188 66.4916 5 67.574 5C68.6741 5 69.5946 5.18409 70.3354 5.55228C71.0806 5.92047 71.6152 6.43726 71.939 7.10266C72.2673 7.76806 72.356 8.5488 72.2052 9.44487H68.6652Z"
                stroke="#AF5FFF" mask="url(#path-1-outside-1_803_306805)" />
        <path
                d="M73.6391 8.1673L74.1448 5.18631H85.9889L85.4832 8.1673H81.3843L79.6277 18.8137H75.9813L77.738 8.1673H73.6391Z"
                stroke="#AF5FFF" mask="url(#path-1-outside-1_803_306805)" />
        <path d="M91.0809 5.18631L88.8185 18.8137H85.1189L87.3813 5.18631H91.0809Z" stroke="#AF5FFF"
              mask="url(#path-1-outside-1_803_306805)" />
        <path
                d="M104.692 10.2966H100.992C101.019 9.98162 101.001 9.69772 100.939 9.44487C100.877 9.19202 100.77 8.97465 100.619 8.79278C100.469 8.60646 100.271 8.46451 100.027 8.36692C99.7832 8.26933 99.4926 8.22053 99.1555 8.22053C98.5078 8.22053 97.9289 8.38245 97.4188 8.70627C96.9087 9.02567 96.485 9.48479 96.1479 10.0837C95.8108 10.6781 95.5712 11.3878 95.4293 12.2129C95.3051 13.0114 95.3006 13.6746 95.4159 14.2025C95.5357 14.7304 95.7686 15.1252 96.1146 15.3869C96.4651 15.6486 96.9198 15.7795 97.4787 15.7795C97.8513 15.7795 98.1929 15.7351 98.5034 15.6464C98.8184 15.5577 99.0978 15.4312 99.3418 15.2671C99.5902 15.0985 99.8009 14.8989 99.9739 14.6683C100.151 14.4331 100.287 14.1736 100.38 13.8897H104.106C103.964 14.4664 103.711 15.0564 103.348 15.6597C102.984 16.2586 102.514 16.8108 101.937 17.3165C101.36 17.8178 100.681 18.2237 99.9007 18.5342C99.12 18.8447 98.2417 19 97.2658 19C95.9882 19 94.8858 18.7205 93.9587 18.1616C93.036 17.6027 92.3662 16.7864 91.9492 15.7129C91.5367 14.6394 91.4546 13.3308 91.703 11.7871C91.9514 10.2966 92.4416 9.04785 93.1736 8.04087C93.9055 7.0339 94.7949 6.27535 95.8418 5.76521C96.8887 5.25507 98.0021 5 99.1821 5C100.074 5 100.872 5.11755 101.578 5.35266C102.287 5.58777 102.884 5.93156 103.367 6.38403C103.855 6.83207 104.215 7.38435 104.445 8.04087C104.676 8.6974 104.758 9.4493 104.692 10.2966Z"
                stroke="#AF5FFF" mask="url(#path-1-outside-1_803_306805)" />
        <path
                d="M113.862 9.44487C113.902 9.0057 113.796 8.66191 113.543 8.4135C113.29 8.16065 112.864 8.03422 112.266 8.03422C111.884 8.03422 111.565 8.07858 111.307 8.1673C111.054 8.25602 110.857 8.37801 110.715 8.53327C110.578 8.68853 110.491 8.86819 110.456 9.07224C110.416 9.23194 110.418 9.37833 110.462 9.51141C110.511 9.64005 110.602 9.7576 110.735 9.86407C110.873 9.97053 111.052 10.0659 111.274 10.1502C111.5 10.2345 111.769 10.3099 112.079 10.3764L113.144 10.616C113.871 10.7757 114.481 10.9864 114.974 11.2481C115.471 11.5054 115.861 11.8115 116.145 12.1664C116.429 12.5212 116.615 12.9183 116.704 13.3574C116.797 13.7966 116.799 14.2757 116.71 14.7947C116.56 15.6907 116.211 16.4493 115.666 17.0703C115.12 17.6914 114.408 18.1638 113.53 18.4876C112.651 18.8115 111.636 18.9734 110.482 18.9734C109.302 18.9734 108.3 18.7982 107.475 18.4477C106.654 18.0928 106.06 17.5516 105.691 16.8241C105.328 16.0922 105.239 15.1584 105.425 14.0228H108.939C108.885 14.4398 108.93 14.7902 109.072 15.0741C109.214 15.358 109.442 15.5732 109.757 15.7196C110.072 15.866 110.465 15.9392 110.935 15.9392C111.334 15.9392 111.676 15.8904 111.959 15.7928C112.243 15.6952 112.467 15.5599 112.631 15.3869C112.796 15.2139 112.895 15.0165 112.931 14.7947C112.966 14.5906 112.931 14.4087 112.824 14.249C112.718 14.0894 112.525 13.9452 112.246 13.8165C111.966 13.6879 111.582 13.5703 111.094 13.4639L109.79 13.1711C108.632 12.9049 107.759 12.4658 107.169 11.8536C106.579 11.2414 106.37 10.403 106.543 9.3384C106.685 8.46895 107.042 7.71039 107.614 7.06274C108.191 6.41065 108.923 5.90494 109.81 5.54563C110.702 5.18188 111.689 5 112.771 5C113.871 5 114.792 5.18409 115.533 5.55228C116.278 5.92047 116.812 6.43726 117.136 7.10266C117.465 7.76806 117.553 8.5488 117.402 9.44487H113.862Z"
                stroke="#AF5FFF" mask="url(#path-1-outside-1_803_306805)" />
    </g>
    <defs>
        <filter id="filter0_d_803_306805" x="0.5" y="0.5" width="121.473" height="23" filterUnits="userSpaceOnUse"
                color-interpolation-filters="sRGB">
            <feFlood flood-opacity="0" result="BackgroundImageFix" />
            <feColorMatrix in="SourceAlpha" type="matrix" values="0 0 0 0 0 0 0 0 0 0 0 0 0 0 0 0 0 0 127 0"
                           result="hardAlpha" />
            <feOffset />
            <feGaussianBlur stdDeviation="2" />
            <feComposite in2="hardAlpha" operator="out" />
            <feColorMatrix type="matrix" values="0 0 0 0 0.686275 0 0 0 0 0.372549 0 0 0 0 1 0 0 0 1 0" />
            <feBlend mode="normal" in2="BackgroundImageFix" result="effect1_dropShadow_803_306805" />
            <feBlend mode="normal" in="SourceGraphic" in2="effect1_dropShadow_803_306805" result="shape" />
        </filter>
    </defs>
</svg>
