<svg width="24" height="24" viewBox="0 0 24 24" xmlns="http://www.w3.org/2000/svg">
<path d="M5.29481 7.47059C5.29481 6.87775 5.53031 6.3092 5.94951 5.89C6.36871 5.4708 6.93727 5.23529 7.5301 5.23529C8.12294 5.23529 8.69149 5.4708 9.11069 5.89C9.52989 6.3092 9.7654 6.87775 9.7654 7.47059C9.7654 8.06343 9.52989 8.63198 9.11069 9.05118C8.69149 9.47038 8.12294 9.70588 7.5301 9.70588C6.93727 9.70588 6.36871 9.47038 5.94951 9.05118C5.53031 8.63198 5.29481 8.06343 5.29481 7.47059ZM7.5301 3C6.34443 3 5.20732 3.47101 4.36892 4.3094C3.53052 5.1478 3.05951 6.28491 3.05951 7.47059C3.05951 8.65626 3.53052 9.79337 4.36892 10.6318C5.20732 11.4702 6.34443 11.9412 7.5301 11.9412C8.71578 11.9412 9.85289 11.4702 10.6913 10.6318C11.5297 9.79337 12.0007 8.65626 12.0007 7.47059C12.0007 6.28491 11.5297 5.1478 10.6913 4.3094C9.85289 3.47101 8.71578 3 7.5301 3ZM16.4713 8.58824C16.4713 8.29182 16.589 8.00754 16.7986 7.79794C17.0082 7.58834 17.2925 7.47059 17.5889 7.47059C17.8853 7.47059 18.1696 7.58834 18.3792 7.79794C18.5888 8.00754 18.7066 8.29182 18.7066 8.58824C18.7066 8.88465 18.5888 9.16893 18.3792 9.37853C18.1696 9.58813 17.8853 9.70588 17.5889 9.70588C17.2925 9.70588 17.0082 9.58813 16.7986 9.37853C16.589 9.16893 16.4713 8.88465 16.4713 8.58824ZM17.5889 5.23529C16.6997 5.23529 15.8468 5.58855 15.218 6.21735C14.5892 6.84615 14.236 7.69898 14.236 8.58824C14.236 9.47749 14.5892 10.3303 15.218 10.9591C15.8468 11.5879 16.6997 11.9412 17.5889 11.9412C18.4782 11.9412 19.331 11.5879 19.9598 10.9591C20.5886 10.3303 20.9419 9.47749 20.9419 8.58824C20.9419 7.69898 20.5886 6.84615 19.9598 6.21735C19.331 5.58855 18.4782 5.23529 17.5889 5.23529ZM0.824219 16.9706C0.824219 15.4282 2.07598 14.1765 3.61834 14.1765H11.4419C12.9842 14.1765 14.236 15.4282 14.236 16.9706V17.0779C14.2345 17.1594 14.2285 17.2407 14.2181 17.3215C14.1974 17.5173 14.1638 17.7114 14.1175 17.9027C13.9666 18.5209 13.6971 19.1039 13.324 19.6194C12.3762 20.9226 10.6103 22 7.5301 22C4.44987 22 2.68398 20.9226 1.73622 19.6194C1.24787 18.9418 0.940162 18.151 0.842101 17.3215L0.824219 17.0756V16.9706ZM3.05951 17.0287L3.06398 17.0891C3.06994 17.1531 3.08708 17.2493 3.1154 17.3774C3.17575 17.63 3.29869 17.9675 3.54457 18.3051C3.99163 18.922 5.01987 19.7647 7.5301 19.7647C10.0403 19.7647 11.0663 18.922 11.5156 18.3051C11.7844 17.9292 11.9514 17.4903 12.0007 17.0309V16.9706C12.0007 16.8224 11.9418 16.6802 11.837 16.5754C11.7322 16.4706 11.5901 16.4118 11.4419 16.4118H3.61834C3.47013 16.4118 3.32799 16.4706 3.22319 16.5754C3.11839 16.6802 3.05951 16.8224 3.05951 16.9706V17.0287ZM17.5867 20.8824C16.7954 20.8794 16.1002 20.8049 15.5012 20.6588C15.9083 20.0128 16.1982 19.3 16.3573 18.5532C16.703 18.6128 17.1128 18.6441 17.5867 18.6471C19.5761 18.6471 20.3316 18.0391 20.6267 17.6702C20.7884 17.4646 20.896 17.2218 20.9396 16.9639V16.9527C20.935 16.8076 20.8741 16.67 20.7698 16.5691C20.6655 16.4681 20.526 16.4117 20.3808 16.4118H16.44C16.3516 15.6119 16.0717 14.8452 15.6241 14.1765H20.383C21.9254 14.1765 23.1772 15.4282 23.1772 16.9706V17.0086C23.1752 17.0781 23.17 17.1475 23.1615 17.2165C23.0731 17.893 22.801 18.5323 22.3747 19.0651C21.5499 20.0933 20.0723 20.8824 17.5889 20.8824" />
</svg>
