<svg width="34" height="26" viewBox="0 0 34 26" fill="none" xmlns="http://www.w3.org/2000/svg">
<g filter="url(#filter0_d_46_3726)">
<path d="M25.9916 10.8137C27.2305 10.8137 28.1233 11.251 28.6699 12.1255C29.2287 13 29.2833 14.0567 28.8339 15.2955L28.014 17.5182C27.5646 18.7571 26.7447 19.8137 25.5543 20.6882C24.3639 21.5627 23.1493 22 21.9103 22H4L10.5046 4.09106H23.9509C25.1899 4.09106 26.0827 4.52831 26.6293 5.40281C27.188 6.2773 27.2427 7.33398 26.7933 8.57285L25.9734 10.8137H25.9916ZM13.3469 8.59106L12.5452 10.8137H20.3798C20.6956 10.8137 20.9993 10.7044 21.2908 10.4858C21.5945 10.2672 21.801 10.006 21.9103 9.7024C22.0196 9.38661 22.0014 9.1194 21.8556 8.90078C21.722 8.68216 21.5034 8.57285 21.1997 8.57285H13.3651V8.59106H13.3469ZM23.9509 16.4069C24.0603 16.0911 24.042 15.8299 23.8963 15.6235C23.7627 15.4048 23.544 15.2955 23.2404 15.2955H10.9054L10.1037 17.5182H22.4205C22.7363 17.5182 23.0399 17.4089 23.3315 17.1903C23.6351 16.9716 23.8416 16.7105 23.9509 16.4069Z" fill="white"/>
</g>
<defs>
<filter id="filter0_d_46_3726" x="0" y="0.0910645" width="33.1344" height="25.9089" filterUnits="userSpaceOnUse" color-interpolation-filters="sRGB">
<feFlood flood-opacity="0" result="BackgroundImageFix"/>
<feColorMatrix in="SourceAlpha" type="matrix" values="0 0 0 0 0 0 0 0 0 0 0 0 0 0 0 0 0 0 127 0" result="hardAlpha"/>
<feOffset/>
<feGaussianBlur stdDeviation="2"/>
<feComposite in2="hardAlpha" operator="out"/>
<feColorMatrix type="matrix" values="0 0 0 0 0.34902 0 0 0 0 0.803922 0 0 0 0 0.945098 0 0 0 1 0"/>
<feBlend mode="normal" in2="BackgroundImageFix" result="effect1_dropShadow_46_3726"/>
<feBlend mode="normal" in="SourceGraphic" in2="effect1_dropShadow_46_3726" result="shape"/>
</filter>
</defs>
</svg>
