<svg width="63" height="30" viewBox="0 0 63 30" fill="none" xmlns="http://www.w3.org/2000/svg">
<path fill-rule="evenodd" clip-rule="evenodd" d="M0.333984 1C0.333984 0.447716 0.7817 0 1.33399 0H15.334L16.334 1H20.334L22.334 4H11.334L9.33398 1H1.83398C1.55784 1 1.33398 1.22386 1.33398 1.5V30H0.333984V1ZM62.334 1C62.334 0.447716 61.8863 0 61.334 0H49.334L48.334 1H44.334L42.334 4H53.834L55.334 1H60.834C61.1101 1 61.334 1.22386 61.334 1.5V30H62.334V1ZM40.334 1H24.334L26.334 4H38.334L40.334 1Z" />
</svg>
