<svg width="43" height="44" viewBox="0 0 43 44" fill="none" xmlns="http://www.w3.org/2000/svg">
<g filter="url(#filter0_f_431_22043)">
<path d="M25 9H33L36 30H22L25 9Z"/>
</g>
<g opacity="0.5" filter="url(#filter1_f_431_22043)">
<path d="M25 9H33L36 30H22L25 9Z"/>
</g>
<path d="M27 8H31C31 9.10457 30.1046 10 29 10C27.8954 10 27 9.10457 27 8Z" fill="white"/>
<path d="M23.8125 6.7812C24.5544 5.6684 25.8033 5 27.1407 5H30.8593C32.1967 5 33.4456 5.6684 34.1875 6.7812L35 8H23L23.8125 6.7812Z" fill="url(#paint0_linear_431_22043)"/>
<rect width="2" height="3" transform="matrix(1 0 0 -1 28 5)" fill="url(#paint1_linear_431_22043)"/>
<defs>
<filter id="filter0_f_431_22043" x="0" y="-13" width="58" height="65" filterUnits="userSpaceOnUse" color-interpolation-filters="sRGB">
<feFlood flood-opacity="0" result="BackgroundImageFix"/>
<feBlend mode="normal" in="SourceGraphic" in2="BackgroundImageFix" result="shape"/>
<feGaussianBlur stdDeviation="11" result="effect1_foregroundBlur_431_22043"/>
</filter>
<filter id="filter1_f_431_22043" x="0" y="-13" width="58" height="65" filterUnits="userSpaceOnUse" color-interpolation-filters="sRGB">
<feFlood flood-opacity="0" result="BackgroundImageFix"/>
<feBlend mode="normal" in="SourceGraphic" in2="BackgroundImageFix" result="shape"/>
<feGaussianBlur stdDeviation="11" result="effect1_foregroundBlur_431_22043"/>
</filter>
<linearGradient id="paint0_linear_431_22043" x1="35" y1="5.6" x2="23" y2="5.59998" gradientUnits="userSpaceOnUse">
<stop stop-color="#010C14"/>
<stop offset="0.489583" stop-color="#051C2E"/>
<stop offset="1" stop-color="#010B14"/>
</linearGradient>
<linearGradient id="paint1_linear_431_22043" x1="2" y1="1.2" x2="3.21408e-08" y2="1.2" gradientUnits="userSpaceOnUse">
<stop stop-color="#010C14"/>
<stop offset="0.489583" stop-color="#051C2E"/>
<stop offset="1" stop-color="#010B14"/>
</linearGradient>
</defs>
</svg>
