<svg width="46" height="44" viewBox="0 0 46 44" fill="none" xmlns="http://www.w3.org/2000/svg">
<g filter="url(#filter0_f_431_22035)">
<path d="M13 9H21L24 30H10L13 9Z"/>
</g>
<g opacity="0.5" filter="url(#filter1_f_431_22035)">
<path d="M13 9H21L24 30H10L13 9Z"/>
</g>
<path d="M15 8H19C19 9.10457 18.1046 10 17 10C15.8954 10 15 9.10457 15 8Z" fill="white"/>
<path d="M11.8125 6.7812C12.5544 5.6684 13.8033 5 15.1407 5H18.8593C20.1967 5 21.4456 5.6684 22.1875 6.7812L23 8H11L11.8125 6.7812Z" fill="url(#paint0_linear_431_22035)"/>
<rect width="2" height="3" transform="matrix(1 0 0 -1 16 5)" fill="url(#paint1_linear_431_22035)"/>
<defs>
<filter id="filter0_f_431_22035" x="-12" y="-13" width="58" height="65" filterUnits="userSpaceOnUse" color-interpolation-filters="sRGB">
<feFlood flood-opacity="0" result="BackgroundImageFix"/>
<feBlend mode="normal" in="SourceGraphic" in2="BackgroundImageFix" result="shape"/>
<feGaussianBlur stdDeviation="11" result="effect1_foregroundBlur_431_22035"/>
</filter>
<filter id="filter1_f_431_22035" x="-12" y="-13" width="58" height="65" filterUnits="userSpaceOnUse" color-interpolation-filters="sRGB">
<feFlood flood-opacity="0" result="BackgroundImageFix"/>
<feBlend mode="normal" in="SourceGraphic" in2="BackgroundImageFix" result="shape"/>
<feGaussianBlur stdDeviation="11" result="effect1_foregroundBlur_431_22035"/>
</filter>
<linearGradient id="paint0_linear_431_22035" x1="23" y1="5.6" x2="11" y2="5.59998" gradientUnits="userSpaceOnUse">
<stop stop-color="#010C14"/>
<stop offset="0.489583" stop-color="#051C2E"/>
<stop offset="1" stop-color="#010B14"/>
</linearGradient>
<linearGradient id="paint1_linear_431_22035" x1="2" y1="1.2" x2="3.21408e-08" y2="1.2" gradientUnits="userSpaceOnUse">
<stop stop-color="#010C14"/>
<stop offset="0.489583" stop-color="#051C2E"/>
<stop offset="1" stop-color="#010B14"/>
</linearGradient>
</defs>
</svg>
