<svg width="20" height="22" viewBox="0 0 20 22" fill="none" xmlns="http://www.w3.org/2000/svg">
<path d="M10 16.8346C10.69 16.8346 11.25 17.3946 11.25 18.0846C11.25 18.7746 10.69 19.3346 10 19.3346C9.31 19.3346 8.75 18.7746 8.75 18.0846C8.75 17.3946 9.31 16.8346 10 16.8346ZM10 2.66797C12.7617 2.66797 15 4.9063 15 7.66797C15 9.47214 14.3725 10.4096 12.7717 11.7705C11.1658 13.1346 10.8333 13.7488 10.8333 15.168L9.16667 15.168C9.16667 13.1063 9.8225 12.0888 11.6925 10.5005C12.9567 9.4263 13.3333 8.86297 13.3333 7.66797C13.3333 5.8263 11.8417 4.33464 10 4.33464C8.15833 4.33464 6.66667 5.8263 6.66667 7.66797V8.5013H5V7.66797C5 4.9063 7.23833 2.66797 10 2.66797Z" />
<g filter="url(#filter0_f_431_186739)">
<path d="M10 16.8346C10.69 16.8346 11.25 17.3946 11.25 18.0846C11.25 18.7746 10.69 19.3346 10 19.3346C9.31 19.3346 8.75 18.7746 8.75 18.0846C8.75 17.3946 9.31 16.8346 10 16.8346ZM10 2.66797C12.7617 2.66797 15 4.9063 15 7.66797C15 9.47214 14.3725 10.4096 12.7717 11.7705C11.1658 13.1346 10.8333 13.7488 10.8333 15.168L9.16667 15.168C9.16667 13.1063 9.8225 12.0888 11.6925 10.5005C12.9567 9.4263 13.3333 8.86297 13.3333 7.66797C13.3333 5.8263 11.8417 4.33464 10 4.33464C8.15833 4.33464 6.66667 5.8263 6.66667 7.66797V8.5013H5V7.66797C5 4.9063 7.23833 2.66797 10 2.66797Z" />
</g>
<defs>
<filter id="filter0_f_431_186739" x="-2" y="-1" width="24" height="24" filterUnits="userSpaceOnUse" color-interpolation-filters="sRGB">
<feFlood flood-opacity="0" result="BackgroundImageFix"/>
<feBlend mode="normal" in="SourceGraphic" in2="BackgroundImageFix" result="shape"/>
<feGaussianBlur stdDeviation="1" result="effect1_foregroundBlur_431_186739"/>
</filter>
</defs>
</svg>
