<svg width="364" height="142" viewBox="0 0 364 142" fill="none" xmlns="http://www.w3.org/2000/svg">
<path d="M0 119C0 107.954 8.95431 99 20 99H344C355.046 99 364 107.954 364 119H0Z" fill="url(#paint0_linear_558_252888)"/>
<rect y="115" width="364" height="4" fill="#26FF54"/>
<path d="M37 65C37 56.1634 44.1634 49 53 49H311C319.837 49 327 56.1634 327 65H37Z" fill="url(#paint1_linear_558_252888)"/>
<rect x="37" y="61" width="290" height="4" fill="#26FF54"/>
<rect width="258" height="68" transform="translate(53 71)" fill="#0B2A41"/>
<ellipse opacity="0.5" cx="174.5" cy="94.6094" rx="107.5" ry="13.5" fill="url(#paint2_radial_558_252888)"/>
<path fill-rule="evenodd" clip-rule="evenodd" d="M96.1066 101.146C96.4217 101.008 96.6864 100.825 96.9003 100.588C97.1141 100.351 97.2549 100.042 97.317 99.6667L97.3845 99.2308C97.497 98.585 97.2944 98.127 96.782 97.8566C96.2696 97.5861 95.549 97.4484 94.6145 97.4484H87.2897L86.417 101.51H93.8882C94.2937 101.51 94.6876 101.482 95.0705 101.427C95.4477 101.372 95.7968 101.278 96.1066 101.146ZM98.3415 89.9651C98.4318 89.5237 98.3246 89.1484 98.0264 88.8505C97.7335 88.5469 97.2044 88.3978 96.4443 88.3978H89.2716L88.4776 92.0014H95.5547C96.3766 92.0014 97.0072 91.8416 97.4409 91.5158C97.8799 91.1958 98.1502 90.7818 98.2572 90.2906L98.3415 89.9651ZM106.01 100.875C105.74 102.139 105.239 103.193 104.512 104.032C103.786 104.871 102.891 105.544 101.821 106.052C100.757 106.559 99.5463 106.918 98.2007 107.128C96.8554 107.337 95.4364 107.442 93.9387 107.442H76.2545L81.5695 82.9622H99.462C100.96 82.9622 102.26 83.0947 103.364 83.3594C104.473 83.6243 105.368 84.0051 106.055 84.5074C106.742 85.0096 107.215 85.6222 107.474 86.3504C107.733 87.0789 107.761 87.9066 107.564 88.8339L107.4 89.5292C107.08 90.964 106.398 92.0568 105.362 92.8126C104.321 93.5632 102.902 94.071 101.095 94.3304C101.956 94.4463 102.739 94.6559 103.448 94.943C104.158 95.2353 104.749 95.6161 105.222 96.0907C105.695 96.5653 106.021 97.1281 106.201 97.7794C106.381 98.436 106.387 99.181 106.213 100.02L106.01 100.875ZM108.369 107.442L113.684 82.9788L122.557 82.9622L118.565 101.378H132.055L130.754 107.442H108.369ZM134.662 107.442L139.977 82.9622H164.406L163.083 89.0602H147.414L146.755 92.1339H160.611L159.288 98.1932H145.432L144.74 101.378H160.51L159.192 107.442H134.662ZM190.698 98.712C190.698 101.775 189.409 104.093 186.83 105.665C184.252 107.238 180.435 108.022 175.373 108.022C173.132 108.022 171.207 107.79 169.602 107.326C167.998 106.863 166.703 106.234 165.717 105.439C164.732 104.639 164.062 103.701 163.713 102.625C163.358 101.548 163.319 100.395 163.578 99.1644H172.012C171.956 99.5729 171.961 99.9648 172.029 100.334C172.091 100.71 172.288 101.035 172.609 101.317C172.935 101.593 173.419 101.819 174.061 101.985C174.709 102.15 175.57 102.238 176.662 102.238C177.608 102.238 178.391 102.178 179.021 102.056C179.646 101.94 180.142 101.786 180.513 101.598C180.879 101.41 181.138 101.195 181.29 100.952C181.437 100.71 181.51 100.461 181.51 100.213C181.51 99.8597 181.33 99.5619 180.964 99.319C180.603 99.0762 179.984 98.8666 179.1 98.6954L172.26 97.3214C171.122 97.0952 170.165 96.7915 169.377 96.4052C168.594 96.0246 167.953 95.5774 167.463 95.0644C166.979 94.5566 166.624 93.9883 166.399 93.3702C166.179 92.7465 166.072 92.0897 166.072 91.3889C166.072 90.688 166.162 89.9762 166.342 89.2532C166.523 88.5303 166.832 87.835 167.26 87.1674C167.688 86.4995 168.262 85.8758 168.977 85.2909C169.687 84.7115 170.582 84.2037 171.657 83.7734C172.727 83.3431 173.994 83.0007 175.457 82.7526C176.921 82.5042 178.616 82.3828 180.553 82.3828C182.827 82.3828 184.747 82.6035 186.301 83.0449C187.861 83.4863 189.088 84.0934 189.994 84.8661C190.907 85.633 191.509 86.5382 191.819 87.5701C192.128 88.6077 192.179 89.7167 191.965 90.9032H184.15C184.15 90.5061 184.094 90.1363 183.976 89.8052C183.863 89.4684 183.632 89.1816 183.283 88.9388C182.934 88.6959 182.456 88.5082 181.842 88.3812C181.223 88.249 180.423 88.1882 179.432 88.1882C178.577 88.1882 177.873 88.249 177.321 88.3704C176.769 88.4971 176.341 88.6572 176.032 88.8505C175.728 89.0436 175.514 89.2532 175.401 89.4795C175.283 89.7057 175.227 89.9211 175.227 90.1252C175.227 90.3072 175.272 90.4784 175.356 90.6385C175.446 90.7929 175.593 90.9364 175.795 91.0744C175.998 91.2069 176.263 91.3283 176.595 91.4386C176.927 91.5435 177.332 91.6483 177.816 91.742L183.34 92.7963C184.663 93.0554 185.783 93.3646 186.712 93.7233C187.641 94.0876 188.407 94.5124 188.998 95.0035C189.595 95.4892 190.023 96.0465 190.293 96.6591C190.563 97.2716 190.698 97.9559 190.698 98.712ZM219.513 98.712C219.513 101.775 218.224 104.093 215.645 105.665C213.067 107.238 209.25 108.022 204.188 108.022C201.947 108.022 200.022 107.79 198.417 107.326C196.813 106.863 195.518 106.234 194.532 105.439C193.547 104.639 192.877 103.701 192.528 102.625C192.173 101.548 192.134 100.395 192.393 99.1644H200.827C200.771 99.5729 200.776 99.9648 200.844 100.334C200.906 100.71 201.103 101.035 201.424 101.317C201.75 101.593 202.234 101.819 202.876 101.985C203.524 102.15 204.385 102.238 205.478 102.238C206.423 102.238 207.206 102.178 207.836 102.056C208.461 101.94 208.957 101.786 209.328 101.598C209.694 101.41 209.953 101.195 210.105 100.952C210.252 100.71 210.325 100.461 210.325 100.213C210.325 99.8597 210.145 99.5619 209.779 99.319C209.418 99.0762 208.799 98.8666 207.915 98.6954L201.075 97.3214C199.937 97.0952 198.98 96.7915 198.192 96.4052C197.409 96.0246 196.768 95.5774 196.278 95.0644C195.794 94.5566 195.439 93.9883 195.214 93.3702C194.994 92.7465 194.887 92.0897 194.887 91.3889C194.887 90.688 194.977 89.9762 195.157 89.2532C195.338 88.5303 195.647 87.835 196.075 87.1674C196.503 86.4995 197.077 85.8758 197.792 85.2909C198.502 84.7115 199.397 84.2037 200.472 83.7734C201.542 83.3431 202.809 83.0007 204.272 82.7526C205.736 82.5042 207.431 82.3828 209.368 82.3828C211.642 82.3828 213.562 82.6035 215.116 83.0449C216.676 83.4863 217.903 84.0934 218.809 84.8661C219.722 85.633 220.324 86.5382 220.634 87.5701C220.943 88.6077 220.994 89.7167 220.78 90.9032H212.965C212.965 90.5061 212.909 90.1363 212.791 89.8052C212.678 89.4684 212.447 89.1816 212.098 88.9388C211.749 88.6959 211.271 88.5082 210.657 88.3812C210.038 88.249 209.238 88.1882 208.247 88.1882C207.392 88.1882 206.688 88.249 206.136 88.3704C205.584 88.4971 205.156 88.6572 204.847 88.8505C204.543 89.0436 204.329 89.2532 204.216 89.4795C204.098 89.7057 204.042 89.9211 204.042 90.1252C204.042 90.3072 204.087 90.4784 204.171 90.6385C204.261 90.7929 204.408 90.9364 204.61 91.0744C204.813 91.2069 205.078 91.3283 205.41 91.4386C205.742 91.5435 206.147 91.6483 206.632 91.742L212.155 92.7963C213.478 93.0554 214.598 93.3646 215.527 93.7233C216.456 94.0876 217.222 94.5124 217.813 95.0035C218.41 95.4892 218.838 96.0465 219.108 96.6591C219.378 97.2716 219.513 97.9559 219.513 98.712ZM221.259 107.442L226.574 82.9622H251.003L249.679 89.0602H234.011L233.352 92.1339H247.208L245.885 98.1932H232.029L231.337 101.378H247.106L245.789 107.442H221.259ZM255.54 82.9622H271.457C273.973 82.9622 276.073 83.2327 277.746 83.7623C279.423 84.2978 280.729 85.0425 281.664 85.9972C282.599 86.9519 283.19 88.0889 283.438 89.4078C283.685 90.7268 283.64 92.1726 283.297 93.751L282.655 96.7088C282.323 98.2595 281.76 99.6943 280.955 101.008C280.155 102.321 279.086 103.458 277.746 104.413C276.411 105.367 274.79 106.107 272.876 106.642C270.961 107.177 268.715 107.442 266.142 107.442H250.225L255.54 82.9622ZM260.405 101.378H266.739C267.803 101.378 268.743 101.251 269.548 100.997C270.359 100.748 271.051 100.39 271.631 99.9261C272.205 99.4626 272.678 98.905 273.039 98.2595C273.399 97.6137 273.664 96.8963 273.833 96.1073L274.26 94.0544C274.379 93.475 274.418 92.8845 274.373 92.294C274.334 91.698 274.137 91.1626 273.799 90.6825C273.455 90.2024 272.932 89.816 272.228 89.5126C271.524 89.2092 270.579 89.0602 269.396 89.0602H263.079L260.405 101.378ZM95.992 99.0162C95.8803 98.9728 95.7457 98.9357 95.5888 98.9061C95.3247 98.8566 94.9997 98.8312 94.6145 98.8312H88.4308L88.1523 100.127H93.8882C94.2328 100.127 94.5589 100.105 94.8665 100.061C95.0098 100.04 95.1359 100.015 95.2418 99.9858C95.3495 99.9568 95.4514 99.9217 95.5445 99.8818L95.5521 99.8788C95.6148 99.85 95.6732 99.8171 95.7256 99.7806C95.7742 99.7466 95.8154 99.7115 95.8478 99.6753C95.8538 99.6689 95.8636 99.6506 95.8766 99.6216C95.8981 99.5743 95.9144 99.5207 95.9254 99.4617L95.9229 99.4615L95.9903 99.0256L95.992 99.0162ZM96.9262 89.8127C96.806 89.7914 96.6452 89.7806 96.4443 89.7806H90.409L90.2244 90.6186H95.5547C95.8571 90.6186 96.1032 90.5946 96.2905 90.5467C96.4181 90.5141 96.5174 90.4712 96.5868 90.4192L96.6311 90.3874C96.6997 90.334 96.7535 90.2779 96.7916 90.2204C96.832 90.1598 96.8616 90.0871 96.8794 90.0044L96.8921 89.951L96.8904 89.9504L96.9262 89.8127ZM107.382 101.183L107.382 101.184C107.224 101.911 107 102.581 106.711 103.19C106.407 103.832 106.031 104.41 105.587 104.923C105.159 105.418 104.68 105.864 104.149 106.262C103.627 106.654 103.055 106.999 102.433 107.294C101.846 107.574 101.209 107.816 100.527 108.019C99.8564 108.218 99.1536 108.375 98.4211 108.489C97.6875 108.603 96.9575 108.687 96.2316 108.741C95.4717 108.797 94.7073 108.825 93.9387 108.825H76.2545C75.4755 108.825 74.8438 108.206 74.8438 107.442C74.8438 107.314 74.8618 107.19 74.8951 107.072L80.1918 82.676C80.332 82.0263 80.918 81.5811 81.5695 81.5816V81.5794H99.462C100.236 81.5794 100.983 81.6165 101.704 81.6895C102.414 81.7617 103.079 81.872 103.694 82.0197C104.33 82.1713 104.908 82.3585 105.43 82.5806C105.985 82.817 106.474 83.0903 106.898 83.4C107.346 83.7278 107.73 84.0986 108.049 84.5124C108.371 84.9302 108.622 85.3921 108.802 85.8966C108.977 86.3911 109.075 86.916 109.095 87.4688L109.095 87.4865C109.112 88.0079 109.061 88.5516 108.942 89.1149L108.936 89.1418L108.777 89.8207L108.778 89.821C108.585 90.6858 108.276 91.4596 107.852 92.1417C107.419 92.8403 106.867 93.4332 106.2 93.92L106.194 93.9244L106.195 93.9252C105.945 94.105 105.678 94.2731 105.395 94.4288C105.696 94.639 105.974 94.8724 106.23 95.1291C106.549 95.4494 106.821 95.8028 107.045 96.1881C107.271 96.5786 107.444 96.9887 107.562 97.4174L107.581 97.4921C107.687 97.9047 107.742 98.3497 107.745 98.8257C107.747 99.2953 107.696 99.7851 107.59 100.295L107.583 100.327L107.585 100.328L107.382 101.183ZM107.01 107.072L112.306 82.6926C112.453 82.0125 113.088 81.5562 113.776 81.6012L122.557 81.5849C123.333 81.5849 123.962 82.2017 123.962 82.9622C123.962 83.0601 123.952 83.1558 123.932 83.2479L123.935 83.2485L120.305 99.9947H132.055C132.834 99.9947 133.466 100.614 133.466 101.378C133.466 101.51 133.446 101.638 133.411 101.76L132.132 107.723C131.994 108.375 131.408 108.822 130.754 108.822V108.825H108.369C107.59 108.825 106.958 108.206 106.958 107.442C106.958 107.314 106.976 107.19 107.01 107.072ZM133.302 107.072L138.599 82.676C138.739 82.0263 139.325 81.5811 139.977 81.5816V81.5794H164.406C165.185 81.5794 165.817 82.1986 165.817 82.9622C165.817 83.0903 165.799 83.2144 165.766 83.3323L164.46 89.3464C164.32 89.9961 163.734 90.4413 163.083 90.4408V90.443H148.556L148.49 90.7511H160.611C161.39 90.7511 162.022 91.3703 162.022 92.1339C162.022 92.2628 162.004 92.3875 161.97 92.5056L160.666 98.4794C160.525 99.129 159.939 99.5743 159.288 99.5738V99.576H146.572L146.48 99.9947H160.51C161.289 99.9947 161.92 100.614 161.92 101.378C161.92 101.506 161.902 101.63 161.869 101.748L160.57 107.729C160.43 108.378 159.844 108.823 159.192 108.823V108.825H134.662C133.883 108.825 133.251 108.206 133.251 107.442C133.251 107.314 133.269 107.19 133.302 107.072ZM191.176 103.004C191.109 103.14 191.039 103.274 190.966 103.406C190.201 104.781 189.07 105.925 187.574 106.837C186.146 107.708 184.394 108.357 182.319 108.784C180.305 109.198 177.99 109.405 175.373 109.405C173.005 109.405 170.947 109.153 169.205 108.65C168.324 108.395 167.523 108.093 166.805 107.744C166.064 107.384 165.404 106.97 164.825 106.503L164.821 106.501L164.819 106.503C164.236 106.029 163.736 105.502 163.324 104.923C162.91 104.341 162.593 103.715 162.375 103.045L162.374 103.046C162.158 102.389 162.037 101.707 162.01 101.001C161.984 100.314 162.048 99.6103 162.2 98.889C162.336 98.2357 162.923 97.7852 163.578 97.7861V97.7816H169.047C168.945 97.736 168.845 97.6895 168.749 97.6422C168.722 97.6295 168.697 97.616 168.671 97.6019C168.243 97.3895 167.849 97.1566 167.491 96.9057C167.106 96.6355 166.753 96.3346 166.438 96.0041L166.435 96.0014L166.432 96.0041C166.122 95.6786 165.856 95.3379 165.634 94.9853C165.611 94.9482 165.59 94.9106 165.57 94.8724C165.364 94.5295 165.197 94.183 165.071 93.8348L165.059 93.801C164.931 93.4343 164.833 93.0424 164.764 92.6245C164.695 92.2053 164.661 91.7937 164.661 91.3889C164.661 90.9848 164.688 90.5755 164.74 90.162C164.789 89.7734 164.868 89.3619 164.976 88.9291C165.088 88.4794 165.233 88.0529 165.41 87.6508C165.588 87.2462 165.809 86.8397 166.07 86.4328C166.33 86.026 166.629 85.6399 166.964 85.2743C167.283 84.9261 167.655 84.5785 168.079 84.2322C168.493 83.8942 168.96 83.5776 169.478 83.2841L169.476 83.2817C169.986 82.9929 170.538 82.7294 171.128 82.4932C171.156 82.4821 171.185 82.4719 171.213 82.4628C171.774 82.2418 172.386 82.0413 173.047 81.8637C173.745 81.6765 174.47 81.5186 175.22 81.3913C175.994 81.2603 176.83 81.1623 177.728 81.0974C178.628 81.0324 179.57 81 180.553 81C182.948 81 184.999 81.2406 186.693 81.7216C187.561 81.9671 188.338 82.2603 189.027 82.5996C189.753 82.9584 190.384 83.3666 190.92 83.8234C190.943 83.8428 190.965 83.8627 190.986 83.8829C191.507 84.332 191.946 84.8224 192.301 85.3498C192.685 85.9181 192.973 86.5299 193.169 87.1812L193.188 87.2506C193.363 87.8557 193.465 88.4791 193.493 89.1213C193.523 89.7867 193.476 90.4601 193.354 91.1408C193.234 91.8125 192.638 92.286 191.965 92.2852L186.813 92.286C186.954 92.3358 187.091 92.3864 187.224 92.4379C187.258 92.4506 187.29 92.4647 187.322 92.4796C187.82 92.6782 188.272 92.8906 188.676 93.1165C189.137 93.3743 189.549 93.6525 189.907 93.9501C189.93 93.9689 189.952 93.988 189.973 94.0079C190.323 94.3008 190.625 94.6122 190.88 94.9385C191.163 95.3003 191.397 95.6936 191.582 96.1134C191.762 96.5208 191.895 96.9411 191.98 97.3723C192.01 97.5225 192.034 97.674 192.054 97.8267C192.163 97.7999 192.277 97.7858 192.393 97.7861V97.7816H197.862C197.76 97.7363 197.661 97.6898 197.564 97.6422C197.537 97.6295 197.512 97.616 197.487 97.6019C197.058 97.3895 196.664 97.1566 196.306 96.9057C195.921 96.6355 195.568 96.3346 195.253 96.0041L195.25 96.0014L195.247 96.0041C194.937 95.6786 194.671 95.3379 194.449 94.9853C194.426 94.9482 194.405 94.9106 194.385 94.8724C194.179 94.5295 194.012 94.183 193.886 93.8348L193.874 93.801C193.746 93.4343 193.648 93.0424 193.579 92.6245C193.51 92.2053 193.476 91.7937 193.476 91.3889C193.476 90.9848 193.503 90.5755 193.555 90.162C193.604 89.7734 193.683 89.3622 193.791 88.9291C193.903 88.4794 194.048 88.0529 194.225 87.6508C194.403 87.2462 194.624 86.8397 194.885 86.4328C195.145 86.026 195.444 85.6399 195.779 85.2743C196.098 84.9264 196.47 84.5785 196.894 84.2322C197.308 83.8942 197.775 83.5776 198.293 83.2841L198.292 83.2817C198.802 82.9926 199.353 82.7294 199.943 82.4932C199.971 82.4821 200 82.4719 200.028 82.4628C200.589 82.2418 201.201 82.0413 201.862 81.8637C202.56 81.6765 203.285 81.5186 204.035 81.3913C204.809 81.2603 205.645 81.1623 206.543 81.0974C207.443 81.0324 208.385 81 209.368 81C211.763 81 213.814 81.2406 215.508 81.7216C216.376 81.9671 217.153 82.2603 217.842 82.5996C218.568 82.9584 219.199 83.3666 219.735 83.8234C219.758 83.8428 219.78 83.8627 219.801 83.8829C220.322 84.332 220.761 84.8224 221.116 85.3498C221.5 85.9181 221.788 86.5299 221.984 87.1812L222.003 87.2506C222.178 87.8557 222.28 88.4791 222.308 89.1213C222.338 89.7867 222.291 90.4601 222.169 91.1408C222.049 91.8125 221.453 92.286 220.78 92.2852L215.628 92.286C215.769 92.3358 215.906 92.3864 216.039 92.4379C216.073 92.4506 216.106 92.4647 216.137 92.4796C216.635 92.6782 217.087 92.8906 217.491 93.1165C217.953 93.3743 218.364 93.6525 218.722 93.9501C218.745 93.9689 218.767 93.988 218.788 94.0079C219.138 94.3008 219.44 94.6122 219.695 94.9385C219.978 95.3003 220.212 95.6936 220.397 96.1134C220.577 96.5208 220.71 96.9411 220.795 97.3723C220.881 97.8073 220.924 98.2543 220.924 98.712C220.924 100.471 220.543 102.037 219.781 103.406C219.016 104.781 217.885 105.925 216.389 106.837C214.961 107.708 213.209 108.357 211.134 108.784C209.12 109.198 206.805 109.405 204.188 109.405C201.82 109.405 199.762 109.153 198.02 108.65C197.139 108.395 196.338 108.093 195.62 107.744C194.879 107.384 194.219 106.97 193.64 106.503L193.636 106.501L193.634 106.503C193.051 106.029 192.551 105.502 192.139 104.923C191.725 104.341 191.408 103.715 191.19 103.045L191.189 103.046L191.176 103.004ZM173.407 98.9587C173.417 99.0259 173.423 99.0945 173.423 99.1644C173.423 99.2579 173.413 99.3492 173.395 99.4374C173.383 99.5472 173.378 99.6512 173.379 99.7477C173.381 99.8655 173.392 99.9809 173.412 100.091L173.417 100.119L173.418 100.118C173.42 100.132 173.428 100.149 173.439 100.169C173.46 100.203 173.49 100.239 173.528 100.275L173.529 100.274C173.598 100.332 173.694 100.39 173.817 100.447C173.975 100.519 174.176 100.588 174.42 100.65L174.467 100.663C174.712 100.723 175.006 100.77 175.346 100.803C175.703 100.838 176.141 100.856 176.662 100.856C177.109 100.856 177.505 100.842 177.85 100.816C178.189 100.789 178.489 100.751 178.751 100.7L178.83 100.688C179.05 100.645 179.253 100.594 179.437 100.538C179.613 100.484 179.757 100.428 179.869 100.372L179.913 100.351L179.928 100.342C179.881 100.324 179.829 100.305 179.772 100.286C179.524 100.203 179.21 100.125 178.83 100.051C178.795 100.044 178.761 100.036 178.726 100.027L173.407 98.9587ZM182.794 91.286C182.759 91.1643 182.74 91.036 182.74 90.9032C182.74 90.7503 182.732 90.6266 182.718 90.5345C182.703 90.4405 182.679 90.3479 182.648 90.2591L182.638 90.2314L182.637 90.232C182.634 90.222 182.624 90.2074 182.611 90.1902C182.576 90.1476 182.529 90.1048 182.468 90.0625C182.388 90.0069 182.28 89.9524 182.145 89.9004C181.974 89.8343 181.777 89.7773 181.555 89.7317L181.545 89.7295L181.544 89.7317C181.295 89.6786 181.002 89.6388 180.666 89.6125C180.313 89.5845 179.901 89.571 179.432 89.571C179.043 89.571 178.693 89.5845 178.384 89.6111C178.083 89.6371 177.834 89.6714 177.64 89.7131L177.641 89.7154C177.43 89.7638 177.245 89.8177 177.087 89.8766L177.031 89.896C176.932 89.9344 176.854 89.9712 176.797 90.0055L176.798 90.0066L176.77 90.0246C176.859 90.0638 176.951 90.0995 177.047 90.1313L177.083 90.1438C177.197 90.1786 177.34 90.2179 177.516 90.2613C177.686 90.3033 177.877 90.3459 178.087 90.3863L178.136 90.3968L182.794 91.286ZM202.222 98.9587C202.232 99.0259 202.238 99.0945 202.238 99.1644C202.238 99.2579 202.228 99.3492 202.21 99.4374C202.198 99.5472 202.193 99.6512 202.194 99.7477C202.196 99.8655 202.207 99.9809 202.227 100.091L202.232 100.119L202.233 100.118C202.235 100.131 202.242 100.149 202.254 100.169C202.275 100.203 202.305 100.239 202.344 100.275L202.344 100.274C202.413 100.332 202.509 100.39 202.632 100.447C202.79 100.519 202.991 100.588 203.235 100.65L203.282 100.663C203.527 100.723 203.821 100.77 204.162 100.803C204.518 100.838 204.956 100.856 205.478 100.856C205.924 100.856 206.32 100.842 206.665 100.816C207.004 100.789 207.304 100.751 207.566 100.7L207.645 100.688C207.865 100.645 208.068 100.594 208.253 100.538C208.428 100.484 208.572 100.428 208.684 100.372L208.729 100.35L208.743 100.342C208.696 100.324 208.644 100.305 208.587 100.286C208.339 100.203 208.025 100.125 207.645 100.051C207.61 100.044 207.576 100.036 207.541 100.027L202.222 98.9587ZM211.609 91.286C211.574 91.1643 211.555 91.036 211.555 90.9032C211.555 90.7503 211.547 90.6266 211.533 90.5345C211.518 90.4405 211.495 90.3479 211.463 90.2591L211.453 90.2314L211.452 90.232C211.449 90.222 211.439 90.2074 211.426 90.1902C211.392 90.1476 211.344 90.1048 211.283 90.0625C211.203 90.0069 211.095 89.9524 210.96 89.9004C210.789 89.8343 210.592 89.7773 210.37 89.7317L210.36 89.7295L210.359 89.7317C210.11 89.6786 209.817 89.6388 209.481 89.6125C209.128 89.5845 208.716 89.571 208.247 89.571C207.858 89.571 207.508 89.5845 207.2 89.6111C206.898 89.6371 206.649 89.6714 206.455 89.7131L206.456 89.7154C206.245 89.7638 206.06 89.8177 205.902 89.8766L205.846 89.896C205.747 89.9344 205.669 89.9712 205.612 90.0055L205.613 90.0066L205.585 90.0246C205.674 90.0638 205.767 90.0995 205.862 90.1313L205.898 90.1438C206.012 90.1786 206.156 90.2179 206.331 90.2613C206.501 90.3033 206.692 90.3459 206.902 90.3863L206.951 90.3968L211.609 91.286ZM219.899 107.072L225.196 82.676C225.336 82.0263 225.922 81.5811 226.574 81.5816V81.5794H251.003C251.782 81.5794 252.414 82.1986 252.414 82.9622C252.414 83.0903 252.396 83.2144 252.362 83.3323L251.057 89.3464C250.917 89.9961 250.331 90.4413 249.679 90.4408V90.443H235.153L235.087 90.7511H247.208C247.987 90.7511 248.619 91.3703 248.619 92.1339C248.619 92.2628 248.601 92.3875 248.567 92.5056L247.262 98.4794C247.122 99.129 246.536 99.5743 245.885 99.5738V99.576H233.168L233.077 99.9947H247.106C247.885 99.9947 248.517 100.614 248.517 101.378C248.517 101.506 248.499 101.63 248.466 101.748L247.167 107.729C247.027 108.378 246.441 108.823 245.789 108.823V108.825H221.259C220.48 108.825 219.848 108.206 219.848 107.442C219.848 107.314 219.866 107.19 219.899 107.072ZM255.54 81.5794H271.457C272.744 81.5794 273.955 81.6521 275.086 81.7962C276.23 81.9414 277.261 82.1602 278.175 82.4498L278.18 82.4514L278.181 82.4498C279.113 82.7471 279.949 83.1069 280.689 83.5289C281.457 83.9667 282.12 84.4712 282.678 85.0412C283.247 85.6217 283.709 86.255 284.065 86.9392C284.418 87.619 284.671 88.3596 284.821 89.1595C284.962 89.9134 285.02 90.7024 284.994 91.5252C284.968 92.3402 284.862 93.1777 284.675 94.0372L284.033 96.9951L284.021 97.0462C283.841 97.871 283.599 98.6711 283.294 99.4443C282.981 100.235 282.604 100.993 282.161 101.715C281.709 102.459 281.184 103.147 280.587 103.781C280.56 103.81 280.532 103.838 280.503 103.864C279.916 104.475 279.272 105.032 278.572 105.531C278.541 105.553 278.509 105.574 278.476 105.593C277.759 106.097 276.975 106.543 276.123 106.932C275.228 107.342 274.273 107.688 273.261 107.971C272.234 108.258 271.12 108.473 269.921 108.615C268.738 108.755 267.478 108.825 266.142 108.825H250.225C249.446 108.825 248.815 108.206 248.815 107.442C248.815 107.314 248.833 107.19 248.866 107.072L254.163 82.676C254.303 82.0263 254.889 81.5811 255.54 81.5816V81.5794ZM262.145 99.9947H266.739C267.665 99.9947 268.462 99.891 269.118 99.6841L269.13 99.6805L269.129 99.6786C269.463 99.5765 269.76 99.4579 270.022 99.3235C270.281 99.1904 270.522 99.0342 270.744 98.8566L270.769 98.8367C270.966 98.6744 271.154 98.4877 271.331 98.2781C271.516 98.059 271.675 97.8322 271.804 97.6005C272.097 97.0761 272.314 96.484 272.455 95.8263L272.466 95.7804L272.881 93.785L272.877 93.7842C272.927 93.5416 272.959 93.3085 272.973 93.0872L272.975 93.0657C272.987 92.8483 272.985 92.6248 272.968 92.3966L272.965 92.3386C272.951 92.1865 272.919 92.0413 272.87 91.9038L272.853 91.8538C272.801 91.7207 272.73 91.591 272.641 91.4657L272.621 91.4367C272.538 91.3277 272.43 91.2246 272.3 91.1278C272.132 91.0033 271.92 90.8861 271.666 90.7765L271.661 90.7743L271.66 90.7765C271.412 90.6695 271.115 90.5885 270.771 90.534L270.766 90.5332C270.384 90.4726 269.927 90.443 269.396 90.443H264.219L262.145 99.9947Z" fill="#FEFEFE"/>
<ellipse opacity="0.5" cx="40.306" cy="15.4464" rx="40.306" ry="15.4464" transform="matrix(0.966634 -0.256162 0.261499 0.965204 207 118.648)" fill="url(#paint3_radial_558_252888)"/>
<path fill-rule="evenodd" clip-rule="evenodd" d="M223.204 136.917C222.863 136.95 222.533 136.873 222.214 136.685C222.007 136.562 221.805 136.388 221.612 136.163C221.415 135.936 221.268 135.694 221.171 135.441V135.437C221.059 135.145 221.016 134.852 221.04 134.558H221.041C221.056 134.339 221.092 134.082 221.149 133.788C221.2 133.527 221.276 133.207 221.375 132.831C221.486 132.409 221.582 132.061 221.662 131.785C221.746 131.494 221.855 131.142 221.986 130.727C222.1 130.367 222.21 130.04 222.315 129.747V129.742C222.402 129.501 222.492 129.269 222.586 129.046L222.694 128.609C222.739 128.436 222.781 128.28 222.819 128.142L222.82 128.142L222.912 127.808L222.915 127.809L222.969 127.605L223.022 127.402L223.133 127.243C223.145 127.226 223.127 127.241 223.152 127.184C223.207 127.059 223.262 126.923 223.316 126.778C223.388 126.586 223.447 126.415 223.493 126.268C223.542 126.11 223.587 125.948 223.628 125.783C223.665 125.633 223.703 125.489 223.736 125.366L223.919 124.722C224 124.44 224.082 124.16 224.165 123.883C224.224 123.686 224.322 123.368 224.46 122.925L224.775 121.916C224.939 121.397 225.038 121.087 225.091 120.922L225.378 120.024L225.379 120.024L225.638 119.203L225.824 118.6L225.928 118.26L225.973 118.1L226.06 117.962C226.123 117.862 226.182 117.756 226.238 117.646L226.239 117.647C226.282 117.562 226.319 117.476 226.349 117.39C226.402 117.241 226.435 117.147 226.448 117.107V117.103L226.483 116.994L226.521 116.84L226.156 116.915H226.152L225.62 117.021L225.031 117.139L224.463 117.254L224.463 117.255C224.31 117.285 224.16 117.319 224.012 117.356C223.896 117.385 223.804 117.411 223.736 117.433L223.655 117.461L223.54 117.478C223.186 117.532 222.875 117.565 222.609 117.577V117.577C222.285 117.593 222.01 117.58 221.785 117.541C221.253 117.449 220.872 117.18 220.644 116.737C220.464 116.386 220.429 115.985 220.54 115.535C220.606 115.268 220.712 115.027 220.857 114.813C221.006 114.594 221.195 114.403 221.423 114.242C221.611 114.11 221.82 113.995 222.048 113.899H222.053C222.25 113.816 222.477 113.739 222.732 113.669L222.732 113.668L223.151 113.546H223.16L223.683 113.396L223.682 113.395L224.247 113.232L224.246 113.231L224.781 113.074L224.854 113.056C225.01 113.02 225.363 112.934 225.834 112.82C226.204 112.73 226.47 112.665 226.641 112.622C226.919 112.552 227.174 112.49 227.4 112.439C227.622 112.388 227.882 112.333 228.177 112.274C228.47 112.215 228.767 112.157 229.064 112.102C229.509 112.02 229.861 111.957 230.135 111.91L230.135 111.912L231.013 111.749L231.76 111.609L231.76 111.608L232.44 111.48L232.518 111.472C232.593 111.462 232.706 111.456 232.856 111.453V111.453C232.965 111.45 233.13 111.448 233.347 111.446C233.552 111.445 233.767 111.445 233.988 111.447C234.223 111.449 234.455 111.453 234.678 111.458C234.953 111.464 235.186 111.478 235.376 111.497H235.38C235.576 111.518 235.75 111.546 235.9 111.582C236.193 111.615 236.451 111.664 236.672 111.729C236.986 111.82 237.255 111.947 237.48 112.11L237.485 112.114C237.724 112.288 237.924 112.506 238.084 112.768C238.225 112.999 238.331 113.26 238.403 113.551C238.461 113.774 238.49 113.966 238.49 114.127C238.49 114.529 238.352 114.859 238.076 115.117C237.955 115.229 237.769 115.362 237.519 115.514L237.444 115.559L237.36 115.594C237.06 115.718 236.808 115.813 236.605 115.878H236.6C236.334 115.963 236.106 116.016 235.916 116.039C235.719 116.061 235.512 116.065 235.298 116.048C235.096 116.032 234.89 115.999 234.681 115.95L234.398 115.884L234.18 115.696C234.159 115.678 234.142 115.664 234.13 115.656C234.113 115.645 234.096 115.635 234.078 115.625L234.077 115.628C234.08 115.63 234.081 115.632 234.077 115.631C233.991 115.616 233.895 115.606 233.792 115.602C233.639 115.596 233.443 115.596 233.204 115.602C232.999 115.607 232.726 115.62 232.385 115.638C232.107 115.699 231.833 115.753 231.562 115.8L231.508 115.81C231.45 116.036 231.367 116.283 231.261 116.551C231.147 116.838 231.015 117.135 230.866 117.44C230.814 117.641 230.759 117.832 230.703 118.012C230.633 118.234 230.556 118.452 230.472 118.664C230.434 118.761 230.405 118.844 230.383 118.914L230.462 119.29L230.18 119.599C230.123 119.737 230.07 119.875 230.021 120.013C229.988 120.108 229.916 120.32 229.798 120.673C229.721 120.903 229.633 121.171 229.537 121.471L228.973 123.23V123.234L228.707 124.058H228.702L228.47 124.773V124.777C228.42 124.929 228.359 125.113 228.287 125.323C228.216 125.533 228.177 125.646 228.169 125.666L228.133 125.746C228.063 125.893 227.982 126.088 227.891 126.33L227.89 126.329C227.796 126.579 227.698 126.868 227.595 127.193C227.472 127.581 227.33 128.005 227.169 128.465C227.034 128.851 226.837 129.396 226.58 130.092L226.553 130.166L226.539 130.195C226.457 130.365 226.369 130.569 226.276 130.805C226.195 131.011 226.083 131.315 225.942 131.717C225.802 132.114 225.69 132.448 225.607 132.714C225.506 133.034 225.421 133.326 225.351 133.591L225.346 133.604L225.04 134.702V134.707L224.832 135.442V135.447C224.769 135.666 224.708 135.845 224.649 135.983V135.987C224.511 136.309 224.32 136.545 224.072 136.694L224.07 136.691C223.907 136.789 223.719 136.857 223.508 136.891C223.419 136.905 223.318 136.914 223.204 136.917ZM228.484 115.274L228.642 114.729L230.601 114.468C230.584 114.57 230.563 114.68 230.54 114.801C230.56 114.798 230.58 114.796 230.601 114.793C231.065 114.739 231.608 114.643 232.228 114.506C232.958 114.464 233.495 114.45 233.838 114.464C234.181 114.478 234.425 114.521 234.568 114.591C234.712 114.661 234.84 114.743 234.95 114.839C235.26 114.911 235.537 114.933 235.78 114.905C236.023 114.876 236.4 114.757 236.909 114.545C237.086 114.438 237.208 114.353 237.274 114.291C237.341 114.229 237.341 114.072 237.274 113.819C237.186 113.461 237.025 113.198 236.793 113.029C236.56 112.861 236.19 112.753 235.68 112.704C235.459 112.643 235.116 112.607 234.651 112.596C234.186 112.585 233.755 112.581 233.356 112.584C232.958 112.587 232.726 112.592 232.659 112.6C232.659 112.6 232.432 112.643 231.979 112.728C231.525 112.814 230.977 112.916 230.335 113.034C229.56 113.168 228.918 113.286 228.409 113.389C227.9 113.492 227.408 113.604 226.932 113.724C226.456 113.845 225.853 113.991 225.123 114.163C224.768 114.269 224.398 114.378 224.01 114.488C223.623 114.598 223.307 114.689 223.064 114.761C222.643 114.875 222.322 115.01 222.101 115.166C221.88 115.322 221.736 115.534 221.669 115.803C221.581 116.16 221.686 116.364 221.985 116.416C222.284 116.468 222.743 116.448 223.363 116.353C223.562 116.287 223.85 116.215 224.226 116.139C224.602 116.062 224.99 115.985 225.388 115.906C225.786 115.827 226.096 115.763 226.317 115.716L227.945 115.364L228.484 115.274ZM228.484 115.274L228.476 115.301C228.365 115.423 228.299 115.555 228.277 115.699C228.255 115.843 228.199 115.952 228.111 116.027C228.111 116.114 228.072 116.195 227.994 116.269C227.917 116.343 227.878 116.434 227.878 116.542C227.878 116.629 227.867 116.745 227.845 116.888C227.823 117.032 227.745 117.155 227.612 117.257C227.59 117.346 227.535 117.516 227.447 117.765C227.358 118.013 227.225 118.278 227.048 118.559C227.004 118.716 226.904 119.043 226.749 119.538C226.594 120.033 226.412 120.608 226.202 121.262C225.991 121.915 225.781 122.58 225.571 123.255C225.36 123.931 225.183 124.521 225.039 125.026C224.896 125.531 224.801 125.872 224.757 126.051C224.669 126.409 224.552 126.78 224.409 127.166C224.265 127.552 224.16 127.791 224.093 127.886C224.071 127.975 224.021 128.16 223.944 128.441C223.866 128.721 223.783 129.04 223.695 129.397C223.518 129.808 223.319 130.363 223.097 131.061C222.876 131.76 222.677 132.445 222.5 133.116C222.322 133.788 222.223 134.298 222.201 134.648C222.179 134.911 222.278 135.17 222.5 135.427C222.721 135.683 222.92 135.801 223.097 135.78C223.274 135.781 223.396 135.761 223.462 135.721C223.529 135.681 223.612 135.487 223.712 135.139C223.811 134.791 223.983 134.18 224.226 133.305C224.381 132.723 224.585 132.07 224.84 131.346C225.095 130.622 225.311 130.076 225.488 129.708C225.931 128.507 226.262 127.557 226.484 126.859C226.705 126.16 226.904 125.627 227.081 125.26C227.125 125.146 227.22 124.869 227.363 124.429C227.507 123.99 227.673 123.476 227.862 122.89C228.049 122.304 228.238 121.718 228.426 121.132C228.614 120.546 228.78 120.05 228.924 119.643C229.068 119.235 229.162 119.007 229.206 118.959C229.184 118.853 229.245 118.618 229.389 118.254C229.533 117.89 229.66 117.485 229.771 117.038C230.102 116.37 230.313 115.841 230.402 115.451C230.456 115.211 230.502 114.994 230.54 114.801C230.116 114.855 229.903 114.933 229.903 115.037L228.484 115.274ZM233.788 132.613C233.5 132.646 233.273 132.619 233.108 132.53C232.941 132.44 232.737 132.312 232.493 132.146C232.072 131.761 231.774 131.378 231.597 130.997C231.42 130.617 231.364 130.238 231.431 129.861C231.506 129.656 231.691 128.482 231.663 128.337C231.619 128.169 231.707 127.779 231.929 127.167C232.15 126.556 232.427 125.97 232.759 125.411C232.892 125.178 233.091 124.868 233.356 124.479C233.622 124.09 233.915 123.697 234.236 123.302C234.557 122.907 234.85 122.585 235.116 122.337C235.669 121.817 236.156 121.424 236.577 121.158C236.997 120.892 237.451 120.676 237.938 120.511C238.425 120.345 238.763 120.252 238.951 120.23C239.139 120.208 239.399 120.351 239.731 120.66C240.24 120.818 240.611 121.034 240.843 121.311C241.075 121.588 241.225 122.015 241.291 122.593C241.358 123.236 241.308 123.985 241.142 124.84C240.976 125.694 240.45 126.791 239.565 128.132C239.012 128.977 238.503 129.617 238.038 130.051C237.573 130.485 237.02 130.923 236.378 131.367C235.913 131.725 235.492 131.996 235.116 132.181C234.74 132.366 234.297 132.51 233.788 132.613ZM236.975 128.791C237.507 128.144 237.933 127.541 238.254 126.983C238.575 126.425 238.879 125.727 239.167 124.891C239.255 124.642 239.31 124.337 239.333 123.977C239.355 123.616 239.349 123.281 239.316 122.97C239.283 122.659 239.2 122.49 239.067 122.462C238.801 122.341 238.48 122.33 238.104 122.428C237.728 122.526 237.318 122.785 236.876 123.206C236.19 123.85 235.592 124.619 235.083 125.514C234.574 126.409 234.076 127.416 233.589 128.536C233.257 129.356 233.185 129.988 233.373 130.432C233.561 130.877 233.971 130.992 234.601 130.777C235.232 130.562 236.023 129.901 236.975 128.791ZM245.441 130.277C245.109 130.316 244.805 130.151 244.528 129.782C244.252 129.413 244.053 128.915 243.931 128.289C243.809 127.664 243.77 127.001 243.814 126.301C243.814 125.607 243.853 125.044 243.931 124.612C244.008 124.18 244.091 123.753 244.18 123.33C244.246 123.192 244.285 123.079 244.296 122.991C244.307 122.903 244.329 122.759 244.363 122.561C244.396 122.361 244.468 122.027 244.578 121.559C244.667 121.18 244.755 120.866 244.844 120.617C244.932 120.368 245.021 120.195 245.109 120.097C245.22 119.954 245.364 119.856 245.541 119.803C245.718 119.75 245.895 119.745 246.072 119.79C246.249 119.834 246.393 119.937 246.504 120.097C246.637 120.19 246.709 120.426 246.72 120.805C246.731 121.183 246.703 121.577 246.637 121.986C246.57 122.395 246.471 122.694 246.338 122.883C246.294 122.996 246.244 123.285 246.189 123.746C246.133 124.209 246.078 124.693 246.023 125.198C245.967 125.703 245.906 126.112 245.84 126.423C245.774 126.822 245.812 127.132 245.956 127.354C246.1 127.575 246.377 127.548 246.786 127.273C247.196 126.997 247.744 126.332 248.43 125.275C248.894 124.57 249.249 123.997 249.492 123.557C249.736 123.116 249.929 122.708 250.073 122.333C250.217 121.959 250.366 121.556 250.521 121.126C250.632 120.766 250.737 120.466 250.837 120.227C250.936 119.987 251.03 119.83 251.119 119.754C251.274 119.628 251.457 119.563 251.667 119.56C251.877 119.558 252.115 119.627 252.381 119.77C252.646 119.999 252.779 120.293 252.779 120.651C252.779 121.009 252.646 121.464 252.381 122.015C252.203 122.383 252.032 122.848 251.866 123.41C251.7 123.971 251.567 124.535 251.468 125.1C251.368 125.665 251.318 126.12 251.318 126.468C251.318 126.901 251.379 127.15 251.501 127.211C251.622 127.273 251.772 127.293 251.949 127.273C252.215 127.242 252.536 127.107 252.912 126.868C253.288 126.628 253.709 126.243 254.173 125.712C254.373 125.493 254.616 125.177 254.904 124.764C255.192 124.351 255.474 123.917 255.751 123.461C256.027 123.006 256.26 122.604 256.448 122.257C256.636 121.91 256.73 121.693 256.73 121.606C256.73 121.476 256.83 121.279 257.029 121.018C257.162 120.829 257.267 120.681 257.344 120.574C257.422 120.467 257.571 120.347 257.792 120.213C257.97 120.105 258.124 120.071 258.257 120.11C258.39 120.148 258.534 120.245 258.689 120.401C258.799 120.475 258.86 120.598 258.872 120.77C258.883 120.942 258.888 121.159 258.888 121.419C258.822 121.666 258.716 121.987 258.572 122.383C258.429 122.78 258.274 123.156 258.108 123.512C257.942 123.867 257.804 124.117 257.693 124.26C257.604 124.357 257.449 124.532 257.228 124.786C257.007 125.039 256.807 125.307 256.63 125.588C256.077 126.303 255.679 126.773 255.435 126.996C255.192 127.22 254.981 127.429 254.804 127.623C254.34 128.133 253.853 128.531 253.343 128.819C252.834 129.106 252.353 129.276 251.899 129.329C251.445 129.382 251.063 129.318 250.754 129.137C250.068 128.87 249.725 128.324 249.725 127.5C249.725 127.326 249.697 127.172 249.642 127.038C249.586 126.903 249.559 126.836 249.559 126.836C249.47 126.846 249.354 126.881 249.21 126.941C249.066 127.001 248.917 127.171 248.762 127.449C248.562 127.841 248.247 128.252 247.815 128.682C247.384 129.112 246.947 129.478 246.504 129.779C246.061 130.08 245.707 130.246 245.441 130.277ZM266.325 122.992C265.838 123.201 265.307 123.328 264.732 123.373C264.156 123.419 263.68 123.334 263.304 123.117C262.883 122.993 262.607 123.052 262.474 123.295C262.341 123.538 262.219 124.1 262.109 124.981C262.02 125.816 262.087 126.41 262.308 126.764C262.529 127.118 262.828 127.305 263.204 127.327C263.647 127.362 263.996 127.381 264.25 127.384C264.505 127.386 264.82 127.257 265.196 126.997C265.551 126.738 265.772 126.588 265.86 126.545C265.949 126.502 266.021 126.45 266.076 126.39C266.131 126.329 266.27 126.177 266.491 125.934C266.646 125.764 266.768 125.636 266.856 125.55C266.945 125.464 267.045 125.414 267.155 125.401C267.266 125.389 267.366 125.426 267.454 125.513C267.543 125.6 267.631 125.66 267.72 125.693C267.941 125.668 267.991 125.792 267.869 126.067C267.747 126.341 267.51 126.678 267.155 127.077C266.801 127.476 266.381 127.856 265.894 128.217C265.429 128.662 264.892 128.952 264.283 129.088C263.675 129.224 263.083 129.201 262.507 129.019C261.932 128.837 261.456 128.507 261.08 128.03C260.703 127.597 260.46 127.077 260.349 126.472C260.238 125.867 260.227 125.06 260.316 124.051C260.382 123.197 260.659 122.314 261.146 121.4C261.633 120.486 262.225 119.652 262.922 118.898C263.619 118.145 264.311 117.597 264.997 117.257C265.329 117.001 265.611 116.865 265.844 116.849C266.076 116.833 266.436 116.818 266.923 116.805C267.432 116.81 267.814 116.863 268.068 116.964C268.323 117.064 268.528 117.214 268.683 117.413C269.015 117.7 269.236 117.994 269.347 118.295C269.457 118.597 269.513 118.899 269.513 119.204C269.424 119.691 269.098 120.31 268.533 121.059C267.969 121.808 267.233 122.452 266.325 122.992ZM265.86 121.322C266.104 121.185 266.359 120.998 266.624 120.761C266.89 120.524 267.117 120.269 267.304 119.998C267.493 119.727 267.587 119.504 267.587 119.33C267.587 119.027 267.443 118.789 267.155 118.616C266.868 118.444 266.436 118.467 265.86 118.686C265.617 118.779 265.34 118.969 265.03 119.254C264.72 119.54 264.427 119.851 264.151 120.187C263.874 120.523 263.653 120.82 263.487 121.078C263.32 121.336 263.26 121.484 263.304 121.523C263.37 121.623 263.559 121.683 263.868 121.701C264.178 121.719 264.527 121.694 264.914 121.627C265.301 121.56 265.617 121.459 265.86 121.322ZM274.592 115.682C274.769 115.531 274.985 115.452 275.24 115.444C275.494 115.436 275.71 115.508 275.887 115.661C276.131 115.828 276.169 116.165 276.003 116.673C275.837 117.18 275.5 117.984 274.991 119.085C274.725 119.702 274.526 120.164 274.393 120.473C274.26 120.781 274.205 120.961 274.227 121.013C274.249 121.065 274.349 121.026 274.526 120.897C274.659 120.642 274.902 120.337 275.256 119.982C275.61 119.626 275.987 119.273 276.385 118.923C276.784 118.572 277.16 118.257 277.514 117.977C277.868 117.697 278.112 117.517 278.245 117.437C278.422 117.307 278.626 117.191 278.859 117.088C279.091 116.985 279.252 116.907 279.34 116.853C279.849 116.555 280.369 116.407 280.901 116.411C281.432 116.414 281.764 116.57 281.896 116.88C281.919 117.051 281.991 117.173 282.112 117.246C282.234 117.318 282.295 117.354 282.295 117.354C282.383 117.344 282.433 117.371 282.444 117.434C282.455 117.498 282.461 117.53 282.461 117.53C282.461 117.682 282.345 117.788 282.112 117.847C281.88 117.907 281.587 117.969 281.232 118.032C280.945 118.087 280.69 118.171 280.469 118.283C280.248 118.396 279.982 118.535 279.672 118.702C278.831 119.277 278.029 119.837 277.265 120.382C276.501 120.927 275.765 121.62 275.057 122.462C274.902 122.654 274.747 122.878 274.592 123.135C274.437 123.391 274.271 123.671 274.094 123.974C273.984 124.095 273.873 124.346 273.762 124.728C273.652 125.11 273.557 125.474 273.48 125.819C273.402 126.164 273.364 126.369 273.364 126.435C273.364 126.435 273.331 126.541 273.264 126.755C273.198 126.969 273.087 127.183 272.932 127.396C272.667 127.774 272.445 127.973 272.268 127.994C272.091 128.015 271.825 127.872 271.471 127.566C271.272 127.438 271.134 127.302 271.056 127.159C270.979 127.016 270.973 126.724 271.04 126.282C271.106 125.667 271.195 125.12 271.305 124.641C271.416 124.161 271.549 123.609 271.704 122.983C271.748 122.718 271.875 122.258 272.086 121.604C272.296 120.951 272.556 120.237 272.866 119.463C273.176 118.689 273.486 117.954 273.795 117.256C274.105 116.558 274.371 116.033 274.592 115.682ZM234.078 115.625L234.056 115.614L234.077 115.628L234.078 115.625ZM234.053 115.612L234.049 115.608C234.032 115.6 234.041 115.605 234.053 115.612ZM233.925 133.746C233.686 133.774 233.465 133.776 233.261 133.751C233.005 133.719 232.768 133.645 232.552 133.529C232.415 133.456 232.3 133.39 232.206 133.331V133.326C232.033 133.219 231.912 133.14 231.828 133.083L231.769 133.043L231.701 132.98C231.442 132.744 231.218 132.504 231.029 132.262C230.83 132.006 230.667 131.742 230.54 131.47C230.403 131.176 230.313 130.881 230.271 130.588C230.226 130.28 230.23 129.973 230.283 129.67L230.302 129.563L230.333 129.478C230.349 129.436 230.395 129.164 230.438 128.881C230.473 128.651 230.532 128.604 230.52 128.543L230.521 128.542C230.473 128.298 230.487 128.008 230.563 127.673C230.62 127.418 230.71 127.123 230.832 126.788C230.954 126.45 231.092 126.117 231.246 125.792C231.396 125.474 231.563 125.161 231.744 124.853L231.744 124.853C231.809 124.738 231.903 124.586 232.024 124.396C232.125 124.24 232.247 124.056 232.391 123.845C232.542 123.625 232.691 123.415 232.838 123.219C232.997 123.005 233.16 122.796 233.326 122.593C233.483 122.399 233.651 122.204 233.832 122.006C234.009 121.811 234.171 121.646 234.315 121.512V121.512C234.605 121.24 234.886 120.993 235.159 120.773C235.444 120.543 235.708 120.351 235.949 120.198C236.195 120.042 236.455 119.899 236.727 119.77C236.982 119.649 237.261 119.537 237.56 119.435C237.854 119.335 238.082 119.263 238.242 119.219C238.473 119.155 238.665 119.114 238.814 119.097C239.158 119.056 239.505 119.133 239.856 119.326C240.006 119.409 240.163 119.518 240.328 119.654C240.565 119.742 240.785 119.845 240.988 119.964C241.287 120.139 241.538 120.347 241.74 120.588C241.947 120.834 242.111 121.129 242.23 121.47L242.231 121.469C242.332 121.757 242.405 122.091 242.448 122.468V122.482C242.488 122.868 242.493 123.278 242.465 123.709C242.437 124.128 242.377 124.576 242.285 125.049C242.184 125.569 241.98 126.148 241.675 126.786C241.388 127.384 241.01 128.039 240.543 128.747L240.544 128.747C240.256 129.188 239.969 129.587 239.684 129.946C239.39 130.314 239.108 130.625 238.839 130.876C238.589 131.11 238.311 131.348 238.007 131.589L238.002 131.594C237.713 131.823 237.407 132.05 237.083 132.275C236.852 132.452 236.608 132.624 236.351 132.79C236.102 132.95 235.864 133.087 235.635 133.199C235.381 133.324 235.124 133.429 234.866 133.512L234.865 133.508C234.596 133.596 234.314 133.669 234.02 133.729L233.925 133.746ZM236.069 128.077C236.321 127.77 236.544 127.48 236.737 127.207C236.939 126.921 237.107 126.661 237.243 126.425C237.374 126.197 237.511 125.92 237.653 125.595C237.796 125.267 237.934 124.911 238.065 124.53L238.069 124.516C238.088 124.463 238.108 124.383 238.127 124.275L238.128 124.276C238.149 124.155 238.164 124.033 238.172 123.91C238.178 123.809 238.182 123.715 238.183 123.63L238.143 123.655L238.142 123.654C238.003 123.743 237.851 123.866 237.686 124.022L237.682 124.027C237.383 124.308 237.101 124.618 236.838 124.957C236.569 125.303 236.322 125.673 236.098 126.067C235.86 126.485 235.619 126.942 235.375 127.436C235.134 127.922 234.895 128.438 234.659 128.982L234.657 128.981C234.568 129.205 234.506 129.404 234.47 129.58C234.598 129.502 234.746 129.393 234.912 129.254C235.262 128.961 235.649 128.569 236.071 128.079L236.069 128.077ZM245.578 131.411C245.168 131.459 244.775 131.381 244.4 131.178C244.099 131.015 243.829 130.773 243.591 130.456C243.393 130.191 243.224 129.887 243.088 129.547C242.963 129.233 242.862 128.885 242.788 128.504V128.499C242.718 128.139 242.672 127.768 242.65 127.385C242.629 127.031 242.629 126.669 242.65 126.301H242.649C242.649 125.949 242.66 125.609 242.683 125.283C242.705 124.953 242.739 124.663 242.783 124.416C242.805 124.295 242.846 124.079 242.909 123.758C242.944 123.574 242.989 123.355 243.042 123.102L243.069 122.971L243.128 122.848L243.146 122.808L243.169 122.652L243.174 122.639L243.215 122.382V122.378C243.235 122.257 243.265 122.107 243.303 121.928C243.343 121.743 243.39 121.535 243.445 121.304C243.486 121.13 243.535 120.941 243.591 120.74V120.735C243.642 120.555 243.694 120.39 243.747 120.242C243.805 120.078 243.869 119.927 243.939 119.791C244.026 119.621 244.118 119.479 244.215 119.367C244.334 119.221 244.475 119.093 244.635 118.984V118.979C244.803 118.865 244.991 118.777 245.2 118.714H245.204C245.392 118.658 245.584 118.627 245.78 118.622C245.984 118.617 246.177 118.638 246.359 118.683C246.591 118.741 246.803 118.839 246.996 118.976L247.001 118.981C247.136 119.077 247.257 119.19 247.364 119.319C247.551 119.502 247.687 119.735 247.773 120.018C247.836 120.225 247.872 120.477 247.881 120.774C247.888 121.013 247.883 121.243 247.868 121.46C247.853 121.679 247.824 121.914 247.784 122.164C247.741 122.435 247.685 122.67 247.619 122.869C247.563 123.038 247.497 123.191 247.421 123.328L247.415 123.373C247.394 123.489 247.371 123.658 247.345 123.876L247.262 124.585H247.261L247.212 125.023C247.29 124.909 247.369 124.789 247.451 124.664L247.455 124.659C247.67 124.334 247.869 124.023 248.051 123.728C248.198 123.49 248.337 123.253 248.468 123.017C248.579 122.815 248.678 122.624 248.763 122.444V122.439C248.856 122.243 248.93 122.074 248.985 121.932C249.063 121.728 249.135 121.539 249.2 121.362C249.245 121.24 249.313 121.055 249.406 120.796L249.406 120.796C249.464 120.607 249.523 120.428 249.581 120.261C249.622 120.145 249.683 119.989 249.763 119.798C249.835 119.623 249.908 119.475 249.979 119.355L249.976 119.353C250.084 119.171 250.213 119.017 250.359 118.893L250.372 118.88C250.554 118.732 250.756 118.618 250.976 118.54H250.981C251.192 118.465 251.417 118.426 251.653 118.423C251.882 118.42 252.11 118.451 252.335 118.517C252.526 118.573 252.726 118.658 252.936 118.77L253.064 118.839L253.15 118.913C253.41 119.137 253.608 119.401 253.745 119.703L253.741 119.704C253.877 120.005 253.945 120.32 253.945 120.651C253.945 121.176 253.774 121.793 253.432 122.502C253.358 122.657 253.284 122.833 253.212 123.028C253.131 123.246 253.054 123.48 252.982 123.727C252.91 123.969 252.841 124.23 252.776 124.508C252.717 124.758 252.663 125.02 252.615 125.292C252.588 125.445 252.565 125.586 252.547 125.714C252.601 125.669 252.658 125.619 252.717 125.565C252.896 125.401 253.088 125.202 253.29 124.971L253.308 124.953C253.371 124.885 253.461 124.774 253.577 124.623C253.692 124.473 253.815 124.306 253.943 124.121C254.109 123.883 254.245 123.682 254.353 123.517C254.502 123.287 254.636 123.074 254.754 122.881C254.839 122.74 254.963 122.529 255.12 122.26C255.197 122.125 255.297 121.947 255.419 121.722L255.421 121.722C255.492 121.591 255.545 121.486 255.58 121.41C255.629 121.081 255.801 120.722 256.095 120.335L256.097 120.336C256.231 120.146 256.331 120.004 256.397 119.914C256.494 119.781 256.62 119.651 256.777 119.524V119.52C256.876 119.44 257.011 119.348 257.182 119.244C257.382 119.123 257.584 119.04 257.786 118.995C258.064 118.934 258.331 118.941 258.59 119.016C258.77 119.069 258.948 119.155 259.125 119.274C259.241 119.353 259.355 119.446 259.468 119.554C259.637 119.691 259.769 119.856 259.865 120.049V120.053C259.961 120.249 260.017 120.464 260.032 120.699C260.036 120.761 260.041 120.866 260.045 121.011L260.117 120.873C260.392 120.357 260.686 119.877 260.999 119.437C261.311 118.998 261.666 118.563 262.062 118.135C262.458 117.707 262.849 117.34 263.235 117.035C263.608 116.74 263.984 116.493 264.363 116.296C264.556 116.155 264.75 116.036 264.944 115.943L264.943 115.941C265.222 115.807 265.496 115.73 265.762 115.711C265.845 115.705 266.006 115.697 266.244 115.688C266.406 115.681 266.621 115.674 266.891 115.667H266.932C267.249 115.67 267.522 115.688 267.751 115.72C268.042 115.76 268.294 115.822 268.505 115.906L268.505 115.908C268.723 115.994 268.923 116.104 269.105 116.236H269.109C269.267 116.352 269.411 116.486 269.54 116.638C269.732 116.813 269.898 116.992 270.035 117.175C270.209 117.406 270.344 117.652 270.44 117.911C270.517 118.122 270.575 118.334 270.614 118.548C270.657 118.782 270.678 119.001 270.678 119.204V119.279L270.655 119.404C270.59 119.764 270.449 120.149 270.235 120.556C270.044 120.916 269.788 121.31 269.467 121.737C269.14 122.17 268.762 122.576 268.332 122.952C267.912 123.32 267.443 123.658 266.926 123.965L266.849 124.011L266.79 124.036C266.487 124.166 266.168 124.271 265.835 124.351C265.5 124.431 265.162 124.485 264.823 124.511C264.442 124.542 264.078 124.526 263.733 124.464C263.61 124.441 263.49 124.413 263.374 124.379C263.338 124.582 263.302 124.829 263.265 125.119L263.263 125.119C263.204 125.686 263.217 126.036 263.301 126.17L263.313 126.19C263.567 126.21 263.748 126.223 263.858 126.229C264.024 126.238 264.15 126.244 264.235 126.245L264.233 126.24C264.229 126.239 264.228 126.237 264.231 126.236C264.313 126.202 264.405 126.151 264.505 126.083L264.504 126.082C264.69 125.946 264.845 125.836 264.968 125.753C265.09 125.67 265.194 125.605 265.277 125.559L265.626 125.176L265.847 124.934H265.852C265.952 124.829 266.019 124.76 266.037 124.742C266.168 124.614 266.314 124.51 266.474 124.431C266.648 124.345 266.831 124.29 267.019 124.268H267.023C267.266 124.24 267.5 124.268 267.727 124.353L267.727 124.354C267.883 124.413 268.026 124.496 268.157 124.602C268.215 124.618 268.271 124.638 268.326 124.661C268.546 124.755 268.724 124.899 268.862 125.092C268.987 125.267 269.063 125.461 269.089 125.671V125.676C269.12 125.936 269.069 126.219 268.934 126.522L268.933 126.521C268.839 126.732 268.713 126.95 268.555 127.172C268.402 127.39 268.227 127.609 268.034 127.827L268.032 127.825C267.633 128.274 267.17 128.697 266.643 129.091C266.352 129.361 266.038 129.587 265.703 129.768C265.343 129.962 264.955 130.107 264.538 130.2C264.137 130.289 263.736 130.326 263.337 130.311C262.935 130.295 262.539 130.226 262.152 130.103C261.748 129.975 261.38 129.797 261.049 129.568C260.718 129.338 260.421 129.058 260.16 128.726L260.161 128.725C259.917 128.438 259.716 128.125 259.558 127.789C259.397 127.443 259.279 127.071 259.206 126.673H259.202C259.139 126.327 259.103 125.911 259.097 125.426C259.091 124.978 259.109 124.507 259.15 124.014C259.061 124.203 258.978 124.368 258.9 124.508L258.904 124.51C258.818 124.666 258.722 124.812 258.617 124.947L258.562 125.018L258.393 125.205L258.393 125.205L258.111 125.526C258.022 125.628 257.935 125.737 257.85 125.85L257.848 125.848C257.771 125.952 257.695 126.064 257.618 126.186L257.594 126.224L257.555 126.275C257.264 126.651 257.015 126.961 256.81 127.203C256.573 127.482 256.38 127.691 256.232 127.827C256.114 127.935 256.011 128.033 255.924 128.119C255.847 128.195 255.764 128.282 255.674 128.382H255.669C255.123 128.982 254.54 129.456 253.921 129.805C253.27 130.172 252.641 130.392 252.036 130.462C251.357 130.541 250.756 130.44 250.234 130.157C249.697 129.93 249.283 129.586 248.994 129.125L248.988 129.116C248.88 129.239 248.765 129.36 248.644 129.481C248.404 129.72 248.161 129.942 247.92 130.145C247.66 130.362 247.409 130.553 247.169 130.716C246.91 130.893 246.655 131.04 246.407 131.156V131.16C246.117 131.296 245.84 131.38 245.578 131.411ZM246.09 126.36L246.088 126.36L246.089 126.361L246.09 126.36ZM264.235 126.245L264.259 126.246H264.264C264.28 126.246 264.245 126.243 264.233 126.24L264.235 126.245ZM270.748 128.463C270.612 128.369 270.494 128.273 270.394 128.176C270.243 128.028 270.121 127.867 270.027 127.695V127.69C269.904 127.463 269.84 127.182 269.833 126.851C269.829 126.632 269.848 126.387 269.888 126.117H269.888C269.92 125.83 269.961 125.536 270.009 125.236V125.232C270.057 124.932 270.112 124.651 270.172 124.391C270.262 123.999 270.326 123.727 270.354 123.608L270.562 122.765C270.594 122.584 270.643 122.375 270.708 122.14C270.769 121.921 270.858 121.628 270.975 121.265C271.093 120.898 271.215 120.541 271.341 120.195C271.462 119.863 271.61 119.48 271.782 119.048C271.918 118.709 272.075 118.328 272.256 117.9C272.42 117.509 272.579 117.142 272.73 116.801C272.896 116.428 273.047 116.105 273.184 115.835C273.329 115.55 273.469 115.299 273.604 115.084L273.699 114.934L273.832 114.821C274.026 114.656 274.241 114.53 274.477 114.443C274.702 114.36 274.947 114.314 275.208 114.306C275.768 114.289 276.252 114.455 276.657 114.804L276.656 114.805C277.003 115.08 277.202 115.45 277.255 115.914C277.285 116.176 277.26 116.466 277.179 116.783L277.261 116.722C277.389 116.627 277.5 116.55 277.598 116.489C277.71 116.409 277.827 116.335 277.948 116.266C278.09 116.186 278.234 116.113 278.38 116.048L278.634 115.935L278.639 115.93C278.678 115.911 278.707 115.896 278.725 115.885L278.743 115.876C279.079 115.679 279.428 115.529 279.789 115.427L279.789 115.426C280.156 115.321 280.528 115.27 280.905 115.273C281.909 115.278 282.584 115.638 282.929 116.352L282.959 116.367L282.958 116.367C283.314 116.559 283.523 116.851 283.592 117.242L283.608 117.338L283.627 117.442V117.53C283.627 117.935 283.473 118.279 283.166 118.558C282.965 118.741 282.712 118.872 282.408 118.95C282.265 118.987 282.115 119.021 281.959 119.054C281.862 119.074 281.692 119.106 281.455 119.149L281.455 119.152C281.351 119.172 281.264 119.194 281.194 119.216C281.137 119.235 281.074 119.262 281.006 119.297H281.002C280.82 119.389 280.71 119.445 280.65 119.477L280.265 119.684C279.953 119.898 279.566 120.166 279.114 120.482C278.799 120.702 278.408 120.978 277.948 121.306L277.946 121.303C277.617 121.538 277.283 121.814 276.946 122.132C276.61 122.448 276.283 122.795 275.966 123.17L275.968 123.171C275.894 123.262 275.834 123.341 275.787 123.41L275.79 123.412C275.72 123.514 275.654 123.615 275.594 123.715L275.356 124.111V124.115C274.982 124.744 275.193 124.382 275.1 124.54L275.039 124.645L274.989 124.7L274.995 124.703C274.998 124.701 275 124.701 274.998 124.704C274.963 124.785 274.924 124.898 274.882 125.041L274.881 125.04C274.84 125.184 274.792 125.36 274.738 125.568L274.737 125.568C274.696 125.727 274.656 125.891 274.618 126.06L274.614 126.064C274.581 126.208 274.555 126.333 274.536 126.436C274.534 126.447 274.532 126.441 274.531 126.435L274.53 126.435C274.53 126.423 274.53 126.429 274.531 126.435L274.53 126.435V126.589L274.475 126.765L274.375 127.085C274.321 127.262 274.252 127.43 274.17 127.589V127.594C274.093 127.742 273.996 127.896 273.879 128.057L273.879 128.056C273.698 128.312 273.524 128.516 273.355 128.668C273.059 128.935 272.742 129.089 272.405 129.128C272.072 129.166 271.728 129.091 271.376 128.902L271.377 128.901C271.174 128.791 270.964 128.645 270.748 128.463ZM274.989 124.7L274.959 124.732C274.931 124.763 274.981 124.712 274.995 124.703L274.989 124.7Z" fill="#26FF54"/>
<path d="M153 26H211L275 49H89L153 26Z" fill="#0B2A41"/>
<path fill-rule="evenodd" clip-rule="evenodd" d="M182 0L186 13H178L182 0H182Z" fill="#26FF54"/>
<path fill-rule="evenodd" clip-rule="evenodd" d="M195 19.4999V26H169V19.4999C169 15.9247 172.352 13 176.45 13H187.55C191.648 13 195 15.9247 195 19.4999Z" fill="url(#paint4_linear_558_252888)"/>
<path fill-rule="evenodd" clip-rule="evenodd" d="M247 45H202.725L196.082 30H209.964L247 45ZM197.267 45H166.733L173.376 30H190.624L197.267 45ZM161.275 45H117L154.036 30H167.918L161.275 45Z" fill="url(#paint5_linear_558_252888)"/>
<rect x="53" y="65" width="258" height="6" fill="#000717"/>
<defs>
<linearGradient id="paint0_linear_558_252888" x1="182" y1="99" x2="182" y2="119" gradientUnits="userSpaceOnUse">
<stop stop-color="#019A21"/>
<stop offset="1" stop-color="#12D73C"/>
</linearGradient>
<linearGradient id="paint1_linear_558_252888" x1="182" y1="49" x2="182" y2="65" gradientUnits="userSpaceOnUse">
<stop stop-color="#019A21"/>
<stop offset="1" stop-color="#12D73C"/>
</linearGradient>
<radialGradient id="paint2_radial_558_252888" cx="0" cy="0" r="1" gradientUnits="userSpaceOnUse" gradientTransform="translate(174.5 94.6094) rotate(90) scale(13.5 107.5)">
<stop stop-color="#26FF54"/>
<stop offset="1" stop-color="#24EC4F" stop-opacity="0"/>
</radialGradient>
<radialGradient id="paint3_radial_558_252888" cx="0" cy="0" r="1" gradientUnits="userSpaceOnUse" gradientTransform="translate(40.306 15.4464) rotate(90) scale(15.4464 40.306)">
<stop stop-color="#26FF54"/>
<stop offset="1" stop-color="#26FF54" stop-opacity="0"/>
</radialGradient>
<linearGradient id="paint4_linear_558_252888" x1="182" y1="13" x2="182" y2="26" gradientUnits="userSpaceOnUse">
<stop stop-color="#019A21"/>
<stop offset="1" stop-color="#12D73C"/>
</linearGradient>
<linearGradient id="paint5_linear_558_252888" x1="184.248" y1="31.299" x2="184.254" y2="61.3624" gradientUnits="userSpaceOnUse">
<stop stop-color="#26FF54"/>
<stop offset="1" stop-color="#FEFEFE"/>
</linearGradient>
</defs>
</svg>
