<svg width="48" height="48" viewBox="0 0 48 48" fill="none" xmlns="http://www.w3.org/2000/svg">
<path d="M39.0487 24C39.0487 32.3112 32.3112 39.0487 24 39.0487C15.6888 39.0487 8.95129 32.3112 8.95129 24C8.95129 15.6888 15.6888 8.95129 24 8.95129C32.3112 8.95129 39.0487 15.6888 39.0487 24Z" fill="#AA4B23" stroke="#FBE3A5" stroke-width="1.90258" stroke-miterlimit="22.9256"/>
<path fill-rule="evenodd" clip-rule="evenodd" d="M22.8013 25.7724V22.3847C22.8013 21.7072 23.3224 21.186 24 21.186C24.6775 21.186 25.1987 21.7072 25.1987 22.3847V24.5737V27.2316V29.8896C25.1987 30.5671 24.6775 31.0883 24 31.0883C23.3224 31.0883 22.8013 30.5671 22.8013 29.8896V27.2316V25.7202V25.7724Z" fill="#FBE3A5"/>
<path d="M24 19.3095C24.662 19.3095 25.1987 18.7728 25.1987 18.1108C25.1987 17.4488 24.662 16.9121 24 16.9121C23.3379 16.9121 22.8013 17.4488 22.8013 18.1108C22.8013 18.7728 23.3379 19.3095 24 19.3095Z" fill="#FBE3A5"/>
</svg>
