<svg width="66" height="20" viewBox="0 0 66 20" fill="none" xmlns="http://www.w3.org/2000/svg">
<path d="M55.5783 19.1566V11.4481L48.9207 0.843262H53.2159L57.5111 8.09562L61.6933 0.843262H65.9094L59.2518 11.4709V19.1566H55.5783Z" fill="#FBE3A5"/>
<path d="M50.1186 19.1566H46.1625L44.5913 14.9831H37.3121L35.8087 19.1566H31.9204L38.9736 0.843262H42.8619L50.1412 19.1566H50.1186ZM43.3932 11.8928L40.8726 5.11941L38.4198 11.8928H43.3932Z" fill="#FBE3A5"/>
<path d="M17.1133 19.1568V0.991699H20.7868V16.0666H29.8859V19.1568H17.1133Z" fill="#FBE3A5"/>
<path d="M0.0905762 19.1566V0.843262H5.96826C8.195 0.843262 9.64181 0.934486 10.32 1.11694C11.3599 1.39061 12.2303 1.99497 12.9311 2.90722C13.6319 3.83087 13.9823 5.01679 13.9823 6.47638C13.9823 7.60528 13.7788 8.54034 13.3832 9.31575C12.9763 10.0798 12.4676 10.6841 11.8459 11.1288C11.2243 11.5622 10.5913 11.8586 9.947 11.9955C9.07665 12.1665 7.81069 12.2577 6.14911 12.2577H3.76413V19.168H0.0905762V19.1566ZM3.76413 3.93349V9.1561H5.7648C7.20031 9.1561 8.16109 9.05348 8.64713 8.87103C9.13317 8.67717 9.51748 8.38069 9.78875 7.97018C10.06 7.55967 10.207 7.09215 10.207 6.5448C10.207 5.87202 10.0148 5.32467 9.63051 4.89135C9.2462 4.45804 8.76016 4.18436 8.16109 4.07033C7.72026 3.99051 6.84992 3.9449 5.52744 3.9449H3.76413V3.93349Z" fill="#FBE3A5"/>
</svg>
