<svg width="48" height="48" viewBox="0 0 48 48" fill="none" xmlns="http://www.w3.org/2000/svg">
<path d="M39.0512 24C39.0512 32.3125 32.3125 39.0512 24 39.0512C15.6875 39.0512 8.94882 32.3125 8.94882 24C8.94882 15.6875 15.6875 8.94882 24 8.94882C32.3125 8.94882 39.0512 15.6875 39.0512 24Z" fill="#AA4B23" stroke="#FBE3A5" stroke-width="1.89764" stroke-miterlimit="22.9256"/>
<path fill-rule="evenodd" clip-rule="evenodd" d="M19.5448 19.5448C20.0239 19.0658 20.7903 19.0658 21.2694 19.5448L24.0478 22.3233L26.8263 19.5448C27.3053 19.0658 28.0718 19.0658 28.5508 19.5448C29.0299 20.0239 29.0299 20.7903 28.5508 21.2694L25.7724 24.0478L28.5508 26.8263C29.0299 27.3053 29.0299 28.0718 28.5508 28.5508C28.0718 29.0299 27.3053 29.0299 26.8263 28.5508L24.0478 25.7724L21.2694 28.5508C20.7903 29.0299 20.0239 29.0299 19.5448 28.5508C19.0658 28.0718 19.0658 27.3053 19.5448 26.8263L22.3233 24.0478L19.5448 21.2694C19.0658 20.7903 19.0658 20.0239 19.5448 19.5448Z" fill="#FBE3A5"/>
</svg>
