<svg width="52" height="12" viewBox="0 0 52 12" fill="none" xmlns="http://www.w3.org/2000/svg">
<path d="M49.0223 5.88808C49.0225 5.88808 49.0215 5.89008 49.0189 5.89405C49.0208 5.89006 49.0221 5.88807 49.0223 5.88808ZM48.8809 5.96922C48.8942 5.9801 48.9064 5.99036 48.9175 6C48.9064 6.00964 48.8942 6.0199 48.8809 6.03078C48.6755 6.19807 48.3116 6.40426 47.7474 6.62661C46.6288 7.06737 44.9511 7.48454 42.8062 7.84203C38.5323 8.55435 32.5899 9 26 9C19.4101 9 13.4677 8.55435 9.19384 7.84203C7.04886 7.48454 5.37122 7.06737 4.25265 6.62661C3.68839 6.40426 3.32451 6.19807 3.11911 6.03078C3.10576 6.0199 3.0936 6.00964 3.08253 6C3.0936 5.99036 3.10576 5.9801 3.11911 5.96922C3.32451 5.80193 3.68839 5.59574 4.25265 5.37339C5.37122 4.93263 7.04886 4.51546 9.19384 4.15797C13.4677 3.44565 19.4101 3 26 3C32.5899 3 38.5323 3.44565 42.8062 4.15797C44.9511 4.51546 46.6288 4.93263 47.7474 5.37339C48.3116 5.59574 48.6755 5.80193 48.8809 5.96922ZM2.9777 5.88808C2.97788 5.88807 2.97917 5.89006 2.98105 5.89404C2.97847 5.89007 2.97753 5.88808 2.9777 5.88808ZM2.9777 6.11192C2.97753 6.11192 2.97847 6.10992 2.98105 6.10596C2.97917 6.10994 2.97788 6.11193 2.9777 6.11192ZM49.019 6.10597C49.0215 6.10993 49.0225 6.11192 49.0223 6.11192C49.0221 6.11193 49.0208 6.10995 49.019 6.10597Z" stroke="white" stroke-width="2"/>
<g filter="url(#filter0_f_122_144588)">
<path d="M49.0223 5.88808C49.0225 5.88808 49.0215 5.89008 49.0189 5.89405C49.0208 5.89006 49.0221 5.88807 49.0223 5.88808ZM48.8809 5.96922C48.8942 5.9801 48.9064 5.99036 48.9175 6C48.9064 6.00964 48.8942 6.0199 48.8809 6.03078C48.6755 6.19807 48.3116 6.40426 47.7474 6.62661C46.6288 7.06737 44.9511 7.48454 42.8062 7.84203C38.5323 8.55435 32.5899 9 26 9C19.4101 9 13.4677 8.55435 9.19384 7.84203C7.04886 7.48454 5.37122 7.06737 4.25265 6.62661C3.68839 6.40426 3.32451 6.19807 3.11911 6.03078C3.10576 6.0199 3.0936 6.00964 3.08253 6C3.0936 5.99036 3.10576 5.9801 3.11911 5.96922C3.32451 5.80193 3.68839 5.59574 4.25265 5.37339C5.37122 4.93263 7.04886 4.51546 9.19384 4.15797C13.4677 3.44565 19.4101 3 26 3C32.5899 3 38.5323 3.44565 42.8062 4.15797C44.9511 4.51546 46.6288 4.93263 47.7474 5.37339C48.3116 5.59574 48.6755 5.80193 48.8809 5.96922ZM2.9777 5.88808C2.97788 5.88807 2.97917 5.89006 2.98105 5.89404C2.97847 5.89007 2.97753 5.88808 2.9777 5.88808ZM2.9777 6.11192C2.97753 6.11192 2.97847 6.10992 2.98105 6.10596C2.97917 6.10994 2.97788 6.11193 2.9777 6.11192ZM49.019 6.10597C49.0215 6.10993 49.0225 6.11192 49.0223 6.11192C49.0221 6.11193 49.0208 6.10995 49.019 6.10597Z" stroke="#FF9E00" stroke-width="2"/>
</g>
<defs>
<filter id="filter0_f_122_144588" x="0" y="0" width="52" height="12" filterUnits="userSpaceOnUse" color-interpolation-filters="sRGB">
<feFlood flood-opacity="0" result="BackgroundImageFix"/>
<feBlend mode="normal" in="SourceGraphic" in2="BackgroundImageFix" result="shape"/>
<feGaussianBlur stdDeviation="1" result="effect1_foregroundBlur_122_144588"/>
</filter>
</defs>
</svg>
